<svg xmlns="http://www.w3.org/2000/svg" viewBox="0 0 792 612.31"><defs><style>.cls-1{fill:#db7;}.cls-2{fill:#f2e53f;}.cls-3{fill:#f8d6b7;}.cls-4{fill:#090909;}.cls-5{fill:#fff;}.cls-6{fill:#161616;}.cls-7,.cls-8{fill:#e0aa80;}.cls-7{stroke:#bb8969;}.cls-26,.cls-44,.cls-46,.cls-47,.cls-48,.cls-53,.cls-54,.cls-55,.cls-56,.cls-7{stroke-linecap:round;stroke-linejoin:round;}.cls-9{fill:#080507;}.cls-10,.cls-44{fill:none;}.cls-10{stroke:#e0aa80;stroke-miterlimit:10;}.cls-11{fill:#4e4e4e;opacity:0.81;}.cls-12{fill:#818181;}.cls-13{fill:#333434;}.cls-14{fill:#231f20;}.cls-15{fill:#ead725;}.cls-16{font-size:16px;fill:#f2eded;font-family:MyriadPro-Bold, Myriad Pro;font-weight:700;}.cls-17{letter-spacing:0.02em;}.cls-18{letter-spacing:-0.01em;}.cls-19{letter-spacing:-0.02em;}.cls-20{letter-spacing:-0.02em;}.cls-21{letter-spacing:0.02em;}.cls-22{letter-spacing:0em;}.cls-23{letter-spacing:-0.01em;}.cls-24{letter-spacing:0.02em;}.cls-25{letter-spacing:-0.07em;}.cls-26,.cls-51{fill:#c49a6c;}.cls-26{stroke:#c49a6c;}.cls-27{fill:#00aeef;}.cls-28{fill:#fbb040;}.cls-29{fill:#f8f7f7;}.cls-30{fill:#2e3192;}.cls-31{fill:#ee9ebf;}.cls-32{fill:#939598;}.cls-33{fill:#662d91;}.cls-34{fill:#b6225b;}.cls-35{fill:#4c1d1d;}.cls-36{fill:#8a2121;}.cls-37{fill:#e49025;}.cls-38{fill:#006838;}.cls-39{fill:#39b54a;}.cls-40{fill:#58595b;}.cls-41{fill:#754c29;}.cls-42{fill:#1b75bc;}.cls-43{fill:#262262;}.cls-44{stroke:#754c29;stroke-width:3px;}.cls-45{fill:#e5ad52;}.cls-46{fill:#3fb549;stroke:#3fb549;}.cls-46,.cls-47,.cls-48{stroke-width:0.75px;}.cls-47{fill:#b48d62;stroke:#b48d62;}.cls-48{fill:#fbf9dd;stroke:#fbf9dd;}.cls-49{fill:#db7172;}.cls-50{fill:#9a633a;}.cls-52{fill:#432a16;}.cls-53{fill:#774d2b;stroke:#784e2c;stroke-width:0.59px;}.cls-54{fill:#986130;stroke:#99622f;}.cls-54,.cls-55,.cls-56{stroke-width:0.39px;}.cls-55{fill:#8b5e3c;stroke:#8b5e3c;}.cls-56{fill:#cb9250;stroke:#cb9250;}.cls-57{fill:#a97c50;}</style></defs><title>library</title><g id="background"><rect class="cls-1" width="792" height="612"/></g><g id="posters"><g id="ninoy_poster" data-name="ninoy poster"><rect class="cls-2" x="56.12" y="109.68" width="107.03" height="142.72" transform="translate(-37.48 28.88) rotate(-12.84)"/><path class="cls-3" d="M91.16,210.42c.3,1,5.57,12.9,13.84,17,2.57,1.28,15.89,10.71,28.81,5.09,8.44-3.67,12.2-11.7,14.36-16.31,1.57-3.35,4.59-9.81,3.55-17.59-.13-1-2.66-11.34-2.66-11.34h0s2.38.44,3.21-1.53,2-14-.15-18.05-5.59-6.34-7.39-4.33,1,11.64,1,11.64l-22.36-36.94L74.24,157.23l11.64,42.12s-5.37-11.45-7.21-10.15-6.27,3.78-4.54,9.06,12.56,13.51,14.29,14.26S91.16,210.42,91.16,210.42Z"/><path class="cls-4" d="M69.48,147.68c2.23-4.81,13.55-19.47,27.94-23.59s33.26,7.36,37.53,13.41,11.46,21.12,10.65,22.3-1.74,8.32-.25,13.51-1.55-2.41-6.47-7-8.8-13.9-11.92-19.61-7.29-4.12-15-.44-28.87,9.26-33,11,2.45,14.2,4.64,20-1,6.58.29,10.1,3.37,11.19,3.37,11.19-1.25,1-1.44.69c-4.35-8.07-7.48-5.11-11.35-12-2.77-5-4.94-12.4-7.66-18.09-2.8-5.86,1.81-12.09,1.71-15.2A22.15,22.15,0,0,1,69.48,147.68Z"/><path class="cls-5" d="M132,176a7.93,7.93,0,0,0-7.1.29,7.69,7.69,0,0,0-3.46,5,12.82,12.82,0,0,0,5.17-1A13,13,0,0,0,132,176Z"/><path class="cls-5" d="M94.09,191a9.19,9.19,0,0,1,5.81-4.7,9,9,0,0,1,6.5.92,13.81,13.81,0,0,1-7,3.8A13.49,13.49,0,0,1,94.09,191Z"/><circle class="cls-6" cx="99.17" cy="188.78" r="2.13" transform="translate(-71.66 61.15) rotate(-25.52)"/><circle class="cls-6" cx="125.86" cy="178" r="2.13" transform="translate(-64.41 71.6) rotate(-25.52)"/><path class="cls-7" d="M132.92,207.52a10.33,10.33,0,0,0-1.88.19c-.51.16-4.18,0-4.35.66s-1.34,2-2.08,2-2.92.21-3.41.71-2.9,3.42-3.09,4.25a16.23,16.23,0,0,0,14.8-7.78Z"/><polyline class="cls-7" points="138.2 204.97 132.92 207.52 118.12 215.3 114.65 217.26"/><path class="cls-8" d="M143.55,200.23s-3.45-.37-4.6-1.53-12.37-4.55-11.83-4.14,2.14,3.11,1.79,3.61-1.86,1.48-2.14,1.29a2.15,2.15,0,0,0-2.28.17c-.78.7-1,1.84-1.25,1.91s-3.51,2.27-4.2,1.94-2.5-1-3.36-.43-.76,2.66-2.27,2.4-1.57-4-1.57-4-2.62,6.57-2.63,8.81a44.87,44.87,0,0,1-1.06,6.86s3.69-10.08,3.68-10.38,1.43.87,2.12.65,1.75-1.91,2.59-2.21a6.52,6.52,0,0,1,3.1-.1c.39.21,2.15-.44,2.5.09s1.86-1.48,2.1-2a3.23,3.23,0,0,1,1.81-1.56,21.64,21.64,0,0,0,3.35-2.28c.52-.35.64-2.37.64-2.37s8.3,2.54,9.56,3.51S143.55,200.23,143.55,200.23Z"/><path class="cls-8" d="M98,185.31c-2.21,1.07-4.51,3-4.63,5.63a10.92,10.92,0,0,1,14.05-3.85C107.09,186.84,102.18,183.3,98,185.31Z"/><path class="cls-8" d="M125.14,175c-3.81,2-4.16,6.38-4.18,6.62a8.54,8.54,0,0,1,13.32-5.32A8.09,8.09,0,0,0,125.14,175Z"/><path class="cls-9" d="M90.29,184.36c-.38.6,3.29-4.41,4-5.12s5.48-2,6.74-2.44,1.41,1,1.09,1.38-6.31,2.49-6.65,2.49S91.08,183.12,90.29,184.36Z"/><path class="cls-9" d="M130.13,168.23c.71.08-5.5-.22-6.52-.07s-5,3-6.13,3.7-.14,1.7.39,1.71,5.9-3.34,6.12-3.61S128.67,168.06,130.13,168.23Z"/><path class="cls-10" d="M78.86,194.42c-1.45-.56-3.73-.38-3,2.6s4.61,7.19,6.36,8.92"/><path class="cls-10" d="M86.73,202.09c-1.22-1.32-2.32-4.31-3.94-5.49s-2.61-3.27-4.75-3.89-3.13,1.59-3.16,2.48"/><path class="cls-8" d="M85.14,199.7a1.1,1.1,0,0,0-1.34,1.63,5.52,5.52,0,0,0,2,1.89c.83.52.53-1.66.41-1.84S85.14,199.7,85.14,199.7Z"/><path class="cls-10" d="M147.78,165.32c.92.68,2.18,2.37,3.08,5.49s1.26,5.11,1,7"/><path class="cls-10" d="M147.8,172.94c.91,1.08,2.79,2.67,2.39,4s-.44,1.59-.68,2.3"/><path class="cls-10" d="M146.57,173.13c-.23-1.46-1.31-3.12-1.14-4.71a7,7,0,0,1,.89-3.12"/><path class="cls-9" d="M138.59,170.83a3.83,3.83,0,0,0-3.63-1.77c-.35.11-41.75,17.09-45.16,18.47s-3,3.5-3,4.75l-1,.42,1.47,3.63,1-.42a79.54,79.54,0,0,0,4,9.09c1.93,3.45,5,2.32,5.52,2.53s13.15-5.07,13.68-5.54a10,10,0,0,0,1.88-3c.66-1.46-.34-5.41-.49-10s1.39-4.53,2.11-4.22,5.13,5.32,7.71,8.11,4.61,2,5.13,2.22,9.76-3.49,13.63-5.52,1.84-7.29,1.68-7.69l-2.94-7.27,1-.41-1.52-3.75Zm-27.1,25.32c.15,4.44-2,5-2,5s-8.43,3.56-11.18,4.61-5.21-2.36-5.54-2.93-4-8.42-4.3-10.42,1.62-3.58,1.62-3.58l17.06-7c2-.84,2.64.41,3.31,1.38S111.34,191.71,111.49,196.15Zm30.3-13.55c.17.64.82,4.78-1.86,6s-11.18,4.61-11.18,4.61-1.91,1.14-4.94-2.12-8.22-8.8-8.43-10-.66-2.47,1.38-3.31l17.06-7s2.47-.22,3.67,1.4S141.62,182,141.8,182.6Z"/><polygon class="cls-5" points="111.26 180.92 113.3 180.08 113.64 181.86 112.22 182.44 111.26 180.92"/><path class="cls-9" d="M87.23,196.33,79.37,189a.89.89,0,0,1,0-.57.64.64,0,0,1,.33-.34c2.19,1.94,3.85,2.66,6,4.6"/><path class="cls-9" d="M139.67,170.39l2-5.27a.65.65,0,0,1,1.06.06l-1.59,9"/><path class="cls-8" d="M86.91,181.71c.63-2,.57-5.2,4.85-6.55s7.11-2,7.11-2l.2.43.26.53a42.87,42.87,0,0,0-7.11,2c-4.28,1.35-4.22,4.58-4.85,6.55a.68.68,0,0,1-.43-.29A.73.73,0,0,1,86.91,181.71Z"/><path class="cls-8" d="M130.84,165.81c-.3-.21-2.93-1.4-4.16-1.9s-5.44,1.81-7.57,2.92l-.46-1c2.13-1.11,6.34-3.42,7.57-2.92s3.86,1.69,4.16,1.9a1.33,1.33,0,0,1,.46,1Z"/><path class="cls-8" d="M123.68,156c-2.53,1.5-5.52,1.85-9.88,3.24a69.66,69.66,0,0,0-10.73,4.53c-2.76,1.42-10,5.35-12.67,6.64a.59.59,0,0,1-.28-.31.58.58,0,0,1,0-.33c4.83-2.82,9.22-4.87,12.67-6.64a69.66,69.66,0,0,1,10.73-4.53c4.36-1.39,7.35-1.73,9.88-3.24a.56.56,0,0,1,.3.32A.54.54,0,0,1,123.68,156Z"/><path class="cls-8" d="M120.61,154.7c-2.22,1.32-4.85,1.61-8.68,2.82a59.92,59.92,0,0,0-9.42,4c-2.43,1.25-8.74,4.7-11.12,5.84a.54.54,0,0,1-.25-.28.53.53,0,0,1,0-.3c4.24-2.48,8.09-4.28,11.12-5.84a59.92,59.92,0,0,1,9.42-4c3.83-1.21,6.46-1.5,8.68-2.82a.51.51,0,0,1,.27.28A.49.49,0,0,1,120.61,154.7Z"/><path class="cls-8" d="M104.62,195.26c.78,1.12,2.54-5.38,3.18-6.38,0,0-2.75,1-3.74,1.46S104.16,194.59,104.62,195.26Z"/><path class="cls-8" d="M124.29,182.21c1.66.17,2.62.9,4.13,0s2.44-1.41,2.44-1.41-2.81,2.77-3.68,2.82S124.29,182.21,124.29,182.21Z"/><path class="cls-8" d="M122.65,226.44c.11.48,7.82,2.9,9.29,2.39s4.53-3,6.16-6.36,3.4-5.58,2.67-5.68-6,7.13-7.2,8-3,2.11-4.81,1.62S122.56,226,122.65,226.44Z"/><path class="cls-8" d="M122.47,219.33c1.13-.79,2.11-1.9,3.09-2.61a14,14,0,0,1,4.36-2.28,33.83,33.83,0,0,0,4.72-1.68c.33-.14-1,2.32-3.23,3.14s-5.7,3.06-6.84,3.29A8.3,8.3,0,0,1,122.47,219.33Z"/><path class="cls-11" d="M85.09,133.61c2.07-1.59,9.62-6.25,12.66-7s11.9-1.48,15.69-.14S127,134.27,130,136.12s7.62,8,8.18,13,1.76,4.83.33,7.17-8-7.82-10.4-10.08-3.65-8.05-10.1-7.49-8.31-2-14.6,2.75-13.46,8.26-16.32,7-8.1-5.06-8.17-7S83.45,134.88,85.09,133.61Z"/><path class="cls-12" d="M131,139.38c-2.51-.92-10.72-9.46-16.42-10.68s-9.73-3.23-16.33-1.07a42.89,42.89,0,0,0-14.83,8.85c-2.43,2.34,17.42-5,20.49-5.45s-8.94,7-11.18,8.49,1,2.77,3.13,2.78,10-6.41,14.45-6.9,12.64-.07,17.63,7.4,6,9.11,6,9.11l-4.88-10.23c-.38-.8,5.15,3,6.29,6.8S136.62,141.43,131,139.38Z"/><path class="cls-12" d="M69.07,162.59c-.66,1.17.62,6,2.17,9.4s2.48,11,3.45,11.62,2.57,1.66,2.57,1.66-1.52-2.49-1.8-3.08a13.74,13.74,0,0,1-1.26-4,18.66,18.66,0,0,0-.09-2.11s2.15,2.58,2.56,3.31a14,14,0,0,1,1.74,2.78c.47,1.29.28-4.6.17-5.66s.24-2.7,0-3.47c-.92-3.35-.29-6.56-2.2-8-.82-.6-1.07-.24-4.06-1.22C70.93,163.39,69.46,161.88,69.07,162.59Z"/></g><g id="L"><rect class="cls-13" x="595.1" y="110.54" width="113.09" height="155.49" transform="translate(86.88 -187.39) rotate(17.51)"/><path class="cls-2" d="M626.22,261.79c-.59-3.69.27-22.07.48-24.24s3.6-45.25,3.64-45.87-1.91-5.07-2.85-7.12-4.43-12.24-4.24-12.82,1.19-3.77,2.85-5a13.25,13.25,0,0,1,4.87-2.29c.63,0,2-2.39,2.85-2.45s1.72-.89,1.64-2.67,1.92-3.06,1.92-3.06l-4.37-18a6.28,6.28,0,0,1,4.6,2.09c1.72,2.14,4.14,12.14,4.69,13.43s1.35,6.32,3,8.75,4.64,7.52,7.51,6.51,8.38-5.33,9.43-5.63a11,11,0,0,1,6.16.19c2.27.88,2.19,1.65,2.19,1.65s-9,5.29-10.41,7.23-7.55,11.8-8.59,13.07-5.3,8.21-5.54,11.48-1.23,16-.39,23.47,3.6,41.62,3.62,42.58.63,6.1.63,6.1Z"/></g><g id="glasses_folder" data-name="glasses folder"><rect class="cls-2" x="421.39" y="32.63" width="123.65" height="95.88"/><path id="glasses" class="cls-9" d="M519.27,65.23c-.63-2.61-3.78-3.49-4.28-3.45s-60.69,10.08-65.64,10.88-5,3.75-5.44,5.4l-1.51.25.86,5.28,1.51-.25a108.48,108.48,0,0,0,2.55,13.3c1.52,5.17,6,4.62,6.57,5s19-2.75,19.87-3.23A13.62,13.62,0,0,0,477.17,95c1.33-1.74,1.18-7.3,2.4-13.51s3.22-5.6,4.08-5,5.21,8.63,7.8,13.12,5.52,4.05,6.15,4.5,14-1.69,19.79-3.21,4.65-9.13,4.56-9.71l-1.71-10.55,1.48-.24L520.83,65ZM475.56,90.69c-1.14,6-4.18,6-4.18,6s-12.28,2.18-16.26,2.74-6.22-4.71-6.47-5.57-2.77-12.41-2.56-15.16,3.23-4.27,3.23-4.27l24.82-4.18c3-.5,3.39,1.35,4,2.83S476.7,84.74,475.56,90.69ZM520,81.85c0,.9-.35,6.61-4.29,7.39S499.41,92,499.41,92s-2.89.94-5.92-4.31-8.27-14.19-8.2-15.79-.13-3.48,2.83-4l24.82-4.18s3.35.45,4.46,3S519.92,81,520,81.85Z"/></g><g id="quote"><rect class="cls-14" x="253.36" y="168.58" width="136.67" height="176.67" transform="translate(68.23 -67.51) rotate(13.39)"/><g id="ninoySymbol"><path class="cls-15" d="M308.23,194.44c-.39-2.9-.91-8-.17-10.18s4.26-6.11,7-6.55,10-1.95,14.59,2.18,4.7,12.45,4.7,12.45a52.34,52.34,0,0,0-13.13-.79A43.86,43.86,0,0,0,308.23,194.44Z"/><path class="cls-2" d="M359.7,253.7l-4.81,20.22s-20.78-20.16-23-22.32-24.57-27.38-24.57-27.38-9.49-15.21-10.6-18.71,4-12.16,5.43-13.28,5.95-8,5.95-8a25.37,25.37,0,0,0,2.81,15.38c4.56,7.8,12,16.53,22.67,28.56Z"/><path class="cls-2" d="M296.1,260.58c3.6-5.62,27.14-44.57,28.76-48.07s9.22-20.28,8.67-24.13-3.87-8.46-3.87-8.46,15,14,16.06,16.38-.44,14.79-3.4,20.4-35.75,61.75-35.75,61.75Z"/></g><text class="cls-16" transform="matrix(0.97, 0.23, -0.23, 0.97, 253.13, 292.98)"><tspan class="cls-17">“</tspan><tspan class="cls-18" x="7.57" y="0">T</tspan><tspan x="16.14" y="0">he </tspan><tspan class="cls-19" x="37.2" y="0">F</tspan><tspan x="45.31" y="0">ilipino is</tspan><tspan class="cls-20" x="0" y="19.2">w</tspan><tspan x="11.9" y="19.2">o</tspan><tspan class="cls-21" x="21.14" y="19.2">r</tspan><tspan class="cls-22" x="27.55" y="19.2">th dying </tspan><tspan class="cls-23" x="90.29" y="19.2">f</tspan><tspan x="95.58" y="19.2">o</tspan><tspan class="cls-24" x="104.81" y="19.2">r</tspan><tspan class="cls-25" x="111.18" y="19.2">”</tspan></text></g></g><g id="bookshelf"><g id="bookshelf1"><g id="shelfcolors"><rect class="cls-26" x="508.08" y="420.82" width="282.3" height="63.29"/><rect class="cls-26" x="508.08" y="484.1" width="282.3" height="63.29"/><rect class="cls-26" x="508.08" y="547.39" width="282.3" height="63.29"/></g><rect id="blue1" class="cls-27" x="508.08" y="430.66" width="14.03" height="52.6"/><rect class="cls-28" x="569.31" y="430.66" width="14.03" height="52.6"/><rect id="blue2" class="cls-27" x="583.33" y="430.66" width="14.03" height="52.6"/><rect id="white" class="cls-29" x="663.95" y="430.66" width="14.03" height="52.6"/><g id="bluepink"><rect class="cls-30" x="555.28" y="439.21" width="14.03" height="44.05"/><rect class="cls-31" x="555.28" y="444.2" width="14.03" height="11.97"/></g><g id="beigegrey"><rect class="cls-3" x="597.36" y="439.21" width="14.03" height="44.05"/><rect class="cls-32" x="597.36" y="456.18" width="14.03" height="10.12"/></g><g id="purplewhite"><rect class="cls-33" x="730.98" y="430.66" width="14.03" height="52.6"/><rect class="cls-29" x="730.98" y="454.93" width="14.03" height="4.05"/><rect class="cls-29" x="730.98" y="433.16" width="14.03" height="4.05"/><rect class="cls-29" x="730.98" y="475.43" width="14.03" height="4.05"/></g><rect id="orange1" class="cls-28" x="745.01" y="430.66" width="14.03" height="52.6"/><rect id="purple1" class="cls-33" x="677.98" y="554.02" width="14.03" height="56.79"/><rect id="pink1" class="cls-34" x="692.01" y="554.02" width="14.03" height="56.79"/><rect id="maroon2" class="cls-35" x="765.44" y="438.12" width="14.03" height="44.05" transform="translate(-103.78 258.55) rotate(-17.83)"/><g id="lightdarkblue"><rect class="cls-27" x="611.39" y="433.16" width="14.03" height="50.1"/><rect class="cls-30" x="611.39" y="435.92" width="14.03" height="7.01"/><rect class="cls-30" x="611.39" y="472.38" width="14.03" height="7.01"/></g><g id="redbook"><rect class="cls-35" x="625.42" y="439.21" width="14.03" height="44.05"/><rect class="cls-36" x="625.42" y="439.21" width="14.03" height="21.4"/></g><rect id="grey2" class="cls-32" x="594.89" y="493.86" width="17.6" height="53.53"/><g id="darkredpink"><rect class="cls-35" x="612.49" y="503.34" width="14.03" height="44.05"/><rect class="cls-34" x="612.49" y="511.29" width="14.03" height="6.06"/><rect class="cls-34" x="612.49" y="539.15" width="14.03" height="6.06"/><rect class="cls-34" x="612.49" y="524.29" width="14.03" height="6.06"/></g><g id="darklightorange"><rect class="cls-28" x="729.47" y="510.67" width="18.79" height="36.72"/><rect class="cls-37" x="729.47" y="524.76" width="18.79" height="8.54"/></g><rect id="navyblue" class="cls-30" x="627.73" y="572.37" width="18.79" height="36.72" transform="translate(-88.8 113.32) rotate(-9.5)"/><g id="darkredgreen"><rect class="cls-35" x="677.98" y="433.16" width="14.03" height="50.1"/><rect class="cls-38" x="677.98" y="449.29" width="14.03" height="17.84"/></g><rect id="red1" class="cls-36" x="692.01" y="439.21" width="14.03" height="44.05"/><g id="lightgreenwhite"><rect class="cls-39" x="706.04" y="433.16" width="14.03" height="50.1"/><rect class="cls-29" x="706.04" y="455.15" width="14.03" height="6.11"/></g><rect id="darkgreen1" class="cls-38" x="720.06" y="439.21" width="10.92" height="44.05"/><rect id="maroon3" class="cls-35" x="538.38" y="435.34" width="14.03" height="47.28" transform="translate(-34.29 44.15) rotate(-4.49)"/><rect id="red2" class="cls-36" x="541.31" y="499.92" width="14.03" height="47.47"/><rect id="maroon4" class="cls-35" x="508.08" y="558.34" width="8.84" height="52.34"/><rect id="blue4" class="cls-27" x="615.86" y="567.07" width="8.84" height="43.61"/><rect id="grey3" class="cls-32" x="516.92" y="570.79" width="14.03" height="39.89"/><rect id="red3" class="cls-36" x="759.84" y="570.79" width="14.03" height="39.89"/><rect id="blue5" class="cls-27" x="773.87" y="561.83" width="15.79" height="48.98"/><g id="darklight"><rect class="cls-40" x="527.91" y="503.34" width="13.4" height="44.05"/><rect class="cls-32" x="527.91" y="510.04" width="13.4" height="8.56"/><rect class="cls-32" x="527.91" y="536.07" width="13.4" height="8.56"/></g><rect id="black" class="cls-14" x="566.84" y="497.29" width="14.03" height="50.1"/><g id="lightdarkgreen"><rect class="cls-39" x="580.86" y="494.79" width="14.03" height="52.6"/><rect class="cls-38" x="580.86" y="518.6" width="14.03" height="4.98"/><rect class="cls-38" x="580.86" y="541.11" width="14.03" height="4.98"/><rect class="cls-38" x="580.86" y="497.43" width="14.03" height="4.98"/></g><g id="brownbook"><rect class="cls-3" x="649.93" y="560.7" width="14.03" height="50.1"/><rect class="cls-41" x="649.93" y="580.81" width="14.03" height="9.9"/></g><rect id="grey1" class="cls-40" x="663.95" y="558.21" width="14.03" height="52.6"/><g id="bluebook"><rect class="cls-42" x="711.5" y="567.07" width="14.03" height="43.74"/><rect class="cls-30" x="711.5" y="583.15" width="14.03" height="11.57"/></g><g id="pink"><rect class="cls-31" x="725.52" y="558.21" width="14.03" height="52.6"/><rect class="cls-34" x="725.52" y="583.15" width="14.03" height="2.71"/><rect class="cls-34" x="725.52" y="606.13" width="14.03" height="2.71"/><rect class="cls-34" x="725.52" y="560.48" width="14.03" height="2.71"/></g><rect id="maroon1" class="cls-35" x="739.55" y="554.02" width="20.29" height="56.66"/><rect id="grey1-2" data-name="grey1" class="cls-32" x="581.55" y="565.33" width="14.03" height="45.34"/><g id="blueorange"><rect class="cls-30" x="555.74" y="503.34" width="11.1" height="44.05"/><rect class="cls-37" x="555.74" y="518.6" width="11.1" height="13.54"/></g><g id="pinkpurple"><rect class="cls-34" x="775.63" y="497.29" width="14.03" height="50.1"/><rect class="cls-33" x="775.63" y="515.81" width="14.03" height="13.05"/></g><g id="darklightred"><rect class="cls-35" x="761.6" y="503.34" width="14.03" height="44.05"/><g id="darklightred-2" data-name="darklightred"><rect class="cls-36" x="761.6" y="510.68" width="14.03" height="7.27"/><rect class="cls-36" x="761.6" y="532.78" width="14.03" height="7.27"/></g></g><rect id="beige1" class="cls-3" x="511.84" y="499.48" width="14.03" height="47.28" transform="translate(-39.39 42.26) rotate(-4.49)"/><g id="blueanddarkbook"><rect class="cls-43" x="532.7" y="562.58" width="14.03" height="47.28" transform="translate(-44.28 44.09) rotate(-4.49)"/><rect class="cls-30" x="532.7" y="584.51" width="14.03" height="3.42" transform="translate(-44.28 44.09) rotate(-4.49)"/><rect class="cls-30" x="531.14" y="564.64" width="14.03" height="3.42" transform="translate(-42.72 43.91) rotate(-4.49)"/><rect class="cls-30" x="534.27" y="604.42" width="14.03" height="3.42" transform="translate(-45.83 44.28) rotate(-4.49)"/></g><rect id="blue3" class="cls-27" x="628.35" y="499.48" width="14.03" height="47.28" transform="translate(-39.04 51.39) rotate(-4.49)"/><rect id="green1" class="cls-39" x="644.72" y="435.34" width="14.03" height="47.28" transform="translate(110.56 -126.3) rotate(12.09)"/><g id="divider"><line class="cls-44" x1="508.08" y1="483.96" x2="790.38" y2="483.96"/><line class="cls-44" x1="508.08" y1="548.5" x2="790.38" y2="548.5"/></g><g id="grey_black_book" data-name="grey/black book"><rect class="cls-40" x="522.11" y="430.66" width="14.03" height="52.6"/><rect class="cls-32" x="522.11" y="430.66" width="14.03" height="26.3"/></g><g id="white_black" data-name="white/black"><rect class="cls-14" x="748.26" y="499.38" width="14.03" height="47.47"/><rect class="cls-29" x="748.26" y="520.08" width="14.03" height="8.4"/></g><g id="orangebook"><rect class="cls-37" x="595.57" y="557.15" width="20.29" height="53.53"/><rect class="cls-37" x="595.57" y="578.25" width="20.29" height="8.19"/><rect class="cls-45" x="595.57" y="574.09" width="20.29" height="4.16"/><rect class="cls-45" x="595.57" y="586.44" width="20.29" height="4.16"/></g><g id="white_orange" data-name="white/orange"><rect class="cls-29" x="706.04" y="560.7" width="5.38" height="50.1"/><rect class="cls-28" x="706.04" y="562.91" width="5.38" height="2.77"/></g><rect id="outline" class="cls-44" x="508.08" y="420.82" width="282.3" height="189.99"/></g></g><g id="lamp_book" data-name="lamp/book"><g id="lamp"><path class="cls-46" d="M552.63,388.68s.07-4.9.45-7.28,1.26-4.76,3.34-5.8,5.05-1.78,9.51-1.78,16.8.37,17.09.37,4.61.82,6.17,2.08a9.71,9.71,0,0,1,3.12,3.94c1,1.93,2.75,5.72,2.75,5.72s-21.11,1.56-22.44,1.49-10.18,0-11.22.07-5.95.74-6.84.82A12,12,0,0,0,552.63,388.68Z"/><path class="cls-47" d="M565.64,388.68c0,1.71-.5,25.68-.5,25.84a30.14,30.14,0,0,1-2.12,2.73c-.17.17.17,1.56,2.17,1.56s4.4-.17,4.82-.78a1,1,0,0,0,0-1.14l-2.09-2.7.42-25.78Z"/><path class="cls-48" d="M552.63,388.68s6.91.15,10,0,14.27-.67,14.86-.74,13.45-1.26,14-1.26,3.57-.74,3.57-.74-20,1.51-22.08,1.48-10.91,0-11.59.08S552.63,388.68,552.63,388.68Z"/></g><g id="pinkredbook"><rect class="cls-49" x="578.61" y="385.09" width="14.03" height="55.42" transform="translate(172.82 998.43) rotate(-90)"/><rect class="cls-35" x="578.61" y="408.18" width="14.03" height="9.25" transform="translate(172.82 998.43) rotate(-90)"/></g></g><g id="Layer_5" data-name="Layer 5"><polygon class="cls-50" points="376.15 398.95 133.53 398.95 129.97 393.48 379.71 393.48 376.15 398.95"/><polygon class="cls-51" points="362.62 388.34 151.41 388.34 129.97 393.51 384.06 393.51 362.62 388.34"/><polygon class="cls-52" points="341.11 419.26 341.11 554.36 163.26 554.36 163.26 419.26 153.88 419.26 153.88 563.75 156.22 563.75 163.26 563.75 341.11 563.75 348.94 563.75 350.5 563.75 350.5 419.26 341.11 419.26"/><path class="cls-53" d="M76.69,375.19l12.16-1.63s6.26,23.67,7,27.68,5.67,22.59,5.67,22.59l-11.05,3.29s-4.25-17.94-4.6-19.32-4-14.64-4.37-15.77Z"/><polygon class="cls-53" points="425.21 372.98 414.78 372.98 401.75 423.18 412.38 423.18 425.21 372.98"/><path class="cls-54" d="M401.74,423.18s-6.38,24.64-8.61,30c-5.54,13.3-20.21,18.78-21.38,19.3s21.25,0,21.25,0a13.44,13.44,0,0,0,3.59-4.3c1-2.35,5.15-11.21,5.15-11.21s4.37-13.23,4.43-13.89,1.24-19.88,1.24-19.88Z"/><path class="cls-54" d="M95,425.79l6.58-2s4.34,23.6,10.85,33.77,13.4,14.83,17.11,15.32H108s-3.29-1.84-6.16-9.31-4.73-13.83-4.73-13.83Z"/><path class="cls-55" d="M108,472.92s54-1.76,59.45-2.15,37.16-2.44,37.16-2.44v23.76s1.08,36.28.88,39.7,0,38.43,0,38.43v6.65h-3.23l-.41-41.07-.59-41.86-.67-18-12.33.71s-49,1.62-52.15,1.66-17.23.22-18.74-.22S109.6,475.27,108,472.92Z"/><path class="cls-55" d="M371.76,472.46s-33.15-2.58-39.41-3.16S297.92,467,297.92,467V576.09h3.16V474.68S330.94,477,336,477.42s32.5.94,33,.95,10.22.17,12.11,0,9.68-4.17,14-7C397.56,469.82,371.76,472.46,371.76,472.46Z"/><path class="cls-54" d="M78.92,578.34h6.24s5.22-19.17,7.43-24,8.08-22.95,10.82-29.08,8.9-21.71,9.78-23.86a8.07,8.07,0,0,1,3-3.42s-8.16,4.38-11.46,10.46a203.42,203.42,0,0,0-12.54,29.72C88.95,548.6,78.92,578.34,78.92,578.34Z"/><path class="cls-56" d="M72.77,376.5l3.91-1.3s8.34,28.69,9.23,32.6,6,25.43,8,32.76,6.94,21.71,9.78,27.09,9.58,9.58,13.69,10.46,52.32-.49,56.62-.68,25.72-1.37,26.6-1.47S202.28,579,202.28,579v13.59h-6.94V565.72s-1.37-22.79-2-28.75-1.08-17.11-2.25-21.32-2.54-14.57-5.67-17.41-9.88-8-17.9-8-32.66,1.27-36,2.35-19.17,3.49-26.79,15.87-14.38,35.47-16.23,41.43-14.38,42.25-14.38,42.25H66.45s5.57-21.51,7.24-27.58,7.82-26.7,8.7-33.54,6.06-25.13,6.45-31.78-.39-36-.39-38.82-3.72-26.11-4.3-27.87-6.16-33.9-7-36.32S72.77,376.5,72.77,376.5Z"/><path class="cls-54" d="M425.19,577.14h-6.11s-1-3.88-2.87-9.62-7.69-20.6-9.26-24.64-8.61-26.08-11.21-30.38-5.65-13.71-7-14.38a38,38,0,0,1,10.86,12.32c4.67,8.8,9.59,21.62,11.3,26.32S425.19,577.14,425.19,577.14Z"/><path class="cls-56" d="M425.21,373l3.78,1.3-7.56,38.46s-4.17,21.91-4.43,23.86-2.74,17.47-2.74,25.82-.39,31.55,0,35.34,3,21.77,4,25.3,6.52,25.43,7.3,27.77,11.34,39.77,11.34,39.77h-7.43s-10.43-32.73-11.6-35.07-12.13-33.77-14.34-37.94-7.3-14.47-13.43-18.65-24.64-9-33.64-8.87-27.51-.65-29.6,0a22.49,22.49,0,0,0-12,11c-3.26,6.91-4,17.47-4.56,25s-1.43,10.69-1.43,20.47V592h-7.82V474.68s29.86,1.83,34.94,2.74,37.29.91,40.68,1,15.91-3.65,18.38-7,7.82-15.39,9.78-20.47,12-45.64,12-45.64Z"/><path class="cls-57" d="M136.14,398.92V610.68H372.41V398.92ZM359.89,597.64H147.1V419.27H359.89Z"/></g></svg>