<svg viewBox="0 0 137 124.5"><defs><style>.cls-1{fill:#fff;stroke:#000;stroke-miterlimit:10;opacity:0.8;}.cls-2{font-size:12px;font-family:MyriadPro-Regular, Myriad Pro;}.cls-3{letter-spacing:0em;}.cls-4{letter-spacing:0em;}.cls-5{letter-spacing:-0.01em;}.cls-6{letter-spacing:-0.01em;}.cls-7{letter-spacing:0em;}.cls-8{letter-spacing:-0.01em;}.cls-9{letter-spacing:0.02em;}.cls-10{letter-spacing:-0.03em;}.cls-11{letter-spacing:-0.01em;}.cls-12{letter-spacing:0em;}</style></defs><title>Asset 20</title><g id="Layer_2" data-name="Layer 2"><g id="crabspeech3"><path class="cls-1" d="M124.5,123.83,98.83,124l-86.33-.17a12,12,0,0,1-12-12V12.5a12,12,0,0,1,12-12h112a12,12,0,0,1,12,12v99.33A12,12,0,0,1,124.5,123.83Z"/><text class="cls-2" transform="translate(5.8 38.77)"><tspan class="cls-3">G</tspan><tspan class="cls-4" x="7.81" y="0">et </tspan><tspan class="cls-5" x="20.34" y="0">r</tspan><tspan x="24.14" y="0">eady </tspan><tspan class="cls-6" x="50.9" y="0">t</tspan><tspan x="54.8" y="0">o lea</tspan><tspan class="cls-7" x="78.56" y="0">r</tspan><tspan x="82.53" y="0">n the</tspan><tspan x="0" y="14.4">his</tspan><tspan class="cls-8" x="14.22" y="14.4">t</tspan><tspan x="18.12" y="14.4">o</tspan><tspan class="cls-9" x="24.71" y="14.4">r</tspan><tspan x="28.93" y="14.4">y behind a </tspan><tspan class="cls-10" x="83.73" y="14.4">F</tspan><tspan x="89.27" y="14.4">ilipino</tspan><tspan x="0" y="28.8">Holid</tspan><tspan class="cls-11" x="26.82" y="28.8">a</tspan><tspan class="cls-12" x="32.51" y="28.8">y!</tspan></text></g></g></svg>