<svg viewBox="0 0 137 124.5"><defs><style>.cls-1{fill:#fff;stroke:#000;stroke-miterlimit:10;opacity:0.8;}.cls-2{font-size:12px;font-family:MyriadPro-Regular, Myriad Pro;}.cls-3{letter-spacing:0em;}.cls-4{letter-spacing:-0.01em;}.cls-5{letter-spacing:-0.01em;}.cls-6{letter-spacing:-0.01em;}.cls-7{letter-spacing:-0.01em;}.cls-8{letter-spacing:-0.04em;}</style></defs><title>Asset 19</title><g id="Layer_2" data-name="Layer 2"><g id="crabspeech2"><path class="cls-1" d="M124.5,123.83,98.83,124l-86.33-.17a12,12,0,0,1-12-12V12.5a12,12,0,0,1,12-12h112a12,12,0,0,1,12,12v99.33A12,12,0,0,1,124.5,123.83Z"/><text class="cls-2" transform="translate(5.8 38.77)">I am the jumping c<tspan class="cls-3" x="93.39" y="0">r</tspan><tspan x="97.26" y="0">ab </tspan><tspan x="0" y="14.4">and I will be </tspan><tspan class="cls-4" x="62.4" y="14.4">y</tspan><tspan x="67.93" y="14.4">our guide</tspan><tspan class="cls-5" x="0" y="28.8">f</tspan><tspan x="3.35" y="28.8">or </tspan><tspan class="cls-6" x="16.4" y="28.8">t</tspan><tspan x="20.3" y="28.8">od</tspan><tspan class="cls-7" x="33.66" y="28.8">a</tspan><tspan class="cls-8" x="39.35" y="28.8">y</tspan><tspan x="44.53" y="28.8">. </tspan></text></g></g></svg>