<svg xmlns="http://www.w3.org/2000/svg" viewBox="0 0 117.46 87.7">
    <defs>
    <style>
        .cls-1,.cls-2,.cls-3{fill:#a90d00;}.cls-1,.cls-2{stroke:#a90d00;stroke-linecap:round;stroke-linejoin:round;}.cls-1{stroke-width:0.64px;}.cls-2{stroke-width:0.32px;}.cls-4{fill:#fff;}.cls-5{fill:#c7554b;}
    </style>
    </defs>
    <title>Asset 1</title>
    <g id="Layer_2" data-name="Layer 2">
        <g id="speech2">
            <path class="cls-1" d="M97.07,49.8a51.11,51.11,0,0,1-7.93-1.07c-2.36-.72-2.89-3.92-5.35-6.59s-8.33-5.76-11-7.2-20.65-.52-20.65-.52c-3.59.51-9.55,4-11.09,4.82S28.83,50.54,27.8,51.16s-5.14.51-6.57.72l-3.08-3.39c-1-1.13-7.09-8-7.7-8.42a6.36,6.36,0,0,0-2-.62l-.17-1.06s-2.81-4-3-4.42-1.78-3.8-2-3.9-.86.17-.92.82a28.45,28.45,0,0,0,0,4.52c.17.68,1.13,4.35,2,5.37a6,6,0,0,1,1,1.4l.61.31v1.68s3.58,4.18,4,4.45,1.72.79,2,1.06,1,1.47,1.26,1.85a33.74,33.74,0,0,0,4.34,2.74c.27.07,2.38.55,2.72.65s1.44.72,1.75.82,8,0,8.94,0,4.42.34,5.17.92,1.71,1.16,1.71,1.16-3.35.31-4.38.38-6.09,1.3-7.09,1.54A43.47,43.47,0,0,1,21.29,61c-.89,0-4.76.31-5.37.41a17.84,17.84,0,0,0-2.6.86,13.46,13.46,0,0,1-2.88,0c-.38,0-2.74.48-3.87.65A17.53,17.53,0,0,0,2.3,64.68c-.25.24-1.75,1.27-1.93,1.71a.72.72,0,0,0,.55,1,17.07,17.07,0,0,0,4.14-1A12.43,12.43,0,0,1,8.7,66c.58,0,4.31-.34,4.76-.38s5.1-.55,5.41-.55,3.49-.65,4.45-.65,6.37-1.54,7.26-1.51,7.46-1.27,8.11-1.16,3.73-.1,4.24.31-1,1.3-1.51,1.27a17.57,17.57,0,0,0-3-.1c-.45.14-2.77.82-3.22.92s-3.63,2.29-3.87,2.43a7.07,7.07,0,0,0-2,.86c-.48.48-.65,2.33-.65,2.87s-.07,1.85-.51,2.09a34.42,34.42,0,0,0-3.56,3.46,17.68,17.68,0,0,0-.38,3.22,10.78,10.78,0,0,0,2,4.31,10.93,10.93,0,0,0,3.8,2.88,16.89,16.89,0,0,0,3.49.58,6,6,0,0,0,2.29-2.43c0-.55-.75-3.94-1.34-4.48s-.38-2.7-.21-3.15a20,20,0,0,0,0-2.88c0-.34.86-2.74.89-3.25s.45-1.2,1.61-1,6-.86,7.05-1.68A8.9,8.9,0,0,1,47.45,66c1.13-.17,2.36-.79,4-.62s11,.65,12.29.65,4.31-.51,4.9-.41,1.06.92,1.75,1.1a17.27,17.27,0,0,0,2.16.07,17.38,17.38,0,0,0,2.6,1.78c.79.24,2.16.07,2.53.24s1.4,1.37,2,1.54a17.66,17.66,0,0,1,3.56,1.34,10.23,10.23,0,0,1,.27,2c.07.31.75.89.89,1.4A14,14,0,0,0,85,76.86c.24.58,1.13,2.16,1.44,3A8,8,0,0,1,86.3,83c-.1.89.27,3.51.82,3.84s3.25,1.57,6.13-1.31,3.15-4.07,3.15-4.45-.75-3.77-2.26-5.13a31.33,31.33,0,0,0-3.94-2.81c-.27-.21-.51-1.64-.86-2.19a13,13,0,0,0-2.64-3c-.65-.27-4.24-2.43-5.72-2.77s-2.84-.34-3.39-.58-2.88-1-2.91-1.06,0-1.1.48-1.27a6.74,6.74,0,0,1,2.5.34c.68.17,6.37,1.85,7.29,2.09s3.63,1.1,5.41,1.4,5,.41,5.51.79,4.69,2.53,5.41,2.88,2.77,1.27,3,1.4,2.05.17,2.84.65,2.16,1.64,2.64,2a2,2,0,0,0,1.06.34s-.1-1.88-.24-2.53-.65-2.33-1.85-2.77-3.7-1.54-4.07-1.54a7.42,7.42,0,0,1-1.3,0c-.14-.07-.62-.82-1.23-1.1s-2.53-1-3-1.2S91,62.14,89.31,61.73s-9-2-9.14-2.05-.72-.17-.72-.31a10,10,0,0,1,4.9-.89c2.43.17,7.53,0,8.35-.07s7.39-.51,8.32-.51,8.73.24,9.65.21,4.72-.38,5.07-.24a1.79,1.79,0,0,0,1.34-.41c.17-.21,0-1.54-.38-1.71s-1.4-.55-1.71-.75a40.6,40.6,0,0,0-5.44-.17c-1.37,0-8.56,0-10,0s-10.2-.1-10.2-.1a41.71,41.71,0,0,1,6.5-1c2.29,0,4.07-.24,4.69-.75s4.59-5.24,5-5.72,4.35-4.76,4.66-5.31a12.51,12.51,0,0,0,1-4.24c-.1-1-1-4.72-1.06-5A13.15,13.15,0,0,0,109,31c-.34-.45-1-2.16-1.3-2.33s-1.16-.21-1.2,1.23.72,6.71.65,7.26-1.16,1.51-1.68,2-4.31,4-4.48,4.14-1.13.46-1.47.93a15,15,0,0,0-.92,3C98.56,47.39,97.52,49.83,97.07,49.8Z"/>
            <path class="cls-2" d="M34.34,45.17A36.21,36.21,0,0,1,28,44.58c-1.13-.34-3.18-.62-3.25-.72a23.83,23.83,0,0,0-.58-3.35c-.34-.75-1.51-4.18-1.88-4.59s-4.21-6.33-4.48-6.74a12.93,12.93,0,0,0-2-1.68,43.43,43.43,0,0,1,.45-4.72c.07-.41.1-6.26.1-6.44s-1,.14-1.4.79-2.05,4.14-2.23,4.48a37.2,37.2,0,0,0-1.27,4.18,14.27,14.27,0,0,0,1.13,4c.65,1.47,2.43,5.75,3.08,6.26a9.8,9.8,0,0,1,2,2.19,6.54,6.54,0,0,0,.14,2.19,29.29,29.29,0,0,0,3.77,4.73,7.76,7.76,0,0,1,1.54,1.53c.07.27,5.07,2.19,5.37,2.43a2.94,2.94,0,0,1,.59.94Z"/>
            <path class="cls-1" d="M36.61,43.06c.12-.71,0-1.91-.46-2.15s-6-2.74-6.5-3-6.3-5.51-6.47-5.68-1.61-2.12-1.61-2.88a18.41,18.41,0,0,0-.79-2.57c0-.21-.27-6.5-.21-6.85s2.53-.65,2.77-1.2.48-1.37.68-1.47,1.54.17,1.85-.24,3.87-5.61,4.31-6.23,5.92-6.26,6.2-6.44,11.19-4,11.95-4,8.56.1,9.21.41a11.63,11.63,0,0,1,2,1.61l-3,.17A99.59,99.59,0,0,0,45.67,5.35c-.62.34-2.26,1.54-2.26,1.54s3.7-1.1,4.24-1.16,6.78-1.16,7.22-1.23S58.61,3.33,59,3.33a3.74,3.74,0,0,0,.82-.14A4.62,4.62,0,0,1,58.06,5c-1,.45-7.46,3-9,4.07s-9.21,6.37-10.34,7.84a72,72,0,0,1-6.33,5.75s-3.59,1.78-3.49,2.94,1.75,2.43,2.5,2.81,6.3,3.94,7.22,4.55,5.77,4.5,5.77,4.5S41.53,38.91,41,39.24,36.61,43.06,36.61,43.06Z"/>
            <path class="cls-1" d="M78.5,38.16a45.41,45.41,0,0,0,6.23-1.76c.48-.21,9.41-3,9.89-3.25S96,31.06,95,30.58s-7.33-3.29-8.52-4.21-6.5-5.24-6.95-5.82-7-3.49-7.84-3.73a43.91,43.91,0,0,1-5.82-2.91,6.62,6.62,0,0,1-1.51-2.19,4.14,4.14,0,0,1,0-1.2A36.31,36.31,0,0,0,68,12.27c1.1.38,7.29,1.68,9.17,2.05s2.94.55,2.94.55l-2-2a17.55,17.55,0,0,0-2.29-1.57c-.89-.45-4.42-2.88-5.85-3.12a11,11,0,0,0-5,1,4.9,4.9,0,0,1-1.1.51A4.21,4.21,0,0,1,65.8,6.93c1.51-.68,5.34-2,8.56-.51s10.37,6.33,13.73,8.49S95.48,19,96.44,20a20.67,20.67,0,0,0,2.74,2.26,4.24,4.24,0,0,1,2.12,1.92c.38,1.1.72,2.05,1.3,2.36A3.86,3.86,0,0,1,105.2,30c0,2.46-2.33,5.79-3.7,7.19s-10.24,6.69-11.5,7-3.15.44-3.15.71-.13,1.6-.13,1.6-1.25-2.11-1.38-2.32a20.85,20.85,0,0,0-1.55-2.07,24.68,24.68,0,0,0-2.34-2C80.76,39.63,78.5,38.16,78.5,38.16Z"/>
            <circle class="cls-3" cx="55.54" cy="33.18" r="6.51"/>
            <circle class="cls-4" cx="55.54" cy="33.18" r="5.07"/>
            <circle cx="55.54" cy="33.18" r="2.62"/>
            <circle class="cls-3" cx="68.57" cy="33.18" r="6.51"/>
            <circle class="cls-4" cx="68.57" cy="33.18" r="5.07"/>
            <circle cx="68.57" cy="33.18" r="2.62"/>
            <path d="M51.44,44a27.45,27.45,0,0,0,4.14,1.67c.77.05,7.16,1,10.44-.26a42,42,0,0,0,6.35-3.12l-3.22,2.86c.06,6.73-4.27,10.93-7.27,10.65-2.54-.24-5.21-3.81-5.63-8.6Z"/>
            <path class="cls-5" d="M57.55,52c.74-.68,1.77-1.8,2.48-1.75a22.7,22.7,0,0,1,2.66.64c.15,0,.82-.89,1.69-1,1.51-.27,3.44-.12,3.73.79.05.16.15.63-1.12,2.08-1.75,2-2.85,3.26-4.5,3.33C60.54,56.06,58.53,54.41,57.55,52Z"/>
        </g>
    </g>
</svg>