<svg viewBox="0 0 137 124.5"><defs><style>.cls-1{fill:#fff;stroke:#000;stroke-miterlimit:10;opacity:0.8;}.cls-2{font-size:12px;font-family:MyriadPro-Regular, Myriad Pro;}.cls-3{letter-spacing:-0.04em;}.cls-4{letter-spacing:-0.02em;}.cls-5{letter-spacing:0em;}.cls-6{letter-spacing:0em;}.cls-7{letter-spacing:-0.01em;}.cls-8{letter-spacing:0.01em;}.cls-9{letter-spacing:0em;}.cls-10{letter-spacing:-0.01em;}.cls-11{letter-spacing:-0.01em;}</style></defs><title>Asset 18</title><g id="Layer_2" data-name="Layer 2"><g id="crabspeech1"><path class="cls-1" d="M124.5,123.83,98.83,124l-86.33-.17a12,12,0,0,1-12-12V12.5a12,12,0,0,1,12-12h112a12,12,0,0,1,12,12v99.33A12,12,0,0,1,124.5,123.83Z"/><text class="cls-2" transform="translate(5.8 38.77)">WE<tspan class="cls-3" x="16.06" y="0">L</tspan><tspan class="cls-4" x="21.25" y="0">C</tspan><tspan x="27.96" y="0">OME! </tspan><tspan class="cls-5" x="57.08" y="0">A</tspan><tspan class="cls-6" x="64.39" y="0">nd Hap</tspan><tspan class="cls-7" x="100.8" y="0">p</tspan><tspan class="cls-6" x="107.54" y="0">y </tspan><tspan class="cls-8" x="0" y="14.4">N</tspan><tspan class="cls-9" x="8.02" y="14.4">in</tspan><tspan class="cls-7" x="17.48" y="14.4">o</tspan><tspan x="23.99" y="14.4">y </tspan><tspan class="cls-10" x="32.18" y="14.4">A</tspan><tspan x="39.38" y="14.4">quino D</tspan><tspan class="cls-11" x="79.34" y="14.4">a</tspan><tspan class="cls-6" x="85.03" y="14.4">y!</tspan></text></g></g></svg>