<svg viewBox="0 0 137 124.33"><defs><style>.cls-1{fill:#fff;stroke:#000;stroke-miterlimit:10;opacity:0.8;}.cls-2{font-size:12px;font-family:MyriadPro-Regular, Myriad Pro;}.cls-3{letter-spacing:-0.03em;}.cls-4{letter-spacing:-0.01em;}.cls-5{letter-spacing:-0.01em;}.cls-6{letter-spacing:0em;}.cls-7{letter-spacing:0em;}.cls-8{letter-spacing:0em;}.cls-9{letter-spacing:-0.01em;}.cls-10{letter-spacing:0em;}.cls-11{letter-spacing:0em;}.cls-12{letter-spacing:-0.01em;}.cls-13{letter-spacing:0em;}.cls-14{letter-spacing:-0.01em;}.cls-15{letter-spacing:0.01em;}.cls-16{letter-spacing:0em;}.cls-17{letter-spacing:-0.01em;}</style></defs><title>Asset 15</title><g id="Layer_2" data-name="Layer 2"><g id="Flagfact"><path class="cls-1" d="M124.5,123.83H12.5a12,12,0,0,1-12-12V12.5a12,12,0,0,1,12-12h112a12,12,0,0,1,12,12v99.33A12,12,0,0,1,124.5,123.83Z"/><text class="cls-2" transform="translate(6.8 41.77)"><tspan class="cls-3">F</tspan><tspan class="cls-4" x="5.53" y="0">r</tspan><tspan x="9.34" y="0">om 1972 </tspan><tspan class="cls-5" x="55.64" y="0">t</tspan><tspan x="59.54" y="0">o 1981, the</tspan><tspan class="cls-6" x="0" y="14.4">P</tspan><tspan x="6.32" y="14.4">hilippines </tspan><tspan class="cls-7" x="57.86" y="14.4">e</tspan><tspan x="63.84" y="14.4">xpe</tspan><tspan class="cls-8" x="82.23" y="14.4">r</tspan><tspan x="86.21" y="14.4">ien</tspan><tspan class="cls-5" x="101.69" y="14.4">c</tspan><tspan x="106.99" y="14.4">ed</tspan><tspan x="0" y="28.8">h</tspan><tspan class="cls-9" x="6.66" y="28.8">a</tspan><tspan class="cls-10" x="12.35" y="28.8">ving their f</tspan><tspan class="cls-4" x="66.26" y="28.8">r</tspan><tspan class="cls-10" x="70.07" y="28.8">eedom </tspan><tspan x="0" y="43.2">taken </tspan><tspan class="cls-9" x="30.6" y="43.2">a</tspan><tspan class="cls-11" x="36.29" y="43.2">w</tspan><tspan class="cls-12" x="45.07" y="43.2">a</tspan><tspan class="cls-13" x="50.76" y="43.2">y </tspan><tspan class="cls-14" x="58.96" y="43.2">b</tspan><tspan x="65.7" y="43.2">y a Di</tspan><tspan class="cls-15" x="93.02" y="43.2">c</tspan><tspan x="98.55" y="43.2">t</tspan><tspan class="cls-16" x="102.53" y="43.2">a</tspan><tspan class="cls-17" x="108.26" y="43.2">t</tspan><tspan x="112.16" y="43.2">or</tspan></text></g></g></svg>