<svg viewBox="0 0 137 124.33"><defs><style>.cls-1{fill:#fff;stroke:#000;stroke-miterlimit:10;opacity:0.8;}.cls-2{font-size:12px;font-family:MyriadPro-Regular, Myriad Pro;}.cls-3{letter-spacing:-0.03em;}.cls-4{letter-spacing:0em;}.cls-5{letter-spacing:-0.01em;}.cls-6{letter-spacing:0.01em;}.cls-7{letter-spacing:-0.01em;}.cls-8{letter-spacing:0em;}.cls-9{letter-spacing:0.01em;}.cls-10{letter-spacing:-0.01em;}.cls-11{letter-spacing:-0.02em;}.cls-12{letter-spacing:0em;}.cls-13{letter-spacing:0em;}.cls-14{letter-spacing:-0.01em;}.cls-15{letter-spacing:0.02em;}.cls-16{letter-spacing:-0.01em;}</style></defs><title>Asset 16</title><g id="Layer_2" data-name="Layer 2"><g id="MarcosFag"><rect class="cls-1" x="0.5" y="0.5" width="136" height="123.33" rx="12" ry="12"/><text class="cls-2" transform="translate(8.8 30.77)"><tspan class="cls-3">F</tspan><tspan class="cls-4" x="5.47" y="0">e</tspan><tspan class="cls-5" x="11.48" y="0">r</tspan><tspan x="15.29" y="0">dinand </tspan><tspan class="cls-6" x="53.28" y="0">M</tspan><tspan x="63" y="0">a</tspan><tspan class="cls-5" x="68.78" y="0">r</tspan><tspan class="cls-7" x="72.59" y="0">c</tspan><tspan x="77.89" y="0">os </tspan><tspan class="cls-8" x="91.78" y="0">w</tspan><tspan x="100.56" y="0">as </tspan><tspan x="0" y="14.4">ele</tspan><tspan class="cls-9" x="14.86" y="14.4">c</tspan><tspan class="cls-10" x="20.39" y="14.4">t</tspan><tspan class="cls-4" x="24.29" y="14.4">ed </tspan><tspan class="cls-11" x="39.61" y="14.4">P</tspan><tspan class="cls-5" x="45.8" y="14.4">r</tspan><tspan x="49.61" y="14.4">eside</tspan><tspan class="cls-12" x="75.96" y="14.4">n</tspan><tspan x="82.57" y="14.4">t of the</tspan><tspan class="cls-13" x="0" y="28.8">P</tspan><tspan x="6.32" y="28.8">hilippines in 1965 and</tspan><tspan x="0" y="43.2">decla</tspan><tspan class="cls-14" x="26.77" y="43.2">r</tspan><tspan x="30.58" y="43.2">ed </tspan><tspan class="cls-6" x="45.9" y="43.2">M</tspan><tspan x="55.62" y="43.2">a</tspan><tspan class="cls-15" x="61.4" y="43.2">r</tspan><tspan x="65.62" y="43.2">tial L</tspan><tspan class="cls-16" x="89.22" y="43.2">a</tspan><tspan x="94.91" y="43.2">w in </tspan><tspan x="0" y="57.6">1972</tspan></text></g></g></svg>