<svg viewBox="0 0 137 124.5"><defs><style>.cls-1{fill:#fff;stroke:#000;stroke-miterlimit:10;opacity:0.8;}.cls-2{font-size:12px;font-family:MyriadPro-Regular, Myriad Pro;}.cls-3{letter-spacing:0.01em;}.cls-4{letter-spacing:-0.01em;}.cls-5{letter-spacing:-0.01em;}.cls-6{letter-spacing:-0.01em;}.cls-7{letter-spacing:0em;}.cls-8{letter-spacing:-0.03em;}.cls-9{letter-spacing:-0.01em;}.cls-10{letter-spacing:-0.01em;}.cls-11{letter-spacing:0em;}.cls-12{letter-spacing:0em;}.cls-13{letter-spacing:-0.02em;}.cls-14{letter-spacing:-0.03em;}.cls-15{letter-spacing:0.01em;}.cls-16{letter-spacing:-0.01em;}</style></defs><title>Asset 14</title><g id="Layer_2" data-name="Layer 2"><g id="NinoyFact"><path class="cls-1" d="M124.5,123.83,98.83,124l-86.33-.17a12,12,0,0,1-12-12V12.5a12,12,0,0,1,12-12h112a12,12,0,0,1,12,12v99.33A12,12,0,0,1,124.5,123.83Z"/><text class="cls-2" transform="translate(5.8 38.77)"><tspan class="cls-3">K</tspan><tspan x="6.62" y="0">n</tspan><tspan class="cls-4" x="13.28" y="0">o</tspan><tspan x="19.79" y="0">wn as a he</tspan><tspan class="cls-5" x="71.9" y="0">r</tspan><tspan x="75.71" y="0">o </tspan><tspan class="cls-6" x="84.84" y="0">t</tspan><tspan class="cls-7" x="88.74" y="0">o the</tspan><tspan class="cls-8" x="0" y="14.4">F</tspan><tspan x="5.53" y="14.4">ilipino peopl</tspan><tspan class="cls-9" x="68.5" y="14.4">e</tspan><tspan x="74.36" y="14.4">, </tspan><tspan class="cls-3" x="79.39" y="14.4">N</tspan><tspan x="87.41" y="14.4">in</tspan><tspan class="cls-4" x="96.87" y="14.4">o</tspan><tspan x="103.38" y="14.4">y </tspan><tspan class="cls-10" x="0" y="28.8">f</tspan><tspan x="3.35" y="28.8">oug</tspan><tspan class="cls-11" x="23.26" y="28.8">h</tspan><tspan x="29.87" y="28.8">t </tspan><tspan class="cls-10" x="36.38" y="28.8">f</tspan><tspan x="39.73" y="28.8">or independen</tspan><tspan class="cls-6" x="113.97" y="28.8">c</tspan><tspan x="119.28" y="28.8">e</tspan><tspan x="0" y="43.2">against </tspan><tspan class="cls-10" x="39.01" y="43.2">f</tspan><tspan x="42.36" y="43.2">o</tspan><tspan class="cls-12" x="48.95" y="43.2">r</tspan><tspan class="cls-7" x="52.92" y="43.2">mer </tspan><tspan class="cls-13" x="75.41" y="43.2">P</tspan><tspan class="cls-5" x="81.6" y="43.2">r</tspan><tspan x="85.4" y="43.2">eside</tspan><tspan class="cls-11" x="111.75" y="43.2">n</tspan><tspan x="118.37" y="43.2">t</tspan><tspan class="cls-14" x="0" y="57.6">F</tspan><tspan class="cls-7" x="5.47" y="57.6">e</tspan><tspan class="cls-5" x="11.48" y="57.6">r</tspan><tspan x="15.29" y="57.6">dinand </tspan><tspan class="cls-15" x="53.28" y="57.6">M</tspan><tspan x="63" y="57.6">a</tspan><tspan class="cls-5" x="68.78" y="57.6">r</tspan><tspan class="cls-16" x="72.59" y="57.6">c</tspan><tspan x="77.89" y="57.6">os</tspan></text></g></g></svg>