<svg viewBox="0 0 113.5 84.74"><defs><style>.cls-1,.cls-2,.cls-3{fill:#a90d00;}.cls-1,.cls-2{stroke:#a90d00;}.cls-1,.cls-10,.cls-2{stroke-linecap:round;stroke-linejoin:round;}.cls-1,.cls-7,.cls-8{stroke-width:0.62px;}.cls-10,.cls-2{stroke-width:0.31px;}.cls-4{fill:#fff;}.cls-5{fill:#c7554b;}.cls-6,.cls-8,.cls-9{fill:none;}.cls-6{stroke:#777676;}.cls-6,.cls-7,.cls-8,.cls-9{stroke-miterlimit:10;}.cls-6,.cls-9{stroke-width:0.15px;}.cls-7{fill:#aaa9d3;opacity:0.51;}.cls-7,.cls-8,.cls-9{stroke:#070000;}.cls-10{fill:#1d120b;stroke:#1d120b;}</style></defs><title>Asset 17</title><g id="Layer_2" data-name="Layer 2"><g id="nerdCrabby"><path class="cls-1" d="M93.79,48.12a49.39,49.39,0,0,1-7.67-1c-2.28-.69-2.79-3.79-5.17-6.37s-8-5.57-10.62-7-19.95-.5-19.95-.5c-3.47.5-9.23,3.87-10.72,4.66S27.85,48.83,26.86,49.43s-5,.5-6.35.69l-3-3.27c-1-1.09-6.85-7.74-7.44-8.14a6.14,6.14,0,0,0-1.89-.6l-.17-1s-2.71-3.9-2.91-4.27-1.72-3.67-1.92-3.77-.83.17-.89.79a27.49,27.49,0,0,0,0,4.37c.17.66,1.09,4.2,1.92,5.19a5.79,5.79,0,0,1,1,1.36l.59.3v1.62s3.46,4,3.83,4.3,1.66.76,1.93,1,.95,1.42,1.21,1.79a32.6,32.6,0,0,0,4.2,2.65c.26.07,2.3.53,2.63.63s1.4.69,1.69.79,7.74,0,8.64,0,4.27.33,5,.89,1.65,1.12,1.65,1.12-3.24.3-4.23.36-5.89,1.26-6.85,1.49a42,42,0,0,1-4.9,1.19c-.86,0-4.6.3-5.19.4a17.24,17.24,0,0,0-2.51.83,13,13,0,0,1-2.78,0c-.36,0-2.65.46-3.74.63a16.94,16.94,0,0,0-4.13,1.72C2,62.72.53,63.72.36,64.15a.69.69,0,0,0,.53,1,16.5,16.5,0,0,0,4-1,12,12,0,0,1,3.51-.4c.56,0,4.17-.33,4.6-.36s4.93-.53,5.23-.53,3.37-.63,4.3-.63,6.15-1.49,7-1.46,7.21-1.22,7.84-1.12,3.61-.1,4.1.3-1,1.26-1.46,1.22a17,17,0,0,0-2.88-.1c-.43.13-2.68.79-3.11.89s-3.51,2.22-3.74,2.35a6.84,6.84,0,0,0-1.92.83,5.88,5.88,0,0,0-.63,2.78c0,.53-.07,1.79-.5,2a33.26,33.26,0,0,0-3.44,3.34,17.08,17.08,0,0,0-.36,3.11,10.41,10.41,0,0,0,2,4.17,10.56,10.56,0,0,0,3.67,2.78,16.32,16.32,0,0,0,3.37.56,5.84,5.84,0,0,0,2.22-2.35c0-.53-.73-3.8-1.29-4.33s-.36-2.61-.2-3a19.29,19.29,0,0,0,0-2.78c0-.33.83-2.65.86-3.14s.43-1.16,1.55-1,5.82-.83,6.81-1.62a8.6,8.6,0,0,1,3.47-1.82,12.75,12.75,0,0,1,3.9-.6c1.62.17,10.58.63,11.87.63s4.17-.5,4.73-.4,1,.89,1.69,1.06a16.68,16.68,0,0,0,2.08.07,16.8,16.8,0,0,0,2.51,1.72c.76.23,2.08.07,2.45.23s1.36,1.32,2,1.49a17.07,17.07,0,0,1,3.44,1.29,9.88,9.88,0,0,1,.26,2c.07.3.73.86.86,1.36a13.51,13.51,0,0,0,.53,1.65c.23.56,1.09,2.08,1.39,2.91a7.73,7.73,0,0,1-.13,3c-.1.86.26,3.39.79,3.71s3.14,1.51,5.92-1.26,3-3.94,3-4.3-.73-3.64-2.18-5a30.28,30.28,0,0,0-3.8-2.71c-.26-.2-.5-1.59-.83-2.12a12.59,12.59,0,0,0-2.55-2.91c-.63-.26-4.1-2.35-5.52-2.68s-2.75-.33-3.27-.56-2.78-.93-2.81-1,0-1.06.46-1.22a6.52,6.52,0,0,1,2.41.33c.66.17,6.15,1.79,7,2s3.51,1.06,5.23,1.36,4.86.4,5.33.76,4.53,2.45,5.23,2.78,2.68,1.22,2.91,1.36a12.66,12.66,0,0,1,2.75.63c.76.46,2.08,1.59,2.55,1.92a2,2,0,0,0,1,.33s-.1-1.82-.23-2.45-.63-2.25-1.79-2.68S101.51,65,101.15,65a7.17,7.17,0,0,1-1.26,0c-.13-.07-.6-.79-1.19-1.06s-2.45-.93-2.91-1.16S87.89,60,86.3,59.65s-8.73-2-8.83-2-.69-.17-.69-.3a9.64,9.64,0,0,1,4.73-.86c2.35.17,7.28,0,8.07-.07s7.14-.5,8-.5,8.43.23,9.33.2,4.56-.36,4.9-.23a1.73,1.73,0,0,0,1.29-.4c.17-.2,0-1.49-.36-1.65s-1.36-.53-1.65-.73a39.22,39.22,0,0,0-5.26-.17c-1.32,0-8.27,0-9.66,0s-9.86-.1-9.86-.1a40.3,40.3,0,0,1,6.28-1c2.22,0,3.94-.23,4.53-.73s4.43-5.06,4.86-5.52,4.2-4.6,4.5-5.13a12.09,12.09,0,0,0,.93-4.1c-.1-1-.93-4.56-1-4.83a12.7,12.7,0,0,0-1.09-1.65c-.33-.43-1-2.08-1.26-2.25s-1.12-.2-1.16,1.19.69,6.48.63,7-1.12,1.46-1.62,1.92-4.17,3.84-4.33,4-1.09.44-1.42.9a14.48,14.48,0,0,0-.89,2.87C95.23,45.79,94.23,48.15,93.79,48.12Z"/><path class="cls-2" d="M33.18,43.65a35,35,0,0,1-6.12-.57c-1.09-.33-3.08-.6-3.14-.69a23,23,0,0,0-.56-3.24c-.33-.73-1.46-4-1.82-4.43s-4.07-6.12-4.33-6.52a12.49,12.49,0,0,0-1.92-1.62A42,42,0,0,1,15.71,22c.07-.4.1-6.05.1-6.22s-.93.13-1.36.76-2,4-2.15,4.33a35.94,35.94,0,0,0-1.22,4,13.79,13.79,0,0,0,1.09,3.87c.63,1.42,2.35,5.56,3,6.05A9.47,9.47,0,0,1,17.07,37a6.32,6.32,0,0,0,.13,2.12,28.3,28.3,0,0,0,3.64,4.57,7.49,7.49,0,0,1,1.49,1.48c.07.26,4.9,2.12,5.19,2.35a2.84,2.84,0,0,1,.57.91Z"/><path class="cls-1" d="M35.37,41.61c.12-.68,0-1.84-.44-2.07s-5.79-2.65-6.28-2.94-6.09-5.33-6.25-5.49-1.55-2.05-1.55-2.78a17.79,17.79,0,0,0-.76-2.48c0-.2-.26-6.28-.2-6.62s2.45-.63,2.68-1.16.46-1.32.66-1.42,1.49.17,1.79-.23,3.74-5.42,4.17-6,5.72-6.05,6-6.22S46,.31,46.71.31s8.27.1,8.9.4a11.23,11.23,0,0,1,1.89,1.55l-2.88.17A96.22,96.22,0,0,0,44.13,5.17c-.6.33-2.18,1.49-2.18,1.49S45.51,5.6,46,5.53s6.55-1.12,7-1.19S56.63,3.22,57,3.22a3.62,3.62,0,0,0,.79-.13A4.46,4.46,0,0,1,56.1,4.81c-1,.43-7.21,2.91-8.7,3.94s-8.9,6.15-10,7.57a69.6,69.6,0,0,1-6.12,5.56s-3.47,1.72-3.37,2.84,1.69,2.35,2.41,2.71,6.09,3.8,7,4.4,5.58,4.34,5.58,4.34-2.76,1.42-3.23,1.74S35.37,41.61,35.37,41.61Z"/><path class="cls-1" d="M75.85,36.87a43.88,43.88,0,0,0,6-1.7c.46-.2,9.1-2.91,9.56-3.14s1.32-2,.4-2.48-7.08-3.18-8.24-4.07-6.28-5.06-6.71-5.62-6.78-3.37-7.57-3.61a42.43,42.43,0,0,1-5.62-2.81,6.39,6.39,0,0,1-1.46-2.12,4,4,0,0,1,0-1.16,35.08,35.08,0,0,0,3.47,1.69c1.06.36,7,1.62,8.86,2s2.84.53,2.84.53l-1.92-1.89A17,17,0,0,0,73.27,11c-.86-.43-4.27-2.78-5.66-3a10.58,10.58,0,0,0-4.83.93,4.74,4.74,0,0,1-1.06.5,4.06,4.06,0,0,1,1.85-2.68c1.46-.66,5.16-2,8.27-.5s10,6.12,13.26,8.2,7.14,4,8.07,4.9a20,20,0,0,0,2.65,2.18,4.1,4.1,0,0,1,2.05,1.85c.36,1.06.69,2,1.26,2.28A3.73,3.73,0,0,1,101.65,29c0,2.38-2.25,5.59-3.57,6.95S88.18,42.43,87,42.72s-3,.42-3,.69S83.79,45,83.79,45s-1.21-2-1.33-2.24a20.14,20.14,0,0,0-1.5-2,23.85,23.85,0,0,0-2.26-1.95C78,38.29,75.85,36.87,75.85,36.87Z"/><circle class="cls-3" cx="53.67" cy="32.06" r="6.29"/><circle class="cls-4" cx="53.67" cy="32.06" r="4.9"/><circle cx="53.67" cy="32.06" r="2.53"/><circle class="cls-3" cx="66.25" cy="32.06" r="6.29"/><circle class="cls-4" cx="66.25" cy="32.06" r="4.9"/><circle cx="66.25" cy="32.06" r="2.53"/><path d="M49.7,42.49a26.52,26.52,0,0,0,4,1.61c.74,0,6.92.94,10.09-.25a40.56,40.56,0,0,0,6.13-3l-3.11,2.77c.06,6.5-4.12,10.56-7,10.29-2.45-.23-5-3.68-5.44-8.31Z"/><path class="cls-5" d="M55.61,50.2c.72-.66,1.71-1.74,2.4-1.69a21.94,21.94,0,0,1,2.57.62c.15,0,.79-.86,1.63-1,1.46-.26,3.32-.11,3.61.76.05.15.14.61-1.08,2C63,52.81,62,54,60.38,54.09,58.49,54.16,56.55,52.58,55.61,50.2Z"/><path class="cls-6" d="M47.12,32.68a.51.51,0,1,1,0-1"/><circle class="cls-7" cx="53.67" cy="32.06" r="6.29"/><circle class="cls-8" cx="53.67" cy="32.06" r="6.29"/><path class="cls-9" d="M46.87,32.61s-.77,8.21-3,12.34C42.25,48,26,49.43,26,49.43"/><path class="cls-10" d="M75.68,39.63l-.46,2.31C75,43.09,72.61,46,68.53,46.86s-7.31-2.15-8.92-3.46a6.89,6.89,0,0,1-4.38,3.23c-3,.62-6.61.23-8.84-1.85a7.43,7.43,0,0,1-2.15-5.15s1.61,2.31,3.15,2.15,3.46-2.69,4.23-3.23,4.54-1.69,6.07-.62A7.84,7.84,0,0,1,60,40.4s1.73-3,3.73-2.9,3.38.37,4.46,1.44,3.61,3.38,4.69,2.92A13.74,13.74,0,0,0,75.68,39.63Z"/></g></g></svg>