<svg viewBox="0 0 154.3 170.11"><defs><style>.cls-1{fill:#fff;stroke:#000;stroke-miterlimit:10;opacity:0.8;}.cls-2{font-size:12px;font-family:MyriadPro-Regular, Myriad Pro;}.cls-3{letter-spacing:-0.01em;}.cls-4{letter-spacing:0em;}.cls-5{letter-spacing:0.01em;}.cls-6{letter-spacing:0em;}.cls-7{letter-spacing:-0.01em;}.cls-8{letter-spacing:0em;}.cls-9{letter-spacing:-0.01em;}.cls-10{letter-spacing:-0.01em;}.cls-11{letter-spacing:-0.01em;}.cls-12{letter-spacing:0.02em;}.cls-13{letter-spacing:-0.01em;}.cls-14{letter-spacing:-0.02em;}.cls-15{letter-spacing:-0.01em;}.cls-16{letter-spacing:0.01em;}.cls-17{letter-spacing:-0.01em;}.cls-18{letter-spacing:-0.02em;}.cls-19{letter-spacing:0em;}.cls-20{fill:#13add6;}.cls-21{fill:#f65973;}.cls-22{fill:#31859b;}.cls-23{fill:#5bcdf4;}.cls-24{fill:#d3c75e;}.cls-25{fill:#e2d02b;}.cls-26{fill:#efe66f;}.cls-27{fill:#ca465a;}.cls-28{fill:#9c3043;}</style></defs><title>Asset 9</title><g id="Layer_2" data-name="Layer 2"><g id="speech8"><path class="cls-1" d="M124.5,141.43H113.83l-27.5,26.42,12.5-26.25-86.33-.17a12,12,0,0,1-12-12V30.1a12,12,0,0,1,12-12h112a12,12,0,0,1,12,12v99.33A12,12,0,0,1,124.5,141.43Z"/><text class="cls-2" transform="translate(5.8 56.37)">On<tspan class="cls-3" x="14.93" y="0">c</tspan><tspan class="cls-4" x="20.23" y="0">e </tspan><tspan class="cls-5" x="28.79" y="0">M</tspan><tspan class="cls-6" x="38.51" y="0">a</tspan><tspan class="cls-7" x="44.29" y="0">r</tspan><tspan class="cls-3" x="48.1" y="0">c</tspan><tspan x="53.4" y="0">os </tspan><tspan class="cls-8" x="67.28" y="0">w</tspan><tspan x="76.07" y="0">as ous</tspan><tspan class="cls-9" x="107.1" y="0">t</tspan><tspan x="111" y="0">e</tspan><tspan class="cls-10" x="117.01" y="0">d</tspan><tspan class="cls-4" x="123.66" y="0">,</tspan><tspan class="cls-11" x="0" y="14.4">C</tspan><tspan x="6.83" y="14.4">o</tspan><tspan class="cls-12" x="13.42" y="14.4">r</tspan><tspan x="17.64" y="14.4">y </tspan><tspan class="cls-13" x="25.84" y="14.4">A</tspan><tspan x="33.04" y="14.4">quin</tspan><tspan class="cls-14" x="55.87" y="14.4">o</tspan><tspan x="62.17" y="14.4">, the wi</tspan><tspan class="cls-15" x="98.03" y="14.4">f</tspan><tspan x="101.38" y="14.4">e of</tspan><tspan class="cls-16" x="0" y="28.8">N</tspan><tspan class="cls-4" x="8.02" y="28.8">in</tspan><tspan class="cls-17" x="17.48" y="28.8">o</tspan><tspan x="23.99" y="28.8">y </tspan><tspan class="cls-13" x="32.18" y="28.8">A</tspan><tspan x="39.38" y="28.8">quin</tspan><tspan class="cls-14" x="62.22" y="28.8">o</tspan><tspan x="68.52" y="28.8">, became</tspan><tspan class="cls-18" x="0" y="43.2">P</tspan><tspan class="cls-10" x="6.19" y="43.2">r</tspan><tspan x="10" y="43.2">eside</tspan><tspan class="cls-8" x="36.35" y="43.2">n</tspan><tspan x="42.96" y="43.2">t of the </tspan><tspan class="cls-19" x="0" y="57.6">P</tspan><tspan x="6.32" y="57.6">hilippines</tspan></text><path class="cls-20" d="M128.89,9.31c-2.1-3-3.73-5.52-5.32-6.54-.05-.09-3-1.31-3.93.33l-2.26,4.67-4.58,2.47c-1.58,1-.27,3.84-.17,3.89,1.11,1.54,3.82,3.12,6.91,5.06,4.05,2.55,8.33,3.49,10,3.31l1.59-1.68,1.59-1.68C132.82,17.45,131.65,13.23,128.89,9.31Z"/><path class="cls-20" d="M129,22.72c-1.51.77-4.52,3.63-6.53,8-1.53,3.31-2.88,5.85-3,7.75-.05.09.37,3.16,2.26,3.17l5.18-.41,4.43,2.71c1.69.85,3.46-1.7,3.46-1.8.78-1.73.73-4.61.87-8.25.18-4.78-1.21-8.7-2.2-10.07l-2.25-.54Z"/><path class="cls-20" d="M148,8.85c-1.89.19-4.36,1.67-7.58,3.38-4.23,2.24-6.93,5.39-7.62,6.94l.66,2.22.66,2.22c1.42.92,5.4,2.1,10.17,1.67,3.63-.33,6.51-.43,8.2-1.3.11,0,2.55-1.9,1.62-3.55l-2.94-4.28.13-5.19C151.17,9.05,148.08,8.79,148,8.85Z"/><polygon class="cls-21" points="128.85 22.39 132.77 18.38 134.43 23.79 128.24 22.66 128.85 22.39"/><polygon class="cls-22" points="118.7 15.41 130.62 20.57 125.01 9.66 131.59 20.59 142.84 13.93 132.93 21.38 144.68 21.87 132.85 22.06 132.83 35.11 131.51 22.88 123.78 34.72 130.74 21.89 118.7 15.41"/><path class="cls-23" d="M142.53,14.13c1.73-3.21,3.26-5.76,3.46-7.64.06-.09-.17-3.22-2.05-3.35l-5.19.07-4.26-3c-1.64-.95-3.55,1.48-3.56,1.58-.88,1.68-1.06,4.73-1.42,8.36-.47,4.76.3,10,1.54,10.36l2.21.67,2.21.67C136.71,22.24,140.26,18.34,142.53,14.13Z"/><path class="cls-23" d="M130.57,20.33c-1.36-1-5.26-2.42-10-2.28-3.65.11-6.53,0-8.26.8-.11,0-2.66,1.75-1.83,3.44l2.68,4.45-.45,5.18c0,1.89,3.06,2.34,3.16,2.29,1.89-.07,4.45-1.4,7.77-2.91,4.36-2,7.24-5,8-6.47l-.52-2.25Z"/><path class="cls-23" d="M151.45,31.09c-1-1.6-3.44-3.15-6.41-5.27-3.89-2.79-7.92-3.79-9.61-3.71l-1.69,1.58-1.69,1.58c-.19,1.68.53,5.77,3,9.84,1.92,3.1,3.29,5.63,4.82,6.75,0,.09,2.84,1.43,3.9-.14l2.52-4.54L151,35C152.69,34,151.54,31.15,151.45,31.09Z"/><polygon class="cls-23" points="130.78 20.02 136.12 21.73 132.02 25.63 130.27 19.59 130.78 20.02"/><polygon class="cls-22" points="132.49 7.82 133.21 20.79 140.46 10.9 133.62 21.67 144.6 28.75 133.51 23.21 138.31 33.95 132.86 23.45 121.18 29.26 131.54 22.61 117.49 20.99 132.08 21.48 132.49 7.82"/><path class="cls-24" d="M107.06,12.27C105.33,10,104,8.14,102.7,7.41c0-.07-2.35-.9-3,.4l-1.58,3.7-3.45,2.08c-1.18.86-.06,3,0,3,.91,1.15,3.07,2.28,5.54,3.66,3.23,1.82,6.58,2.39,7.88,2.19l1.17-1.36,1.17-1.36C110.4,18.43,109.34,15.2,107.06,12.27Z"/><path class="cls-24" d="M107.67,22.65a14.17,14.17,0,0,0-4.76,6.41c-1.06,2.62-2,4.64-2,6.11,0,.07.4,2.43,1.87,2.37l4-.51L110.29,39c1.34.59,2.62-1.44,2.61-1.52.54-1.37.4-3.59.37-6.42a14.17,14.17,0,0,0-2.08-7.71L109.43,23Z"/><path class="cls-24" d="M121.83,11.21c-1.45.22-3.31,1.45-5.74,2.89a14.17,14.17,0,0,0-5.64,5.65l.59,1.69.59,1.69a14.17,14.17,0,0,0,7.93.92c2.8-.39,5-.57,6.3-1.31.08,0,1.91-1.57,1.12-2.81l-2.44-3.21-.09-4C124.3,11.25,121.9,11.16,121.83,11.21Z"/><polygon class="cls-21" points="107.52 22.4 110.4 19.15 111.88 23.28 107.05 22.63 107.52 22.4"/><polygon class="cls-25" points="99.4 17.37 108.82 20.92 104.07 12.68 109.57 20.9 118.03 15.33 110.63 21.46 119.75 21.41 110.6 22 111.06 32.1 109.59 22.68 104.04 32.13 108.96 21.94 99.4 17.37"/><path class="cls-26" d="M117.78,15.55c1.22-2.55,2.32-4.61,2.41-6.07,0-.07-.24-2.5-1.71-2.53l-4,.24L111.06,5c-1.3-.67-2.7,1.27-2.7,1.36-.62,1.33-.66,3.76-.8,6.58-.19,3.7,1,6.19,1.56,8l1.74.44,1.74.44C114,20.53,116.18,18.9,117.78,15.55Z"/><path class="cls-26" d="M108.77,20.74a14.17,14.17,0,0,0-7.86-1.4c-2.82.22-5,.27-6.36.93-.08,0-2,1.45-1.29,2.73l2.24,3.35-.15,4c.07,1.46,2.46,1.7,2.53,1.65,1.46-.13,3.39-1.25,5.91-2.54a14.17,14.17,0,0,0,6-5.3l-.49-1.72Z"/><path class="cls-26" d="M125.33,28.3c-.84-1.2-2.78-2.31-5.15-3.85a14.17,14.17,0,0,0-7.58-2.52l-1.25,1.28L110.1,24.5A14.17,14.17,0,0,0,112.82,32c1.6,2.33,2.76,4.24,4,5,0,.07,2.25,1,3-.25l1.78-3.61,3.56-1.88C126.4,30.53,125.4,28.34,125.33,28.3Z"/><polygon class="cls-26" points="108.92 20.49 113.12 21.62 110.09 24.79 108.51 20.17 108.92 20.49"/><polygon class="cls-25" points="109.8 10.98 110.83 21 116.08 13.07 111.18 21.66 119.94 26.74 111.15 22.86 115.27 30.99 110.66 23.07 101.83 28 109.6 22.47 98.67 21.73 109.98 21.58 109.8 10.98"/><path class="cls-27" d="M119.52,27.53a11.53,11.53,0,0,0-2.94-2s-1.35-.16-1.54.61l-.34,2.15-1.53,1.55c-.51.61.36,1.57.41,1.58A11.85,11.85,0,0,0,117,32.63a8.19,8.19,0,0,0,4.42.1l.43-.87.43-.87A8.19,8.19,0,0,0,119.52,27.53Z"/><path class="cls-27" d="M121.22,32.89a7.67,7.67,0,0,0-1.64,4,11.2,11.2,0,0,0-.24,3.47s.54,1.22,1.3,1l2-.8,2.11.55c.78.13,1.18-1.1,1.17-1.15a11.2,11.2,0,0,0-.66-3.42,7.67,7.67,0,0,0-2.11-3.77l-1,.06Z"/><path class="cls-27" d="M127.13,25a11.2,11.2,0,0,0-2.63,2.28A7.67,7.67,0,0,0,122.29,31l.53.81.53.81a7.67,7.67,0,0,0,4.28-.57,11.2,11.2,0,0,0,3.13-1.52s.79-1.08.22-1.62l-1.7-1.36-.58-2.1C128.43,24.7,127.16,25,127.13,25Z"/><polygon class="cls-21" points="121.11 32.78 122.19 30.69 123.52 32.66 120.89 32.96 121.11 32.78"/><polygon class="cls-28" points="116.18 31.22 121.59 31.83 118.01 28.14 121.99 31.72 125.68 27.67 122.62 31.87 127.39 30.63 122.67 32.16 124.26 37.39 122.23 32.65 120.58 38.34 121.8 32.34 116.18 31.22"/><path class="cls-21" d="M125.58,28.17a12.53,12.53,0,0,0,.45-3.68s-.46-1.37-1.23-1.19l-2.07.62-2.07-.7c-.77-.18-1.24,1-1.23,1.06a13.88,13.88,0,0,0,.45,3.9c.4,2,1.34,3,1.88,4.34h1.94C124.24,31.16,125.19,30.14,125.58,28.17Z"/><path class="cls-21" d="M121.55,31.74a7.67,7.67,0,0,0-4.31.31A11.2,11.2,0,0,0,114,33.39s-.85,1-.31,1.6l1.62,1.46.45,2.13c.23.76,1.51.56,1.55.53A11.2,11.2,0,0,0,120.09,37a7.67,7.67,0,0,0,2.43-3.57l-.48-.84Z"/><path class="cls-21" d="M131.24,33.5A11.2,11.2,0,0,0,128,32.17a7.67,7.67,0,0,0-4.31-.31l-.48.84-.48.84a7.67,7.67,0,0,0,2.43,3.57,11.2,11.2,0,0,0,2.76,2.12s1.32.23,1.55-.53l.45-2.13,1.62-1.46C132.09,34.53,131.28,33.51,131.24,33.5Z"/><polygon class="cls-21" points="121.59 31.59 123.94 31.62 122.78 33.69 121.33 31.48 121.59 31.59"/><polygon class="cls-28" points="120.78 26.49 122.66 31.6 124.36 26.75 122.93 31.9 128.2 33.4 123.08 32.54 126.32 36.25 122.84 32.71 118.87 36.47 122.21 32.54 116.38 33.6 122.29 32.02 120.78 26.49"/></g></g></svg>