<svg viewBox="0 0 145.6 158.24"><defs><style>.cls-1{fill:#fff;stroke:#000;stroke-miterlimit:10;opacity:0.8;}.cls-2{fill:#13add6;}.cls-3{fill:#f65973;}.cls-4{fill:#31859b;}.cls-5{fill:#5bcdf4;}.cls-6{fill:#ca465a;}.cls-7{fill:#9c3043;}.cls-8{font-size:12px;font-family:MyriadPro-Regular, Myriad Pro;}.cls-9{letter-spacing:0.01em;}.cls-10{letter-spacing:0em;}.cls-11{letter-spacing:0em;}.cls-12{letter-spacing:-0.01em;}.cls-13{letter-spacing:-0.01em;}.cls-14{letter-spacing:0.01em;}.cls-15{letter-spacing:-0.01em;}.cls-16{letter-spacing:-0.02em;}.cls-17{letter-spacing:-0.01em;}.cls-18{letter-spacing:0em;}</style></defs><title>Asset 7</title><g id="Layer_2" data-name="Layer 2"><g id="speech6"><path class="cls-1" d="M128.44,129.56H117.78L90.28,156l12.5-26.25-86.33-.17a12,12,0,0,1-12-12V18.23a12,12,0,0,1,12-12h112a12,12,0,0,1,12,12v99.33A12,12,0,0,1,128.44,129.56Z"/><path class="cls-2" d="M6.39,109.63a7.76,7.76,0,0,0-1.5-1.85s-.84-.37-1.11.09l-.64,1.32-1.29.7c-.45.29-.08,1.08,0,1.1a8,8,0,0,0,2,1.43,5.51,5.51,0,0,0,2.83.93l.45-.47.45-.47A5.52,5.52,0,0,0,6.39,109.63Z"/><path class="cls-2" d="M6.43,113.41a5.16,5.16,0,0,0-1.84,2.25,7.54,7.54,0,0,0-.84,2.19s.1.89.64.9l1.46-.11,1.25.77c.48.24,1-.48,1-.51a7.54,7.54,0,0,0,.24-2.33,5.16,5.16,0,0,0-.62-2.84l-.63-.15Z"/><path class="cls-2" d="M11.78,109.5a7.54,7.54,0,0,0-2.14,1,5.16,5.16,0,0,0-2.15,2l.19.63.19.63a5.16,5.16,0,0,0,2.87.47,7.54,7.54,0,0,0,2.31-.37s.72-.54.46-1l-.83-1.21,0-1.47C12.68,109.55,11.81,109.48,11.78,109.5Z"/><polygon class="cls-3" points="6.38 113.32 7.49 112.19 7.96 113.72 6.21 113.4 6.38 113.32"/><polygon class="cls-4" points="3.52 111.35 6.88 112.81 5.3 109.73 7.16 112.81 10.33 110.93 7.53 113.03 10.85 113.17 7.51 113.23 7.5 116.91 7.13 113.46 4.95 116.8 6.91 113.18 3.52 111.35"/><path class="cls-5" d="M10.24,111a7.69,7.69,0,0,0,1-2.16s0-.91-.58-.95l-1.46,0L8,107.06c-.46-.27-1,.42-1,.45a7.83,7.83,0,0,0-.4,2.36c-.13,1.34.09,2.82.43,2.92l.62.19.62.19C8.6,113.28,9.6,112.18,10.24,111Z"/><path class="cls-5" d="M6.87,112.74A5.16,5.16,0,0,0,4,112.1a7.54,7.54,0,0,0-2.33.23s-.75.49-.52,1l.76,1.26L1.81,116c0,.53.86.66.89.65a7.54,7.54,0,0,0,2.19-.82A5.16,5.16,0,0,0,7.16,114L7,113.37Z"/><path class="cls-5" d="M12.76,115.78A7.54,7.54,0,0,0,11,114.29a5.16,5.16,0,0,0-2.71-1l-.48.45-.48.45a5.16,5.16,0,0,0,.86,2.78,7.54,7.54,0,0,0,1.36,1.91s.8.4,1.1,0l.71-1.28,1.33-.62C13.11,116.6,12.79,115.79,12.76,115.78Z"/><polygon class="cls-5" points="6.92 112.65 8.43 113.13 7.28 114.23 6.78 112.53 6.92 112.65"/><polygon class="cls-4" points="7.41 109.21 7.61 112.87 9.66 110.08 7.73 113.12 10.83 115.12 7.7 113.55 9.05 116.58 7.51 113.62 4.21 115.26 7.14 113.38 3.17 112.92 7.29 113.06 7.41 109.21"/><path class="cls-6" d="M7.25,118A12.86,12.86,0,0,0,4,115.77s-1.51-.18-1.71.68l-.38,2.4L.18,120.58c-.56.68.4,1.75.45,1.76a13.22,13.22,0,0,0,3.78,1.32,9.13,9.13,0,0,0,4.93.12l.48-1,.48-1A9.14,9.14,0,0,0,7.25,118Z"/><path class="cls-6" d="M9.15,124a8.55,8.55,0,0,0-1.83,4.46A12.5,12.5,0,0,0,7,132.28s.6,1.36,1.45,1.11l2.26-.89,2.35.61c.87.15,1.32-1.23,1.3-1.28a12.5,12.5,0,0,0-.74-3.81,8.56,8.56,0,0,0-2.36-4.2l-1.08.07Z"/><path class="cls-6" d="M15.74,115.16a12.5,12.5,0,0,0-2.93,2.54,8.55,8.55,0,0,0-2.46,4.15l.6.9.6.9a8.55,8.55,0,0,0,4.78-.64,12.5,12.5,0,0,0,3.49-1.7s.88-1.2.24-1.81L18.14,118l-.65-2.34C17.19,114.82,15.77,115.12,15.74,115.16Z"/><polygon class="cls-3" points="9.02 123.83 10.22 121.5 11.71 123.7 8.78 124.04 9.02 123.83"/><polygon class="cls-7" points="3.52 122.1 9.56 122.78 5.56 118.66 10 122.65 14.12 118.14 10.71 122.82 16.03 121.44 10.76 123.14 12.53 128.98 10.28 123.69 8.43 130.04 9.8 123.35 3.52 122.1"/><path class="cls-3" d="M14,118.37a13,13,0,0,0,.51-3.94S14,113,13.14,113.18l-2.31.73-2.31-.76c-.86-.2-1.39,1.14-1.38,1.19a13.57,13.57,0,0,0,.51,4,12.58,12.58,0,0,0,2.1,4.52h2.16A12.6,12.6,0,0,0,14,118.37Z"/><path class="cls-3" d="M9.51,122.68A8.55,8.55,0,0,0,4.7,123a12.5,12.5,0,0,0-3.59,1.49s-1,1.14-.35,1.79l1.81,1.63.51,2.38c.26.85,1.69.63,1.72.59a12.5,12.5,0,0,0,3.08-2.36,8.56,8.56,0,0,0,2.71-4l-.54-.94Z"/><path class="cls-3" d="M20.32,124.64a12.5,12.5,0,0,0-3.59-1.49,8.55,8.55,0,0,0-4.81-.35l-.54.94-.54.94a8.55,8.55,0,0,0,2.71,4A12.5,12.5,0,0,0,16.63,131s1.47.25,1.72-.59l.51-2.38,1.81-1.63C21.27,125.79,20.37,124.65,20.32,124.64Z"/><polygon class="cls-3" points="9.56 122.51 12.18 122.54 10.88 124.85 9.27 122.38 9.56 122.51"/><polygon class="cls-7" points="8.66 116.82 10.75 122.52 12.64 117.11 11.05 122.86 16.94 124.53 11.21 123.56 14.83 127.71 10.96 123.76 6.52 127.95 10.25 123.56 3.74 124.75 10.34 122.99 8.66 116.82"/><path class="cls-2" d="M16.38,122.05a7.76,7.76,0,0,0-2-1.33s-.91-.11-1,.41l-.23,1.45-1,1c-.34.41.24,1.06.27,1.06a8,8,0,0,0,2.28.8,5.51,5.51,0,0,0,3,.07l.29-.58.29-.58A5.52,5.52,0,0,0,16.38,122.05Z"/><path class="cls-2" d="M17.52,125.66a5.16,5.16,0,0,0-1.11,2.69,7.54,7.54,0,0,0-.16,2.34s.36.82.87.67l1.37-.54,1.42.37c.53.09.79-.74.78-.77a7.54,7.54,0,0,0-.45-2.3,5.16,5.16,0,0,0-1.42-2.54l-.65,0Z"/><path class="cls-2" d="M21.49,120.35a7.54,7.54,0,0,0-1.77,1.54,5.16,5.16,0,0,0-1.48,2.5l.36.54.36.54a5.16,5.16,0,0,0,2.88-.39,7.54,7.54,0,0,0,2.11-1s.53-.72.14-1.09l-1.15-.91-.39-1.41C22.37,120.15,21.51,120.33,21.49,120.35Z"/><polygon class="cls-3" points="17.44 125.58 18.17 124.18 19.06 125.5 17.3 125.71 17.44 125.58"/><polygon class="cls-4" points="14.13 124.54 17.77 124.95 15.36 122.46 18.03 124.87 20.52 122.15 18.46 124.98 21.67 124.14 18.49 125.17 19.56 128.69 18.2 125.5 17.09 129.33 17.91 125.29 14.13 124.54"/><path class="cls-5" d="M20.45,122.23a7.69,7.69,0,0,0,.31-2.35s-.31-.86-.83-.74l-1.4.45-1.4-.46c-.52-.12-.84.69-.83.72a7.83,7.83,0,0,0,.31,2.37c.27,1.32.9,2.67,1.27,2.67h1.3C19.55,124.9,20.19,123.55,20.45,122.23Z"/><path class="cls-5" d="M17.74,124.89a5.16,5.16,0,0,0-2.9.21,7.54,7.54,0,0,0-2.16.9s-.58.69-.21,1.08l1.09,1,.31,1.43c.15.51,1,.38,1,.36a7.54,7.54,0,0,0,1.86-1.43A5.16,5.16,0,0,0,18.39,126l-.33-.56Z"/><path class="cls-5" d="M24.26,126.07a7.54,7.54,0,0,0-2.16-.9,5.16,5.16,0,0,0-2.9-.21l-.33.56-.33.56a5.16,5.16,0,0,0,1.63,2.41A7.54,7.54,0,0,0,22,129.93s.89.15,1-.36l.31-1.43,1.09-1C24.84,126.76,24.29,126.08,24.26,126.07Z"/><polygon class="cls-5" points="17.77 124.79 19.35 124.81 18.56 126.2 17.59 124.71 17.77 124.79"/><polygon class="cls-4" points="17.23 121.35 18.48 124.79 19.63 121.53 18.67 125 22.22 126 18.77 125.42 20.95 127.92 18.61 125.54 15.94 128.07 18.18 125.42 14.26 126.14 18.24 125.07 17.23 121.35"/><path class="cls-2" d="M139.2,23.8a7.76,7.76,0,0,0,1.5,1.85s.84.37,1.11-.09l.64-1.32,1.29-.7c.45-.29.08-1.08,0-1.1a8,8,0,0,0-2-1.43,5.51,5.51,0,0,0-2.83-.93l-.45.47-.45.47A5.52,5.52,0,0,0,139.2,23.8Z"/><path class="cls-2" d="M139.16,20A5.16,5.16,0,0,0,141,17.77a7.54,7.54,0,0,0,.84-2.19s-.1-.89-.64-.9l-1.46.11L138.49,14c-.48-.24-1,.48-1,.51a7.54,7.54,0,0,0-.24,2.33,5.16,5.16,0,0,0,.62,2.84l.63.15Z"/><path class="cls-2" d="M133.81,23.93A7.54,7.54,0,0,0,136,23a5.16,5.16,0,0,0,2.15-2l-.19-.63-.19-.63a5.16,5.16,0,0,0-2.87-.47,7.54,7.54,0,0,0-2.31.37s-.72.54-.46,1l.83,1.21,0,1.47C132.92,23.87,133.79,23.95,133.81,23.93Z"/><polygon class="cls-3" points="139.21 20.11 138.11 21.24 137.64 19.71 139.39 20.03 139.21 20.11"/><polygon class="cls-4" points="142.08 22.08 138.72 20.62 140.3 23.7 138.44 20.62 135.27 22.5 138.06 20.39 134.75 20.25 138.09 20.2 138.09 16.52 138.46 19.97 140.65 16.63 138.68 20.25 142.08 22.08"/><path class="cls-5" d="M135.35,22.44a7.69,7.69,0,0,0-1,2.16s0,.91.58.95l1.46,0,1.2.84c.46.27,1-.42,1-.45a7.83,7.83,0,0,0,.4-2.36c.13-1.34-.09-2.82-.43-2.92l-.62-.19-.62-.19C137,20.15,136,21.25,135.35,22.44Z"/><path class="cls-5" d="M138.73,20.69a5.16,5.16,0,0,0,2.84.64,7.54,7.54,0,0,0,2.33-.23s.75-.49.52-1l-.76-1.26.13-1.46c0-.53-.86-.66-.89-.65a7.54,7.54,0,0,0-2.19.82,5.16,5.16,0,0,0-2.26,1.83l.15.64Z"/><path class="cls-5" d="M132.84,17.65a7.54,7.54,0,0,0,1.81,1.49,5.16,5.16,0,0,0,2.71,1l.48-.45.48-.45a5.16,5.16,0,0,0-.86-2.78,7.54,7.54,0,0,0-1.36-1.91s-.8-.4-1.1,0l-.71,1.28-1.33.62C132.49,16.82,132.81,17.64,132.84,17.65Z"/><polygon class="cls-5" points="138.67 20.78 137.16 20.3 138.32 19.19 138.81 20.9 138.67 20.78"/><polygon class="cls-4" points="138.19 24.22 137.99 20.56 135.94 23.35 137.87 20.31 134.77 18.31 137.9 19.88 136.54 16.85 138.08 19.81 141.38 18.17 138.46 20.05 142.42 20.5 138.3 20.36 138.19 24.22"/><path class="cls-6" d="M138.34,15.45a12.86,12.86,0,0,0,3.27,2.2s1.51.18,1.71-.68l.38-2.4,1.71-1.73c.56-.68-.4-1.75-.45-1.76a13.22,13.22,0,0,0-3.78-1.32,9.13,9.13,0,0,0-4.93-.12l-.48,1-.48,1A9.14,9.14,0,0,0,138.34,15.45Z"/><path class="cls-6" d="M136.45,9.47A8.55,8.55,0,0,0,138.28,5a12.5,12.5,0,0,0,.27-3.87S138-.22,137.11,0l-2.26.89L132.49.31c-.87-.15-1.32,1.23-1.3,1.28a12.5,12.5,0,0,0,.74,3.81,8.56,8.56,0,0,0,2.36,4.2l1.08-.07Z"/><path class="cls-6" d="M129.86,18.27a12.5,12.5,0,0,0,2.93-2.54,8.55,8.55,0,0,0,2.46-4.15l-.6-.9-.6-.9a8.55,8.55,0,0,0-4.78.64,12.5,12.5,0,0,0-3.49,1.7s-.88,1.2-.24,1.81l1.9,1.52.65,2.34C128.41,18.61,129.83,18.31,129.86,18.27Z"/><polygon class="cls-3" points="136.57 9.6 135.37 11.93 133.89 9.73 136.81 9.39 136.57 9.6"/><polygon class="cls-7" points="142.07 11.33 136.03 10.65 140.03 14.77 135.59 10.78 131.47 15.29 134.89 10.6 129.57 11.99 134.83 10.29 133.06 4.45 135.32 9.74 137.16 3.39 135.8 10.08 142.07 11.33"/><path class="cls-3" d="M131.58,15.24a12.51,12.51,0,0,0-.51,3.85s.51,1.4,1.38,1.2l2.31-.75,2.31.75c.86.2,1.39-1.15,1.38-1.2a12.53,12.53,0,0,0-.51-3.85,11.49,11.49,0,0,0-2.1-4.34h-2.16A11.49,11.49,0,0,0,131.58,15.24Z"/><path class="cls-3" d="M136.09,10.75a8.55,8.55,0,0,0,4.81-.35,12.5,12.5,0,0,0,3.59-1.49s1-1.14.35-1.79L143,5.5l-.51-2.38c-.26-.85-1.69-.63-1.72-.59a12.5,12.5,0,0,0-3.08,2.36,8.56,8.56,0,0,0-2.71,4l.54.94Z"/><path class="cls-3" d="M125.28,8.79a12.5,12.5,0,0,0,3.59,1.49,8.55,8.55,0,0,0,4.81.35l.54-.94.54-.94a8.55,8.55,0,0,0-2.71-4A12.5,12.5,0,0,0,129,2.4s-1.47-.25-1.72.59l-.51,2.38L124.93,7C124.32,7.64,125.23,8.77,125.28,8.79Z"/><polygon class="cls-3" points="136.04 10.92 133.41 10.88 134.72 8.58 136.32 11.04 136.04 10.92"/><polygon class="cls-7" points="136.94 16.61 134.85 10.91 132.95 16.32 134.54 10.57 128.66 8.9 134.38 9.86 130.76 5.72 134.64 9.67 139.07 5.48 135.34 9.86 141.85 8.67 135.26 10.44 136.94 16.61"/><path class="cls-2" d="M129.22,11.38a7.76,7.76,0,0,0,2,1.33s.91.11,1-.41l.23-1.45,1-1c.34-.41-.24-1.06-.27-1.06a8,8,0,0,0-2.28-.8,5.51,5.51,0,0,0-3-.07l-.29.58-.29.58A5.52,5.52,0,0,0,129.22,11.38Z"/><path class="cls-2" d="M128.08,7.77a5.16,5.16,0,0,0,1.11-2.69,7.54,7.54,0,0,0,.16-2.34s-.36-.82-.87-.67l-1.37.54-1.42-.37c-.53-.09-.79.74-.78.77a7.54,7.54,0,0,0,.45,2.3,5.16,5.16,0,0,0,1.42,2.54l.65,0Z"/><path class="cls-2" d="M124.1,13.08a7.54,7.54,0,0,0,1.77-1.54A5.16,5.16,0,0,0,127.35,9L127,8.5,126.63,8a5.16,5.16,0,0,0-2.88.39,7.54,7.54,0,0,0-2.11,1s-.53.72-.14,1.09l1.15.91.39,1.41C123.23,13.28,124.08,13.1,124.1,13.08Z"/><polygon class="cls-3" points="128.15 7.84 127.43 9.25 126.53 7.92 128.3 7.72 128.15 7.84"/><polygon class="cls-4" points="131.47 8.89 127.83 8.48 130.24 10.96 127.56 8.56 125.07 11.28 127.14 8.45 123.92 9.29 127.1 8.26 126.03 4.74 127.4 7.93 128.51 4.1 127.69 8.13 131.47 8.89"/><path class="cls-5" d="M125.14,11.38a7.18,7.18,0,0,0-.31,2.26s.31.81.83.69l1.4-.47,1.4.44c.52.12.84-.7.83-.73a6.83,6.83,0,0,0-.31-2.19c-.27-1.32-.9-2.49-1.27-2.49h-1.3C126,8.9,125.41,10.06,125.14,11.38Z"/><path class="cls-5" d="M127.86,8.54a5.16,5.16,0,0,0,2.9-.21,7.54,7.54,0,0,0,2.16-.9s.58-.69.21-1.08l-1.09-1-.31-1.43c-.15-.51-1-.38-1-.36A7.54,7.54,0,0,0,128.84,5a5.16,5.16,0,0,0-1.63,2.41l.33.56Z"/><path class="cls-5" d="M121.34,7.36a7.54,7.54,0,0,0,2.16.9,5.16,5.16,0,0,0,2.9.21l.33-.56.33-.56a5.16,5.16,0,0,0-1.63-2.41,7.54,7.54,0,0,0-1.86-1.43s-.89-.15-1,.36l-.31,1.43-1.09,1C120.76,6.66,121.31,7.35,121.34,7.36Z"/><polygon class="cls-5" points="127.83 8.64 126.25 8.62 127.03 7.23 128 8.72 127.83 8.64"/><polygon class="cls-4" points="128.37 12.08 127.11 8.64 125.97 11.9 126.93 8.43 123.38 7.42 126.83 8.01 124.65 5.5 126.98 7.89 129.66 5.36 127.41 8.01 131.34 7.29 127.36 8.35 128.37 12.08"/><text class="cls-8" transform="translate(10.85 32.23)"><tspan class="cls-9">H</tspan><tspan class="cls-10" x="7.94" y="0">is de</tspan><tspan class="cls-11" x="30.83" y="0">a</tspan><tspan x="36.56" y="0">th led </tspan><tspan class="cls-12" x="67.89" y="0">t</tspan><tspan x="71.79" y="0">o snap</tspan><tspan x="0" y="14.4">p</tspan><tspan class="cls-13" x="6.83" y="14.4">r</tspan><tspan x="10.63" y="14.4">eside</tspan><tspan class="cls-11" x="36.98" y="14.4">n</tspan><tspan x="43.6" y="14.4">tial ele</tspan><tspan class="cls-14" x="76.39" y="14.4">c</tspan><tspan x="81.92" y="14.4">tion</tspan><tspan class="cls-15" x="101.95" y="14.4">s</tspan><tspan x="106.57" y="14.4">, </tspan><tspan x="0" y="28.8">which led </tspan><tspan class="cls-12" x="51.04" y="28.8">t</tspan><tspan x="54.94" y="28.8">o the </tspan><tspan class="cls-16" x="0" y="43.2">P</tspan><tspan x="6.08" y="43.2">eople </tspan><tspan class="cls-16" x="36.9" y="43.2">P</tspan><tspan class="cls-17" x="42.98" y="43.2">o</tspan><tspan class="cls-13" x="49.49" y="43.2">w</tspan><tspan x="58.2" y="43.2">er </tspan><tspan class="cls-18" x="70.68" y="43.2">R</tspan><tspan x="77.18" y="43.2">e</tspan><tspan class="cls-13" x="83.2" y="43.2">v</tspan><tspan x="88.85" y="43.2">olution</tspan><tspan x="0" y="57.6">in 1986</tspan></text></g></g></svg>