<svg viewBox="0 0 170.72 163.17"><defs><style>.cls-1{fill:#fff;stroke:#000;stroke-miterlimit:10;opacity:0.8;}.cls-2{font-size:12px;font-family:MyriadPro-Regular, Myriad Pro;}.cls-3{letter-spacing:0.01em;}.cls-4{letter-spacing:-0.01em;}.cls-5{letter-spacing:-0.03em;}.cls-6{letter-spacing:-0.01em;}.cls-7{letter-spacing:-0.01em;}.cls-8{letter-spacing:0.01em;}.cls-9{letter-spacing:-0.01em;}.cls-10{letter-spacing:-0.02em;}.cls-11{letter-spacing:-0.09em;}.cls-12{fill:#ca465a;}.cls-13{fill:#f65973;}.cls-14{fill:#9c3043;}.cls-15{fill:#13add6;}.cls-16{fill:#31859b;}.cls-17{fill:#5bcdf4;}.cls-18{fill:#d3c75e;}.cls-19{fill:#e2d02b;}.cls-20{fill:#efe66f;}</style></defs><title>Asset 8</title><g id="Layer_2" data-name="Layer 2"><g id="speech7"><path class="cls-1" d="M136.65,134.5H126l-27.5,26.42L111,134.66l-86.33-.17a12,12,0,0,1-12-12V23.16a12,12,0,0,1,12-12h112a12,12,0,0,1,12,12V122.5A12,12,0,0,1,136.65,134.5Z"/><text class="cls-2" transform="translate(23.95 49.44)"><tspan class="cls-3">O</tspan><tspan class="cls-4" x="8.44" y="0">v</tspan><tspan x="14.09" y="0">er 1 million </tspan><tspan class="cls-5" x="72.35" y="0">F</tspan><tspan x="77.88" y="0">ilipinos</tspan><tspan x="0" y="14.4">joined the </tspan><tspan class="cls-6" x="53.48" y="14.4">r</tspan><tspan x="57.29" y="14.4">e</tspan><tspan class="cls-4" x="63.3" y="14.4">v</tspan><tspan x="68.95" y="14.4">olution, </tspan><tspan x="0" y="28.8">which led </tspan><tspan class="cls-7" x="51.04" y="28.8">t</tspan><tspan x="54.94" y="28.8">o the fall of</tspan><tspan class="cls-8" x="0" y="43.2">M</tspan><tspan x="9.72" y="43.2">a</tspan><tspan class="cls-6" x="15.5" y="43.2">r</tspan><tspan class="cls-9" x="19.31" y="43.2">c</tspan><tspan x="24.61" y="43.2">o</tspan><tspan class="cls-10" x="31.2" y="43.2">s</tspan><tspan class="cls-11" x="35.75" y="43.2">’</tspan><tspan x="37.2" y="43.2" xml:space="preserve"> 25 </tspan><tspan class="cls-6" x="54.6" y="43.2">y</tspan><tspan x="60.13" y="43.2">ear rule</tspan></text><path class="cls-12" d="M144.23,113.3c-2.62-2-4.71-3.81-6.37-4.28-.07-.06-2.94-.35-3.33,1.33L133.8,115l-3.33,3.36c-1.1,1.32.79,3.41.88,3.43,1.37,1,4.15,1.7,7.36,2.57,4.2,1.14,8.18.83,9.59.22l.94-1.88.94-1.88C149.81,119.34,147.67,116,144.23,113.3Z"/><path class="cls-12" d="M147.92,124.93c-1.11,1.07-3,4.36-3.57,8.67-.46,3.29-1,5.86-.53,7.53,0,.09,1.16,2.65,2.81,2.16l4.4-1.73,4.58,1.18c1.7.29,2.56-2.39,2.53-2.49.22-1.71-.59-4.2-1.44-7.41-1.11-4.21-3.36-7.25-4.59-8.17l-2.1.13Z"/><path class="cls-12" d="M160.73,107.83c-1.59.66-3.35,2.61-5.7,4.95-3.09,3.07-4.6,6.53-4.79,8.06l1.16,1.75,1.16,1.75c1.48.43,5.26.39,9.29-1.25,3.07-1.25,5.55-2.1,6.79-3.31.09,0,1.72-2.33.47-3.52l-3.7-2.95-1.26-4.55C163.55,107.16,160.79,107.76,160.73,107.83Z"/><polygon class="cls-13" points="147.67 124.7 150.01 120.16 152.89 124.43 147.2 125.09 147.67 124.7"/><polygon class="cls-14" points="136.98 121.32 148.72 122.64 140.95 114.63 149.58 122.4 157.59 113.62 150.95 122.73 161.3 120.04 151.06 123.35 154.5 134.71 150.11 124.41 146.52 136.77 149.18 123.75 136.98 121.32"/><path class="cls-13" d="M157.37,114c.65-3.25,1.31-5.92,1-7.61,0-.09-1-2.78-2.68-2.39l-4.5,1.43-4.5-1.47c-1.68-.39-2.7,2.23-2.68,2.32-.32,1.69.33,4.48,1,7.73.86,4.27,2.91,7.68,4.08,8.68h4.21C154.46,121.64,156.52,118.22,157.37,114Z"/><path class="cls-13" d="M148.62,122.45c-1.45-.52-5.22-.71-9.35.68-3.14,1.06-5.67,1.76-7,2.89-.09,0-1.85,2.23-.68,3.48l3.51,3.16,1,4.62c.5,1.65,3.29,1.22,3.35,1.15,1.63-.57,3.5-2.4,6-4.59,3.27-2.88,5-6.24,5.26-7.76l-1.05-1.82Z"/><path class="cls-13" d="M169.64,126.27c-1.31-1.13-3.83-1.83-7-2.89-4.13-1.39-7.9-1.2-9.35-.68l-1.05,1.82-1.05,1.82c.28,1.52,2,4.88,5.26,7.76,2.49,2.19,4.36,4,6,4.59.07.07,2.85.49,3.35-1.15l1-4.62,3.51-3.16C171.5,128.49,169.74,126.29,169.64,126.27Z"/><polygon class="cls-13" points="148.72 122.12 153.82 122.19 151.29 126.67 148.16 121.88 148.72 122.12"/><polygon class="cls-14" points="146.97 111.05 151.03 122.14 154.72 111.61 151.62 122.8 163.06 126.05 151.94 124.17 158.97 132.24 151.44 124.55 142.81 132.71 150.06 124.17 137.41 126.49 150.23 123.05 146.97 111.05"/><path class="cls-15" d="M11.64,7.8C9.48,6.11,7.76,4.65,6.39,4.26,6.33,4.21,4,4,3.63,5.36L3,9.21.28,12c-.91,1.09.65,2.82.73,2.83,1.13.86,3.43,1.41,6.07,2.12,3.47.94,6.75.68,7.92.18l.78-1.55L16.56,14C16.25,12.78,14.48,10,11.64,7.8Z"/><path class="cls-15" d="M14.69,17.4a13.73,13.73,0,0,0-2.94,7.16c-.38,2.71-.79,4.84-.44,6.22,0,.08,1,2.19,2.32,1.78l3.63-1.43,3.78,1c1.4.24,2.11-2,2.09-2.05.18-1.41-.48-3.47-1.19-6.12a13.74,13.74,0,0,0-3.79-6.75l-1.73.11Z"/><path class="cls-15" d="M25.26,3.28C24,3.83,22.5,5.43,20.56,7.36a13.74,13.74,0,0,0-4,6.66l1,1.45,1,1.45a13.74,13.74,0,0,0,7.67-1c2.54-1,4.58-1.74,5.6-2.73.08,0,1.42-1.93.39-2.9L29.13,7.82l-1-3.76C27.59,2.73,25.32,3.22,25.26,3.28Z"/><polygon class="cls-13" points="14.48 17.2 16.41 13.46 18.79 16.99 14.1 17.53 14.48 17.2"/><polygon class="cls-16" points="5.66 14.41 15.35 15.5 8.93 8.89 16.06 15.31 22.68 8.06 17.19 15.58 25.74 13.36 17.28 16.09 20.12 25.47 16.5 16.97 13.54 27.17 15.73 16.43 5.66 14.41"/><path class="cls-17" d="M22.5,8.22C23,5.53,23.57,3.39,23.31,2c0-.08-.83-2.27-2.21-1.94L17.39,1.24,13.67,0C12.29-.29,11.44,1.88,11.47,2c-.27,1.4.27,3.58.81,6.27.71,3.52,2.4,7.05,3.37,7.05h3.47C20.09,15.27,21.79,11.74,22.5,8.22Z"/><path class="cls-17" d="M15.27,15.34a13.73,13.73,0,0,0-7.72.56c-2.6.88-4.68,1.46-5.76,2.39-.08,0-1.53,1.84-.56,2.87l2.9,2.61.81,3.82c.41,1.36,2.71,1,2.77,1,1.34-.47,2.89-2,4.95-3.79A13.74,13.74,0,0,0,17,18.35l-.87-1.5Z"/><path class="cls-17" d="M32.62,18.5c-1.08-.93-3.16-1.51-5.76-2.39a13.74,13.74,0,0,0-7.72-.56l-.87,1.5-.87,1.5A13.74,13.74,0,0,0,21.76,25c2.06,1.81,3.6,3.32,4.95,3.79.06.06,2.36.41,2.77-1L30.28,24l2.9-2.61C34.15,20.34,32.7,18.52,32.62,18.5Z"/><polygon class="cls-17" points="15.35 15.08 19.56 15.13 17.47 18.84 14.88 14.88 15.35 15.08"/><polygon class="cls-16" points="13.9 5.94 17.26 15.1 20.3 6.4 17.75 15.64 27.19 18.32 18.01 16.77 23.81 23.43 17.59 17.08 10.47 23.82 16.46 16.77 6.01 18.68 16.6 15.84 13.9 5.94"/><path class="cls-18" d="M146.78,116.9a13.94,13.94,0,0,0-3.55-2.38s-1.64-.19-1.86.74l-.41,2.6-1.85,1.87c-.61.74.44,1.9.49,1.91a14.32,14.32,0,0,0,4.1,1.43,9.89,9.89,0,0,0,5.34.12l.52-1,.52-1A9.9,9.9,0,0,0,146.78,116.9Z"/><path class="cls-18" d="M148.84,123.38a9.27,9.27,0,0,0-2,4.83,13.54,13.54,0,0,0-.3,4.2c0,.05.65,1.48,1.57,1.2l2.45-1,2.55.66c.94.16,1.43-1.33,1.41-1.38a13.54,13.54,0,0,0-.8-4.13,9.27,9.27,0,0,0-2.56-4.55l-1.17.07Z"/><path class="cls-18" d="M156,113.85a13.54,13.54,0,0,0-3.18,2.76,9.27,9.27,0,0,0-2.67,4.49l.65,1,.65,1a9.27,9.27,0,0,0,5.18-.69,13.54,13.54,0,0,0,3.78-1.84c.05,0,1-1.3.26-2l-2.06-1.64-.7-2.54C157.54,113.48,156,113.81,156,113.85Z"/><polygon class="cls-13" points="148.7 123.25 150 120.72 151.61 123.1 148.44 123.47 148.7 123.25"/><polygon class="cls-19" points="142.75 121.36 149.29 122.1 144.95 117.64 149.76 121.97 154.23 117.08 150.52 122.15 156.29 120.66 150.59 122.5 152.5 128.82 150.06 123.09 148.06 129.97 149.54 122.72 142.75 121.36"/><path class="cls-20" d="M154.1,117.26a13.92,13.92,0,0,0,.55-4.24c0-.05-.56-1.55-1.49-1.33l-2.5.8-2.5-.82c-.93-.22-1.5,1.24-1.49,1.29a14.29,14.29,0,0,0,.55,4.3,13.08,13.08,0,0,0,2.28,4.83h2.34A13.1,13.1,0,0,0,154.1,117.26Z"/><path class="cls-20" d="M149.23,122a9.27,9.27,0,0,0-5.21.38,13.54,13.54,0,0,0-3.89,1.61c-.05,0-1,1.24-.38,1.94l2,1.76.55,2.58c.28.92,1.83.68,1.87.64a13.54,13.54,0,0,0,3.34-2.56A9.27,9.27,0,0,0,150.4,124l-.59-1Z"/><path class="cls-20" d="M160.94,124.12a13.54,13.54,0,0,0-3.89-1.61,9.27,9.27,0,0,0-5.21-.38l-.59,1-.59,1a9.27,9.27,0,0,0,2.93,4.32,13.54,13.54,0,0,0,3.34,2.56s1.59.27,1.87-.64l.55-2.58,2-1.76C162,125.36,161,124.14,160.94,124.12Z"/><polygon class="cls-20" points="149.28 121.81 152.12 121.85 150.71 124.35 148.97 121.68 149.28 121.81"/><polygon class="cls-19" points="148.31 115.64 150.57 121.83 152.63 115.96 150.9 122.19 157.27 124 151.08 122.96 154.99 127.45 150.8 123.17 145.99 127.71 150.03 122.96 142.98 124.25 150.13 122.33 148.31 115.64"/><path class="cls-12" d="M13.44,10.49a12.15,12.15,0,0,0-3.09-2.08s-1.43-.17-1.62.64l-.36,2.26L6.75,13c-.53.64.38,1.66.43,1.67a12.49,12.49,0,0,0,3.57,1.25,8.63,8.63,0,0,0,4.66.11l.46-.91.46-.91A8.64,8.64,0,0,0,13.44,10.49Z"/><path class="cls-12" d="M15.23,16.14a8.08,8.08,0,0,0-1.73,4.21A11.81,11.81,0,0,0,13.24,24s.56,1.29,1.37,1.05l2.14-.84,2.22.57c.82.14,1.24-1.16,1.23-1.21a11.81,11.81,0,0,0-.7-3.6,8.08,8.08,0,0,0-2.23-4l-1,.06Z"/><path class="cls-12" d="M21.45,7.83a11.81,11.81,0,0,0-2.77,2.4,8.08,8.08,0,0,0-2.32,3.92l.56.85.56.85A8.08,8.08,0,0,0,22,15.25a11.81,11.81,0,0,0,3.3-1.61s.83-1.13.23-1.71l-1.8-1.43-.61-2.21C22.82,7.5,21.48,7.79,21.45,7.83Z"/><polygon class="cls-13" points="15.11 16.02 16.24 13.82 17.64 15.89 14.88 16.21 15.11 16.02"/><polygon class="cls-14" points="9.91 14.38 15.62 15.02 11.84 11.13 16.03 14.9 19.93 10.64 16.7 15.07 21.73 13.76 16.75 15.37 18.43 20.89 16.29 15.88 14.55 21.89 15.84 15.56 9.91 14.38"/><path class="cls-13" d="M19.82,10.8a12.15,12.15,0,0,0,.48-3.7S19.81,5.76,19,5.95l-2.18.69-2.18-.72c-.81-.19-1.31,1.08-1.3,1.13a12.49,12.49,0,0,0,.48,3.76,8.63,8.63,0,0,0,2,4.22h2A8.64,8.64,0,0,0,19.82,10.8Z"/><path class="cls-13" d="M15.57,14.93a8.08,8.08,0,0,0-4.54.33,11.81,11.81,0,0,0-3.39,1.4s-.9,1.08-.33,1.69L9,19.89l.48,2.25c.24.8,1.6.59,1.63.56A11.81,11.81,0,0,0,14,20.46a8.08,8.08,0,0,0,2.56-3.77l-.51-.88Z"/><path class="cls-13" d="M25.78,16.79a11.81,11.81,0,0,0-3.39-1.4,8.08,8.08,0,0,0-4.54-.33l-.51.88-.51.88a8.08,8.08,0,0,0,2.56,3.77,11.81,11.81,0,0,0,2.91,2.23s1.39.24,1.63-.56L24.4,20l1.71-1.54C26.68,17.87,25.82,16.8,25.78,16.79Z"/><polygon class="cls-13" points="15.62 14.77 18.09 14.8 16.86 16.98 15.34 14.65 15.62 14.77"/><polygon class="cls-14" points="14.77 9.39 16.74 14.78 18.53 9.66 17.03 15.1 22.58 16.68 17.18 15.77 20.59 19.68 16.94 15.95 12.75 19.91 16.27 15.77 10.12 16.89 16.35 15.22 14.77 9.39"/></g></g></svg>