<svg viewBox="0 0 157.75 162.47"><defs><style>.cls-1{fill:#fff;stroke:#000;stroke-miterlimit:10;opacity:0.8;}.cls-2{font-size:12px;font-family:MyriadPro-Regular, Myriad Pro;}.cls-3{letter-spacing:0em;}.cls-4{letter-spacing:-0.01em;}.cls-5{letter-spacing:-0.01em;}.cls-6{letter-spacing:-0.01em;}.cls-7{letter-spacing:0em;}.cls-8{letter-spacing:0.01em;}.cls-9{letter-spacing:-0.01em;}.cls-10{letter-spacing:-0.01em;}.cls-11{letter-spacing:-0.01em;}.cls-12{letter-spacing:0em;}.cls-13{letter-spacing:-0.01em;}.cls-14{letter-spacing:-0.01em;}.cls-15{fill:#d3c75e;}.cls-16{fill:#f65973;}.cls-17{fill:#e2d02b;}.cls-18{fill:#efe66f;}.cls-19{fill:#ca465a;}.cls-20{fill:#9c3043;}</style></defs><title>Asset 3</title><g id="Layer_2" data-name="Layer 2"><g id="speech2"><path class="cls-1" d="M134.54,133.79H123.87l-27.5,26.42L108.87,134l-86.33-.17a12,12,0,0,1-12-12V22.46a12,12,0,0,1,12-12h112a12,12,0,0,1,12,12v99.33A12,12,0,0,1,134.54,133.79Z"/><text class="cls-2" transform="translate(14.84 55.73)"><tspan class="cls-3">D</tspan><tspan x="8.03" y="0">ue </tspan><tspan class="cls-4" x="23.2" y="0">t</tspan><tspan x="27.1" y="0">o his belie</tspan><tspan class="cls-5" x="77.48" y="0">f</tspan><tspan class="cls-6" x="80.88" y="0">s</tspan><tspan class="cls-7" x="85.5" y="0">, </tspan><tspan class="cls-8" x="90.53" y="0">M</tspan><tspan x="100.25" y="0">a</tspan><tspan class="cls-9" x="106.03" y="0">r</tspan><tspan class="cls-10" x="109.83" y="0">c</tspan><tspan x="115.14" y="0">os </tspan><tspan x="0" y="14.4">had </tspan><tspan class="cls-11" x="21.76" y="14.4">A</tspan><tspan x="28.96" y="14.4">quino imp</tspan><tspan class="cls-12" x="80.57" y="14.4">r</tspan><tspan x="84.54" y="14.4">isoned</tspan><tspan class="cls-13" x="0" y="28.8">f</tspan><tspan x="3.35" y="28.8">or 8 </tspan><tspan class="cls-9" x="25.1" y="28.8">y</tspan><tspan x="30.64" y="28.8">ear</tspan><tspan class="cls-14" x="46.36" y="28.8">s</tspan><tspan x="50.98" y="28.8">.</tspan></text><path class="cls-15" d="M24.94,123.86a13,13,0,0,0-3.32-2.23s-1.53-.18-1.74.69l-.38,2.43-1.73,1.75c-.57.69.41,1.78.46,1.79a13.4,13.4,0,0,0,3.83,1.34,9.26,9.26,0,0,0,5,.12l.49-1,.49-1A9.27,9.27,0,0,0,24.94,123.86Z"/><path class="cls-15" d="M26.86,129.92A8.67,8.67,0,0,0,25,134.44a12.67,12.67,0,0,0-.28,3.92s.61,1.38,1.47,1.13l2.29-.9,2.39.62c.88.15,1.33-1.25,1.32-1.3a12.67,12.67,0,0,0-.75-3.86A8.67,8.67,0,0,0,29,129.79l-1.09.07Z"/><path class="cls-15" d="M33.54,121a12.67,12.67,0,0,0-3,2.58,8.67,8.67,0,0,0-2.49,4.2l.6.91.6.91a8.67,8.67,0,0,0,4.84-.65,12.67,12.67,0,0,0,3.54-1.72s.89-1.22.24-1.83L36,123.88l-.66-2.37C35,120.66,33.57,121,33.54,121Z"/><polygon class="cls-16" points="26.73 129.8 27.95 127.44 29.45 129.66 26.49 130.01 26.73 129.8"/><polygon class="cls-17" points="21.16 128.04 27.28 128.73 23.23 124.56 27.73 128.6 31.91 124.03 28.44 128.78 33.84 127.38 28.5 129.1 30.3 135.02 28 129.65 26.14 136.09 27.52 129.31 21.16 128.04"/><path class="cls-18" d="M31.79,124.2a13,13,0,0,0,.51-4s-.52-1.45-1.39-1.24l-2.34.74L26.22,119c-.87-.2-1.41,1.16-1.39,1.21a13.37,13.37,0,0,0,.51,4,12.24,12.24,0,0,0,2.13,4.52h2.19A12.25,12.25,0,0,0,31.79,124.2Z"/><path class="cls-18" d="M27.23,128.63a8.67,8.67,0,0,0-4.87.35,12.67,12.67,0,0,0-3.63,1.51s-1,1.16-.35,1.81L20.2,134l.51,2.41c.26.86,1.71.64,1.75.6a12.67,12.67,0,0,0,3.12-2.39,8.67,8.67,0,0,0,2.74-4l-.55-.95Z"/><path class="cls-18" d="M38.18,130.62a12.67,12.67,0,0,0-3.63-1.51,8.67,8.67,0,0,0-4.87-.35l-.55.95-.55.95a8.67,8.67,0,0,0,2.74,4,12.67,12.67,0,0,0,3.12,2.39s1.49.26,1.75-.6l.51-2.41,1.83-1.65C39.15,131.78,38.23,130.63,38.18,130.62Z"/><polygon class="cls-18" points="27.28 128.46 29.94 128.49 28.62 130.83 26.99 128.33 27.28 128.46"/><polygon class="cls-17" points="26.37 122.69 28.48 128.47 30.41 122.98 28.79 128.81 34.76 130.51 28.96 129.53 32.62 133.73 28.7 129.72 24.2 133.97 27.98 129.53 21.38 130.73 28.07 128.94 26.37 122.69"/><path class="cls-15" d="M11.69,113a13,13,0,0,0-2-3.48s-1.29-.85-1.86-.16l-1.43,2-2.33.79c-.82.36-.43,1.77-.39,1.8a13.4,13.4,0,0,0,2.83,2.91A9.26,9.26,0,0,0,11,119.2l.88-.66.88-.66A9.27,9.27,0,0,0,11.69,113Z"/><path class="cls-15" d="M10.7,119.27A8.67,8.67,0,0,0,7,122.48a12.67,12.67,0,0,0-2,3.39s-.08,1.51.81,1.66l2.45.22,1.86,1.62c.72.53,1.75-.52,1.76-.57A12.67,12.67,0,0,0,12.95,125a8.67,8.67,0,0,0-.24-4.88l-1-.43Z"/><path class="cls-15" d="M20.65,114.28a12.67,12.67,0,0,0-3.81,1,8.67,8.67,0,0,0-4.11,2.64l.13,1.09.13,1.09a8.67,8.67,0,0,0,4.62,1.58,12.67,12.67,0,0,0,3.93,0s1.34-.69,1-1.53l-1-2.23.47-2.42C22.12,114.62,20.7,114.26,20.65,114.28Z"/><polygon class="cls-16" points="10.64 119.1 12.78 117.53 13.13 120.19 10.33 119.17 10.64 119.1"/><polygon class="cls-17" points="6.44 115.03 11.61 118.39 9.85 112.84 12.06 118.47 17.84 116.24 12.62 118.95 18.07 120.1 12.53 119.26 11.49 125.36 11.84 119.53 7.29 124.46 11.56 119.01 6.44 115.03"/><path class="cls-18" d="M17.66,116.35A13,13,0,0,0,19.89,113s.18-1.53-.69-1.74l-2.43-.38L15,109.18c-.69-.57-1.78.41-1.79.46a13.37,13.37,0,0,0-1.34,3.83,12.24,12.24,0,0,0-.12,5l1,.49,1,.49A12.25,12.25,0,0,0,17.66,116.35Z"/><path class="cls-18" d="M11.6,118.27a8.67,8.67,0,0,0-4.52-1.86,12.67,12.67,0,0,0-3.92-.28s-1.38.61-1.13,1.47l.9,2.29-.62,2.39c-.15.88,1.25,1.33,1.3,1.32a12.67,12.67,0,0,0,3.86-.75,8.67,8.67,0,0,0,4.26-2.39l-.07-1.09Z"/><path class="cls-18" d="M20.51,124.95a12.67,12.67,0,0,0-2.58-3,8.67,8.67,0,0,0-4.2-2.49l-.91.6-.91.6a8.67,8.67,0,0,0,.65,4.84,12.67,12.67,0,0,0,1.72,3.54s1.22.89,1.83.24l1.54-1.93,2.37-.66C20.86,126.42,20.55,125,20.51,124.95Z"/><polygon class="cls-18" points="11.72 118.14 14.09 119.36 11.86 120.86 11.52 117.9 11.72 118.14"/><polygon class="cls-17" points="13.49 112.57 12.8 118.69 16.97 114.64 12.92 119.14 17.5 123.31 12.75 119.85 14.15 125.25 12.43 119.91 6.51 121.7 11.87 119.41 5.43 117.54 12.21 118.93 13.49 112.57"/><path class="cls-19" d="M15.47,125a8.5,8.5,0,0,0-2.16-1.45s-1-.12-1.13.45l-.25,1.58-1.13,1.14c-.37.45.27,1.16.3,1.16a8.73,8.73,0,0,0,2.5.87,6,6,0,0,0,3.26.08l.32-.64.32-.64A6,6,0,0,0,15.47,125Z"/><path class="cls-19" d="M16.72,129a5.65,5.65,0,0,0-1.21,2.94,8.25,8.25,0,0,0-.18,2.56s.39.9,1,.73l1.49-.59,1.55.4c.58.1.87-.81.86-.84a8.25,8.25,0,0,0-.49-2.52,5.65,5.65,0,0,0-1.56-2.78l-.71,0Z"/><path class="cls-19" d="M21.07,123.19a8.25,8.25,0,0,0-1.94,1.68,5.65,5.65,0,0,0-1.63,2.74l.39.6.39.6a5.65,5.65,0,0,0,3.16-.42,8.25,8.25,0,0,0,2.3-1.12s.58-.79.16-1.19l-1.26-1-.43-1.55C22,123,21.09,123.16,21.07,123.19Z"/><polygon class="cls-16" points="16.64 128.91 17.43 127.38 18.41 128.83 16.48 129.05 16.64 128.91"/><polygon class="cls-20" points="13.01 127.77 17 128.22 14.36 125.5 17.29 128.13 20.01 125.15 17.75 128.25 21.27 127.33 17.79 128.46 18.96 132.31 17.47 128.82 16.25 133.01 17.15 128.6 13.01 127.77"/><path class="cls-16" d="M19.93,125.52a9.23,9.23,0,0,0,.33-2.71s-.34-1-.91-.87l-1.53.45-1.53-.52c-.57-.13-.92.75-.91.78a10.23,10.23,0,0,0,.33,2.87,14.55,14.55,0,0,0,1.39,3.2h1.43A14.6,14.6,0,0,0,19.93,125.52Z"/><path class="cls-16" d="M17,128.15a5.65,5.65,0,0,0-3.18.23,8.25,8.25,0,0,0-2.37,1s-.63.76-.23,1.18l1.19,1.07.33,1.57c.17.56,1.12.41,1.14.39a8.25,8.25,0,0,0,2-1.56,5.65,5.65,0,0,0,1.79-2.63l-.36-.62Z"/><path class="cls-16" d="M24.1,129.45a8.25,8.25,0,0,0-2.37-1,5.65,5.65,0,0,0-3.18-.23l-.36.62-.36.62a5.65,5.65,0,0,0,1.79,2.63,8.25,8.25,0,0,0,2,1.56s1,.17,1.14-.39l.33-1.57,1.19-1.07C24.73,130.21,24.13,129.46,24.1,129.45Z"/><polygon class="cls-16" points="16.99 128.04 18.73 128.06 17.87 129.59 16.8 127.96 16.99 128.04"/><polygon class="cls-20" points="16.4 124.28 17.78 128.05 19.03 124.47 17.98 128.27 21.86 129.38 18.09 128.74 20.48 131.48 17.92 128.87 14.99 131.63 17.45 128.74 13.15 129.52 17.51 128.36 16.4 124.28"/><path class="cls-15" d="M22.94,19.66a13,13,0,0,1-3.32,2.23s-1.53.18-1.74-.69l-.38-2.43L15.77,17c-.57-.69.41-1.78.46-1.79a13.4,13.4,0,0,1,3.83-1.34,9.26,9.26,0,0,1,5-.12l.49,1,.49,1A9.27,9.27,0,0,1,22.94,19.66Z"/><path class="cls-15" d="M24.86,13.6A8.67,8.67,0,0,1,23,9.08a12.67,12.67,0,0,1-.28-3.92S23.33,3.78,24.19,4l2.29.9,2.39-.62c.88-.15,1.33,1.25,1.32,1.3a12.67,12.67,0,0,1-.75,3.86A8.67,8.67,0,0,1,27,13.73L26,13.67Z"/><path class="cls-15" d="M31.54,22.52a12.67,12.67,0,0,1-3-2.58,8.67,8.67,0,0,1-2.49-4.2l.6-.91.6-.91a8.67,8.67,0,0,1,4.84.65,12.67,12.67,0,0,1,3.54,1.72s.89,1.22.24,1.83L34,19.65,33.32,22C33,22.86,31.57,22.55,31.54,22.52Z"/><polygon class="cls-16" points="24.73 13.72 25.95 16.09 27.45 13.86 24.49 13.52 24.73 13.72"/><polygon class="cls-17" points="19.16 15.49 25.28 14.8 21.23 18.97 25.73 14.92 29.91 19.5 26.44 14.75 31.84 16.15 26.5 14.43 28.3 8.51 26 13.87 24.14 7.43 25.52 14.21 19.16 15.49"/><path class="cls-18" d="M29.79,19.29a13.14,13.14,0,0,1,.51,4s-.52,1.46-1.39,1.26l-2.34-.74-2.34.77c-.87.2-1.41-1.16-1.39-1.21a13.61,13.61,0,0,1,.51-4.07,12.49,12.49,0,0,1,2.13-4.56h2.19A12.51,12.51,0,0,1,29.79,19.29Z"/><path class="cls-18" d="M25.23,14.9a8.67,8.67,0,0,1-4.87-.35A12.67,12.67,0,0,1,16.72,13s-1-1.16-.35-1.81L18.2,9.57l.51-2.41c.26-.86,1.71-.64,1.75-.6A12.67,12.67,0,0,1,23.58,9a8.67,8.67,0,0,1,2.74,4l-.55.95Z"/><path class="cls-18" d="M36.18,12.9a12.67,12.67,0,0,1-3.63,1.51,8.67,8.67,0,0,1-4.87.35l-.55-.95-.55-.95a8.67,8.67,0,0,1,2.74-4,12.67,12.67,0,0,1,3.12-2.39s1.49-.26,1.75.6l.51,2.41,1.83,1.65C37.15,11.74,36.23,12.89,36.18,12.9Z"/><polygon class="cls-18" points="25.28 15.07 27.94 15.03 26.62 12.69 24.99 15.19 25.28 15.07"/><polygon class="cls-17" points="24.37 20.84 26.48 15.05 28.41 20.54 26.79 14.71 32.76 13.02 26.96 14 30.62 9.79 26.7 13.8 22.2 9.55 25.98 14 19.38 12.79 26.07 14.58 24.37 20.84"/><path class="cls-15" d="M9.69,30.54a13,13,0,0,1-2,3.48s-1.29.85-1.86.16l-1.43-2-2.33-.79c-.82-.36-.43-1.77-.39-1.8a13.4,13.4,0,0,1,2.83-2.91A9.26,9.26,0,0,1,9,24.32l.88.66.88.66A9.27,9.27,0,0,1,9.69,30.54Z"/><path class="cls-15" d="M8.7,24.26A8.67,8.67,0,0,1,5,21a12.67,12.67,0,0,1-2-3.39s-.08-1.51.81-1.66l2.45-.22,1.86-1.62c.72-.53,1.75.52,1.76.57a12.67,12.67,0,0,1,1.06,3.79,8.67,8.67,0,0,1-.24,4.88l-1,.43Z"/><path class="cls-15" d="M18.65,29.25a12.67,12.67,0,0,1-3.81-1,8.67,8.67,0,0,1-4.11-2.64l.13-1.09L11,23.45a8.67,8.67,0,0,1,4.62-1.58,12.67,12.67,0,0,1,3.93,0s1.34.69,1,1.53l-1,2.23L20,28C20.12,28.9,18.7,29.27,18.65,29.25Z"/><polygon class="cls-16" points="8.64 24.43 10.78 26 11.13 23.33 8.33 24.35 8.64 24.43"/><polygon class="cls-17" points="4.44 28.49 9.61 25.14 7.84 30.68 10.06 25.05 15.84 27.28 10.62 24.58 16.07 23.42 10.53 24.27 9.49 18.17 9.84 23.99 5.29 19.07 9.56 24.51 4.44 28.49"/><path class="cls-18" d="M15.66,27.18a13,13,0,0,1,2.23,3.32s.18,1.53-.69,1.74l-2.43.38L13,34.35c-.69.57-1.78-.41-1.79-.46a13.37,13.37,0,0,1-1.34-3.83,12.24,12.24,0,0,1-.12-5l1-.49,1-.49A12.25,12.25,0,0,1,15.66,27.18Z"/><path class="cls-18" d="M9.6,25.25a8.67,8.67,0,0,1-4.52,1.86,12.67,12.67,0,0,1-3.92.28S-.22,26.79,0,25.93l.9-2.29L.32,21.25c-.15-.88,1.25-1.33,1.3-1.32a12.67,12.67,0,0,1,3.86.75,8.67,8.67,0,0,1,4.26,2.39l-.07,1.09Z"/><path class="cls-18" d="M18.51,18.58a12.67,12.67,0,0,1-2.58,3A8.67,8.67,0,0,1,11.73,24l-.91-.6-.91-.6A8.67,8.67,0,0,1,10.56,18a12.67,12.67,0,0,1,1.72-3.54s1.22-.89,1.83-.24l1.54,1.93L18,16.8C18.86,17.11,18.55,18.54,18.51,18.58Z"/><polygon class="cls-18" points="9.72 25.38 12.09 24.16 9.86 22.66 9.52 25.63 9.72 25.38"/><polygon class="cls-17" points="11.49 30.95 10.8 24.83 14.97 28.89 10.92 24.39 15.5 20.21 10.75 23.68 12.15 18.28 10.43 23.62 4.51 21.82 9.87 24.11 3.43 25.98 10.21 24.6 11.49 30.95"/><path class="cls-19" d="M13.47,18.48a8.5,8.5,0,0,1-2.16,1.45s-1,.12-1.13-.45L9.93,17.9,8.8,16.76c-.37-.45.27-1.16.3-1.16a8.73,8.73,0,0,1,2.5-.87,6,6,0,0,1,3.26-.08l.32.64.32.64A6,6,0,0,1,13.47,18.48Z"/><path class="cls-19" d="M14.72,14.53a5.65,5.65,0,0,1-1.21-2.94A8.25,8.25,0,0,1,13.33,9s.39-.9,1-.73l1.49.59,1.55-.4c.58-.1.87.81.86.84a8.25,8.25,0,0,1-.49,2.52,5.65,5.65,0,0,1-1.56,2.78l-.71,0Z"/><path class="cls-19" d="M19.07,20.34a8.25,8.25,0,0,1-1.94-1.68,5.65,5.65,0,0,1-1.63-2.74l.39-.6.39-.6a5.65,5.65,0,0,1,3.16.42,8.25,8.25,0,0,1,2.3,1.12s.58.79.16,1.19l-1.26,1L20.23,20C20,20.56,19.09,20.36,19.07,20.34Z"/><polygon class="cls-16" points="14.64 14.61 15.43 16.15 16.41 14.7 14.48 14.48 14.64 14.61"/><polygon class="cls-20" points="11.01 15.76 15 15.31 12.36 18.03 15.29 15.39 18.01 18.37 15.75 15.28 19.27 16.19 15.79 15.07 16.96 11.21 15.47 14.71 14.25 10.51 15.15 14.93 11.01 15.76"/><path class="cls-16" d="M17.93,18a9.36,9.36,0,0,1,.33,2.73s-.34,1-.91.89l-1.53-.45-1.53.52c-.57.13-.92-.75-.91-.78A10.49,10.49,0,0,1,13.73,18a15,15,0,0,1,1.39-3.24h1.43A15,15,0,0,1,17.93,18Z"/><path class="cls-16" d="M15,15.37a5.65,5.65,0,0,1-3.18-.23,8.25,8.25,0,0,1-2.37-1s-.63-.76-.23-1.18l1.19-1.07.33-1.57c.17-.56,1.12-.41,1.14-.39a8.25,8.25,0,0,1,2,1.56,5.65,5.65,0,0,1,1.79,2.63l-.36.62Z"/><path class="cls-16" d="M22.1,14.08a8.25,8.25,0,0,1-2.37,1,5.65,5.65,0,0,1-3.18.23l-.36-.62-.36-.62a5.65,5.65,0,0,1,1.79-2.63,8.25,8.25,0,0,1,2-1.56s1-.17,1.14.39l.33,1.57,1.19,1.07C22.73,13.32,22.13,14.07,22.1,14.08Z"/><polygon class="cls-16" points="14.99 15.48 16.73 15.46 15.87 13.94 14.8 15.57 14.99 15.48"/><polygon class="cls-20" points="14.4 19.25 15.78 15.48 17.03 19.05 15.98 15.26 19.86 14.15 16.09 14.79 18.48 12.05 15.92 14.66 12.99 11.89 15.45 14.79 11.15 14 15.51 15.17 14.4 19.25"/><path class="cls-15" d="M134.81,124.86a13,13,0,0,1,3.32-2.23s1.53-.18,1.74.69l.38,2.43,1.73,1.75c.57.69-.41,1.78-.46,1.79a13.4,13.4,0,0,1-3.83,1.34,9.26,9.26,0,0,1-5,.12l-.49-1-.49-1A9.27,9.27,0,0,1,134.81,124.86Z"/><path class="cls-15" d="M132.89,130.92a8.67,8.67,0,0,1,1.86,4.52,12.67,12.67,0,0,1,.28,3.92s-.61,1.38-1.47,1.13l-2.29-.9-2.39.62c-.88.15-1.33-1.25-1.32-1.3a12.67,12.67,0,0,1,.75-3.86,8.67,8.67,0,0,1,2.39-4.26l1.09.07Z"/><path class="cls-15" d="M126.21,122a12.67,12.67,0,0,1,3,2.58,8.67,8.67,0,0,1,2.49,4.2l-.6.91-.6.91a8.67,8.67,0,0,1-4.84-.65,12.67,12.67,0,0,1-3.54-1.72s-.89-1.22-.24-1.83l1.93-1.54.66-2.37C124.74,121.66,126.18,122,126.21,122Z"/><polygon class="cls-16" points="133.01 130.8 131.8 128.44 130.29 130.66 133.26 131.01 133.01 130.8"/><polygon class="cls-17" points="138.58 129.04 132.47 129.73 136.52 125.56 132.02 129.6 127.84 125.03 131.31 129.78 125.91 128.38 131.25 130.1 129.45 136.02 131.74 130.65 133.61 137.09 132.23 130.31 138.58 129.04"/><path class="cls-18" d="M128,125.2a13,13,0,0,1-.51-4s.52-1.45,1.39-1.24l2.34.74,2.34-.77c.87-.2,1.41,1.16,1.39,1.21a13.37,13.37,0,0,1-.51,4,12.24,12.24,0,0,1-2.13,4.52h-2.19A12.25,12.25,0,0,1,128,125.2Z"/><path class="cls-18" d="M132.52,129.63a8.67,8.67,0,0,1,4.87.35,12.67,12.67,0,0,1,3.63,1.51s1,1.16.35,1.81L139.55,135l-.51,2.41c-.26.86-1.71.64-1.75.6a12.67,12.67,0,0,1-3.12-2.39,8.67,8.67,0,0,1-2.74-4l.55-.95Z"/><path class="cls-18" d="M121.56,131.62a12.67,12.67,0,0,1,3.63-1.51,8.67,8.67,0,0,1,4.87-.35l.55.95.55.95a8.67,8.67,0,0,1-2.74,4,12.67,12.67,0,0,1-3.12,2.39s-1.49.26-1.75-.6l-.51-2.41-1.83-1.65C120.6,132.78,121.52,131.63,121.56,131.62Z"/><polygon class="cls-18" points="132.47 129.46 129.81 129.49 131.13 131.83 132.76 129.33 132.47 129.46"/><polygon class="cls-17" points="133.38 123.69 131.26 129.47 129.34 123.98 130.95 129.81 124.99 131.51 130.79 130.53 127.13 134.73 131.05 130.72 135.55 134.97 131.77 130.53 138.36 131.73 131.68 129.94 133.38 123.69"/><path class="cls-15" d="M148.06,114a13,13,0,0,1,2-3.48s1.29-.85,1.86-.16l1.43,2,2.33.79c.82.36.43,1.77.39,1.8a13.4,13.4,0,0,1-2.83,2.91,9.26,9.26,0,0,1-4.42,2.34l-.88-.66-.88-.66A9.27,9.27,0,0,1,148.06,114Z"/><path class="cls-15" d="M149.05,120.27a8.67,8.67,0,0,1,3.68,3.21,12.67,12.67,0,0,1,2,3.39s.08,1.51-.81,1.66l-2.45.22-1.86,1.62c-.72.53-1.75-.52-1.76-.57A12.67,12.67,0,0,1,146.8,126a8.67,8.67,0,0,1,.24-4.88l1-.43Z"/><path class="cls-15" d="M139.1,115.28a12.67,12.67,0,0,1,3.81,1A8.67,8.67,0,0,1,147,118.9l-.13,1.09-.13,1.09a8.67,8.67,0,0,1-4.62,1.58,12.67,12.67,0,0,1-3.93,0s-1.34-.69-1-1.53l1-2.23-.47-2.42C137.63,115.62,139,115.26,139.1,115.28Z"/><polygon class="cls-16" points="149.11 120.1 146.97 118.53 146.62 121.19 149.42 120.17 149.11 120.1"/><polygon class="cls-17" points="153.31 116.03 148.14 119.39 149.9 113.84 147.69 119.47 141.91 117.24 147.13 119.95 141.67 121.1 147.22 120.26 148.26 126.36 147.91 120.53 152.46 125.46 148.19 120.01 153.31 116.03"/><path class="cls-18" d="M142.08,117.35a13,13,0,0,1-2.23-3.32s-.18-1.53.69-1.74l2.43-.38,1.75-1.73c.69-.57,1.78.41,1.79.46a13.37,13.37,0,0,1,1.34,3.83,12.24,12.24,0,0,1,.12,5l-1,.49-1,.49A12.25,12.25,0,0,1,142.08,117.35Z"/><path class="cls-18" d="M148.15,119.27a8.67,8.67,0,0,1,4.52-1.86,12.67,12.67,0,0,1,3.92-.28s1.38.61,1.13,1.47l-.9,2.29.62,2.39c.15.88-1.25,1.33-1.3,1.32a12.67,12.67,0,0,1-3.86-.75,8.67,8.67,0,0,1-4.26-2.39l.07-1.09Z"/><path class="cls-18" d="M139.23,125.95a12.67,12.67,0,0,1,2.58-3,8.67,8.67,0,0,1,4.2-2.49l.91.6.91.6a8.67,8.67,0,0,1-.65,4.84,12.67,12.67,0,0,1-1.72,3.54s-1.22.89-1.83.24l-1.54-1.93-2.37-.66C138.89,127.42,139.2,126,139.23,125.95Z"/><polygon class="cls-18" points="148.02 119.14 145.66 120.36 147.89 121.86 148.23 118.9 148.02 119.14"/><polygon class="cls-17" points="146.26 113.57 146.95 119.69 142.78 115.64 146.83 120.14 142.25 124.31 147 120.85 145.6 126.25 147.32 120.91 153.24 122.7 147.88 120.41 154.31 118.54 147.53 119.93 146.26 113.57"/><path class="cls-19" d="M144.28,126a8.5,8.5,0,0,1,2.16-1.45s1-.12,1.13.45l.25,1.58,1.13,1.14c.37.45-.27,1.16-.3,1.16a8.73,8.73,0,0,1-2.5.87,6,6,0,0,1-3.26.08l-.32-.64-.32-.64A6,6,0,0,1,144.28,126Z"/><path class="cls-19" d="M143,130a5.65,5.65,0,0,1,1.21,2.94,8.25,8.25,0,0,1,.18,2.56s-.39.9-1,.73l-1.49-.59-1.55.4c-.58.1-.87-.81-.86-.84a8.25,8.25,0,0,1,.49-2.52,5.65,5.65,0,0,1,1.56-2.78l.71,0Z"/><path class="cls-19" d="M138.68,124.19a8.25,8.25,0,0,1,1.94,1.68,5.65,5.65,0,0,1,1.63,2.74l-.39.6-.39.6a5.65,5.65,0,0,1-3.16-.42,8.25,8.25,0,0,1-2.3-1.12s-.58-.79-.16-1.19l1.26-1,.43-1.55C137.72,124,138.65,124.16,138.68,124.19Z"/><polygon class="cls-16" points="143.11 129.91 142.32 128.38 141.34 129.83 143.27 130.05 143.11 129.91"/><polygon class="cls-20" points="146.74 128.77 142.75 129.22 145.39 126.5 142.46 129.13 139.74 126.15 142 129.25 138.48 128.34 141.96 129.46 140.79 133.31 142.28 129.82 143.5 134.01 142.6 129.6 146.74 128.77"/><path class="cls-16" d="M139.81,126.52a9.23,9.23,0,0,1-.33-2.71s.34-1,.91-.87l1.53.45,1.53-.52c.57-.13.92.75.91.78a10.23,10.23,0,0,1-.33,2.87,14.55,14.55,0,0,1-1.39,3.2H141.2A14.6,14.6,0,0,1,139.81,126.52Z"/><path class="cls-16" d="M142.79,129.15a5.65,5.65,0,0,1,3.18.23,8.25,8.25,0,0,1,2.37,1s.63.76.23,1.18l-1.19,1.07-.33,1.57c-.17.56-1.12.41-1.14.39a8.25,8.25,0,0,1-2-1.56,5.65,5.65,0,0,1-1.79-2.63l.36-.62Z"/><path class="cls-16" d="M135.65,130.45a8.25,8.25,0,0,1,2.37-1,5.65,5.65,0,0,1,3.18-.23l.36.62.36.62a5.65,5.65,0,0,1-1.79,2.63,8.25,8.25,0,0,1-2,1.56s-1,.17-1.14-.39l-.33-1.57-1.19-1.07C135,131.21,135.62,130.46,135.65,130.45Z"/><polygon class="cls-16" points="142.75 129.04 141.02 129.06 141.88 130.59 142.95 128.96 142.75 129.04"/><polygon class="cls-20" points="143.35 125.28 141.97 129.05 140.72 125.47 141.77 129.27 137.88 130.38 141.66 129.74 139.27 132.48 141.83 129.87 144.76 132.63 142.3 129.74 146.6 130.52 142.24 129.36 143.35 125.28"/><path class="cls-15" d="M133.81,15.66a13,13,0,0,0,3.32,2.23s1.53.18,1.74-.69l.38-2.43L141,13c.57-.69-.41-1.78-.46-1.79a13.4,13.4,0,0,0-3.83-1.34,9.26,9.26,0,0,0-5-.12l-.49,1-.49,1A9.27,9.27,0,0,0,133.81,15.66Z"/><path class="cls-15" d="M131.89,9.6a8.67,8.67,0,0,0,1.86-4.52A12.67,12.67,0,0,0,134,1.16S133.42-.22,132.56,0l-2.29.9L127.88.32c-.88-.15-1.33,1.25-1.32,1.3a12.67,12.67,0,0,0,.75,3.86,8.67,8.67,0,0,0,2.39,4.26l1.09-.07Z"/><path class="cls-15" d="M125.21,18.52a12.67,12.67,0,0,0,3-2.58,8.67,8.67,0,0,0,2.49-4.2l-.6-.91-.6-.91a8.67,8.67,0,0,0-4.84.65,12.67,12.67,0,0,0-3.54,1.72s-.89,1.22-.24,1.83l1.93,1.54.66,2.37C123.74,18.86,125.18,18.55,125.21,18.52Z"/><polygon class="cls-16" points="132.01 9.72 130.8 12.09 129.29 9.86 132.26 9.52 132.01 9.72"/><polygon class="cls-17" points="137.58 11.49 131.47 10.8 135.52 14.97 131.02 10.92 126.84 15.5 130.31 10.75 124.91 12.15 130.25 10.43 128.45 4.51 130.74 9.87 132.61 3.43 131.23 10.21 137.58 11.49"/><path class="cls-18" d="M127,15.29a13.14,13.14,0,0,0-.51,4s.52,1.46,1.39,1.26l2.34-.74,2.34.77c.87.2,1.41-1.16,1.39-1.21a13.61,13.61,0,0,0-.51-4.07,12.49,12.49,0,0,0-2.13-4.56h-2.19A12.51,12.51,0,0,0,127,15.29Z"/><path class="cls-18" d="M131.52,10.9a8.67,8.67,0,0,0,4.87-.35A12.67,12.67,0,0,0,140,9s1-1.16.35-1.81l-1.83-1.65L138,3.16c-.26-.86-1.71-.64-1.75-.6A12.67,12.67,0,0,0,133.17,5a8.67,8.67,0,0,0-2.74,4l.55.95Z"/><path class="cls-18" d="M120.56,8.9a12.67,12.67,0,0,0,3.63,1.51,8.67,8.67,0,0,0,4.87.35l.55-.95.55-.95a8.67,8.67,0,0,0-2.74-4,12.67,12.67,0,0,0-3.12-2.39s-1.49-.26-1.75.6L122,5.44l-1.83,1.65C119.6,7.74,120.52,8.89,120.56,8.9Z"/><polygon class="cls-18" points="131.47 11.07 128.81 11.03 130.13 8.69 131.76 11.19 131.47 11.07"/><polygon class="cls-17" points="132.38 16.84 130.26 11.05 128.34 16.54 129.95 10.71 123.99 9.02 129.79 10 126.13 5.79 130.05 9.8 134.55 5.55 130.77 10 137.36 8.79 130.68 10.58 132.38 16.84"/><path class="cls-15" d="M147.06,26.54A13,13,0,0,0,149,30s1.29.85,1.86.16l1.43-2,2.33-.79c.82-.36.43-1.77.39-1.8a13.4,13.4,0,0,0-2.83-2.91,9.26,9.26,0,0,0-4.42-2.34l-.88.66-.88.66A9.27,9.27,0,0,0,147.06,26.54Z"/><path class="cls-15" d="M148.05,20.26A8.67,8.67,0,0,0,151.73,17a12.67,12.67,0,0,0,2-3.39s.08-1.51-.81-1.66l-2.45-.22-1.86-1.62c-.72-.53-1.75.52-1.76.57a12.67,12.67,0,0,0-1.06,3.79A8.67,8.67,0,0,0,146,19.4l1,.43Z"/><path class="cls-15" d="M138.1,25.25a12.67,12.67,0,0,0,3.81-1A8.67,8.67,0,0,0,146,21.63l-.13-1.09-.13-1.09a8.67,8.67,0,0,0-4.62-1.58,12.67,12.67,0,0,0-3.93,0s-1.34.69-1,1.53l1,2.23L136.72,24C136.63,24.9,138,25.27,138.1,25.25Z"/><polygon class="cls-16" points="148.11 20.43 145.97 22 145.62 19.33 148.42 20.35 148.11 20.43"/><polygon class="cls-17" points="152.31 24.49 147.14 21.14 148.9 26.68 146.69 21.05 140.91 23.28 146.13 20.58 140.67 19.42 146.22 20.27 147.26 14.17 146.91 19.99 151.46 15.06 147.19 20.51 152.31 24.49"/><path class="cls-18" d="M141.08,23.18a13,13,0,0,0-2.23,3.32s-.18,1.53.69,1.74l2.43.38,1.75,1.73c.69.57,1.78-.41,1.79-.46a13.37,13.37,0,0,0,1.34-3.83,12.24,12.24,0,0,0,.12-5l-1-.49-1-.49A12.25,12.25,0,0,0,141.08,23.18Z"/><path class="cls-18" d="M147.15,21.25a8.67,8.67,0,0,0,4.52,1.86,12.67,12.67,0,0,0,3.92.28s1.38-.61,1.13-1.47l-.9-2.29.62-2.39c.15-.88-1.25-1.33-1.3-1.32a12.67,12.67,0,0,0-3.86.75A8.67,8.67,0,0,0,147,19.07l.07,1.09Z"/><path class="cls-18" d="M138.23,14.58a12.67,12.67,0,0,0,2.58,3A8.67,8.67,0,0,0,145,20l.91-.6.91-.6a8.67,8.67,0,0,0-.65-4.84,12.67,12.67,0,0,0-1.72-3.54s-1.22-.89-1.83-.24l-1.54,1.93-2.37.66C137.89,13.11,138.2,14.54,138.23,14.58Z"/><polygon class="cls-18" points="147.02 21.38 144.66 20.16 146.89 18.66 147.23 21.63 147.02 21.38"/><polygon class="cls-17" points="145.26 26.95 145.95 20.83 141.78 24.89 145.83 20.39 141.25 16.21 146 19.68 144.6 14.28 146.32 19.62 152.24 17.82 146.88 20.11 153.31 21.98 146.53 20.6 145.26 26.95"/><path class="cls-19" d="M143.28,14.48a8.5,8.5,0,0,0,2.16,1.45s1,.12,1.13-.45l.25-1.58L148,12.76c.37-.45-.27-1.16-.3-1.16a8.73,8.73,0,0,0-2.5-.87,6,6,0,0,0-3.26-.08l-.32.64-.32.64A6,6,0,0,0,143.28,14.48Z"/><path class="cls-19" d="M142,10.53a5.65,5.65,0,0,0,1.21-2.94A8.25,8.25,0,0,0,143.42,5s-.39-.9-1-.73L141,4.88l-1.55-.4c-.58-.1-.87.81-.86.84A8.25,8.25,0,0,0,139,7.84a5.65,5.65,0,0,0,1.56,2.78l.71,0Z"/><path class="cls-19" d="M137.68,16.34a8.25,8.25,0,0,0,1.94-1.68,5.65,5.65,0,0,0,1.63-2.74l-.39-.6-.39-.6a5.65,5.65,0,0,0-3.16.42,8.25,8.25,0,0,0-2.3,1.12s-.58.79-.16,1.19l1.26,1,.43,1.55C136.72,16.56,137.65,16.36,137.68,16.34Z"/><polygon class="cls-16" points="142.11 10.61 141.32 12.15 140.34 10.7 142.27 10.48 142.11 10.61"/><polygon class="cls-20" points="145.74 11.76 141.75 11.31 144.39 14.03 141.46 11.39 138.74 14.37 141 11.28 137.48 12.19 140.96 11.07 139.79 7.21 141.28 10.71 142.5 6.51 141.6 10.93 145.74 11.76"/><path class="cls-16" d="M138.81,14a9.36,9.36,0,0,0-.33,2.73s.34,1,.91.89l1.53-.45,1.53.52c.57.13.92-.75.91-.78A10.49,10.49,0,0,0,143,14a15,15,0,0,0-1.39-3.24H140.2A15,15,0,0,0,138.81,14Z"/><path class="cls-16" d="M141.79,11.37a5.65,5.65,0,0,0,3.18-.23,8.25,8.25,0,0,0,2.37-1s.63-.76.23-1.18l-1.19-1.07L146,6.34c-.17-.56-1.12-.41-1.14-.39a8.25,8.25,0,0,0-2,1.56,5.65,5.65,0,0,0-1.79,2.63l.36.62Z"/><path class="cls-16" d="M134.65,10.08a8.25,8.25,0,0,0,2.37,1,5.65,5.65,0,0,0,3.18.23l.36-.62.36-.62a5.65,5.65,0,0,0-1.79-2.63,8.25,8.25,0,0,0-2-1.56s-1-.17-1.14.39l-.33,1.57-1.19,1.07C134,9.32,134.62,10.07,134.65,10.08Z"/><polygon class="cls-16" points="141.75 11.48 140.02 11.46 140.88 9.94 141.95 11.57 141.75 11.48"/><polygon class="cls-20" points="142.35 15.24 140.97 11.48 139.72 15.05 140.77 11.26 136.88 10.15 140.66 10.79 138.27 8.05 140.83 10.66 143.76 7.89 141.3 10.79 145.6 10 141.24 11.17 142.35 15.24"/></g></g></svg>