<svg viewBox="0 0 164.26 164.81"><defs><style>.cls-1{fill:#fff;stroke:#000;stroke-miterlimit:10;opacity:0.8;}.cls-2{font-size:12px;font-family:MyriadPro-Regular, Myriad Pro;}.cls-3{letter-spacing:-0.01em;}.cls-4{letter-spacing:0.01em;}.cls-5{letter-spacing:-0.01em;}.cls-6{letter-spacing:-0.01em;}.cls-7{letter-spacing:0em;}.cls-8{letter-spacing:0em;}.cls-9{letter-spacing:0.02em;}.cls-10{letter-spacing:0em;}.cls-11{letter-spacing:0.01em;}.cls-12{letter-spacing:-0.01em;}.cls-13{letter-spacing:0em;}.cls-14{letter-spacing:-0.03em;}.cls-15{letter-spacing:-0.01em;}.cls-16{letter-spacing:-0.01em;}.cls-17{letter-spacing:0.02em;}.cls-18{letter-spacing:-0.03em;}.cls-19{letter-spacing:0.02em;}.cls-20{letter-spacing:0em;}.cls-21{fill:#13add6;}.cls-22{fill:#f65973;}.cls-23{fill:#31859b;}.cls-24{fill:#5bcdf4;}.cls-25{fill:#ca465a;}.cls-26{fill:#9c3043;}</style></defs><title>Asset 24</title><g id="Layer_2" data-name="Layer 2"><g id="Speech4"><path class="cls-1" d="M140.57,136.14H129.9l-27.5,26.42,12.5-26.25-86.33-.17a12,12,0,0,1-12-12V24.8a12,12,0,0,1,12-12h112a12,12,0,0,1,12,12v99.33A12,12,0,0,1,140.57,136.14Z"/><text class="cls-2" transform="translate(24.87 43.08)"><tspan class="cls-3">A</tspan><tspan class="cls-4" x="7.26" y="0">f</tspan><tspan class="cls-5" x="10.9" y="0">t</tspan><tspan x="14.8" y="0">er su</tspan><tspan class="cls-6" x="38.64" y="0">ff</tspan><tspan x="45.48" y="0">e</tspan><tspan class="cls-7" x="51.49" y="0">r</tspan><tspan class="cls-8" x="55.46" y="0">ing a hea</tspan><tspan class="cls-9" x="100.97" y="0">r</tspan><tspan x="105.18" y="0">t </tspan><tspan class="cls-10" x="0" y="14.4">a</tspan><tspan x="5.74" y="14.4">ttac</tspan><tspan class="cls-11" x="24.84" y="14.4">k</tspan><tspan x="30.64" y="14.4">, </tspan><tspan class="cls-12" x="35.66" y="14.4">A</tspan><tspan x="42.86" y="14.4">quino </tspan><tspan class="cls-10" x="74.83" y="14.4">w</tspan><tspan class="cls-13" x="83.62" y="14.4">as se</tspan><tspan class="cls-10" x="107.46" y="14.4">n</tspan><tspan x="114.07" y="14.4">t </tspan><tspan class="cls-5" x="0" y="28.8">t</tspan><tspan x="3.9" y="28.8">o the </tspan><tspan class="cls-14" x="32.22" y="28.8">U</tspan><tspan class="cls-8" x="39.66" y="28.8">.S. whe</tspan><tspan class="cls-15" x="74.59" y="28.8">r</tspan><tspan x="78.39" y="28.8">e he </tspan><tspan class="cls-16" x="0" y="43.2">c</tspan><tspan x="5.3" y="43.2">o</tspan><tspan class="cls-10" x="11.89" y="43.2">n</tspan><tspan x="18.5" y="43.2">tinued his ad</tspan><tspan class="cls-15" x="83.2" y="43.2">v</tspan><tspan x="88.85" y="43.2">oca</tspan><tspan class="cls-17" x="106.59" y="43.2">c</tspan><tspan x="112.19" y="43.2">y</tspan><tspan class="cls-3"><tspan x="0" y="57.6">b</tspan><tspan class="cls-13" x="6.74" y="57.6">y p</tspan><tspan class="cls-15" x="21.77" y="57.6">r</tspan><tspan class="cls-8" x="25.57" y="57.6">eaching </tspan><tspan class="cls-16" x="68.12" y="57.6">t</tspan><tspan class="cls-8" x="72.02" y="57.6">o the</tspan></tspan><tspan class="cls-18" x="0" y="72">F</tspan><tspan x="5.53" y="72">ilipin</tspan><tspan class="cls-19" x="30.28" y="72">o</tspan><tspan class="cls-10" x="37.04" y="72">-</tspan><tspan class="cls-20" x="40.68" y="72">A</tspan><tspan x="47.99" y="72">me</tspan><tspan class="cls-7" x="64.01" y="72">r</tspan><tspan x="67.98" y="72">icans</tspan></text><path class="cls-21" d="M146,6.68c-1.51-2.14-2.67-4-3.82-4.69,0-.06-2.13-.94-2.82.23l-1.62,3.35-3.28,1.77c-1.13.75-.19,2.75-.12,2.79.79,1.1,2.74,2.24,5,3.63,2.91,1.83,6,2.5,7.18,2.37l1.14-1.2,1.14-1.2C148.85,12.51,148,9.49,146,6.68Z"/><path class="cls-21" d="M146.14,16.29A13.11,13.11,0,0,0,141.46,22c-1.1,2.37-2.07,4.2-2.13,5.56,0,.07.27,2.27,1.62,2.28l3.71-.29,3.18,1.94c1.21.61,2.48-1.22,2.48-1.29.56-1.24.52-3.3.62-5.92a13.11,13.11,0,0,0-1.58-7.22l-1.61-.39Z"/><path class="cls-21" d="M159.73,6.34c-1.35.14-3.12,1.2-5.44,2.42a13.11,13.11,0,0,0-5.46,5l.47,1.59.47,1.59a13.11,13.11,0,0,0,7.29,1.2c2.61-.23,4.67-.31,5.88-.93.08,0,1.83-1.36,1.16-2.54L162,11.57l.09-3.72C162,6.49,159.79,6.3,159.73,6.34Z"/><polygon class="cls-22" points="146.01 16.06 148.81 13.18 150 17.06 145.56 16.25 146.01 16.06"/><polygon class="cls-23" points="138.73 11.05 147.28 14.75 143.25 6.93 147.97 14.77 156.03 9.99 148.93 15.33 157.35 15.69 148.87 15.82 148.86 25.18 147.91 16.41 142.37 24.9 147.36 15.7 138.73 11.05"/><path class="cls-24" d="M155.81,10.13c1.24-2.3,2.34-4.13,2.48-5.48,0-.06-.12-2.31-1.47-2.4l-3.72,0L150,.16c-1.17-.68-2.55,1.06-2.55,1.14-.63,1.2-.76,3.39-1,6-.33,3.42.22,7.16,1.1,7.43l1.59.48,1.59.48C151.64,15.95,154.18,13.15,155.81,10.13Z"/><path class="cls-24" d="M147.24,14.58A13.11,13.11,0,0,0,140,12.94c-2.61.08-4.68,0-5.92.58-.08,0-1.91,1.25-1.31,2.47l1.92,3.19-.32,3.71c0,1.36,2.2,1.68,2.26,1.64,1.36-.05,3.19-1,5.57-2.09A13.11,13.11,0,0,0,148,17.81l-.37-1.61Z"/><path class="cls-24" d="M162.21,22.3c-.73-1.15-2.47-2.26-4.59-3.78a13.11,13.11,0,0,0-6.89-2.66L149.51,17l-1.21,1.13a13.11,13.11,0,0,0,2.19,7.06c1.37,2.23,2.36,4,3.46,4.84,0,.07,2,1,2.79-.1l1.81-3.26,3.37-1.58C163.1,24.4,162.28,22.34,162.21,22.3Z"/><polygon class="cls-24" points="147.39 14.36 151.22 15.58 148.28 18.38 147.02 14.04 147.39 14.36"/><polygon class="cls-23" points="148.62 5.61 149.13 14.91 154.33 7.82 149.42 15.54 157.3 20.62 149.34 16.65 152.79 24.34 148.88 16.81 140.5 20.98 147.93 16.21 137.86 15.05 148.32 15.41 148.62 5.61"/><path class="cls-25" d="M11.51,121.28c-2.14-1.66-3.84-3.11-5.2-3.49-.06-.05-2.4-.28-2.72,1.08l-.6,3.8L.28,125.42c-.9,1.08.64,2.78.72,2.8,1.12.85,3.39,1.39,6,2.1,3.43.93,6.67.67,7.83.18L15.6,129l.77-1.54C16.06,126.21,14.32,123.46,11.51,121.28Z"/><path class="cls-25" d="M14.52,130.77a13.58,13.58,0,0,0-2.91,7.08c-.37,2.68-.78,4.78-.43,6.15,0,.08.95,2.17,2.29,1.76l3.59-1.41,3.74,1c1.38.24,2.09-2,2.06-2,.18-1.4-.48-3.43-1.17-6a13.58,13.58,0,0,0-3.74-6.67l-1.71.1Z"/><path class="cls-25" d="M25,116.81c-1.3.54-2.73,2.13-4.65,4a13.58,13.58,0,0,0-3.91,6.58l.95,1.43.95,1.43a13.58,13.58,0,0,0,7.58-1c2.51-1,4.53-1.72,5.54-2.7.07,0,1.4-1.9.38-2.87l-3-2.4-1-3.72C27.28,116.26,25,116.75,25,116.81Z"/><polygon class="cls-22" points="14.32 130.57 16.23 126.88 18.58 130.36 13.94 130.9 14.32 130.57"/><polygon class="cls-26" points="5.59 127.82 15.18 128.89 8.83 122.36 15.87 128.7 22.42 121.53 16.99 128.97 25.44 126.78 17.08 129.47 19.89 138.75 16.31 130.34 13.38 140.43 15.55 129.81 5.59 127.82"/><path class="cls-22" d="M22.24,122.41c.53-2.66,1.07-5.13.8-6.51,0-.08-.82-2.42-2.18-2.1l-3.67,1.09-3.67-1.24c-1.37-.32-2.2,1.8-2.18,1.87-.26,1.38.27,4.25.8,6.9.7,3.48,2.38,5.28,3.33,7.68H18.9C19.86,127.7,21.54,125.9,22.24,122.41Z"/><path class="cls-22" d="M15.09,128.74a13.58,13.58,0,0,0-7.63.56c-2.57.87-4.63,1.44-5.69,2.36-.08,0-1.51,1.82-.55,2.84l2.87,2.58.8,3.77c.41,1.34,2.68,1,2.74.94,1.33-.46,2.86-2,4.89-3.75a13.58,13.58,0,0,0,4.3-6.33l-.86-1.49Z"/><path class="cls-22" d="M32.25,131.86c-1.07-.92-3.13-1.49-5.69-2.36a13.58,13.58,0,0,0-7.63-.56l-.86,1.49-.86,1.49a13.58,13.58,0,0,0,4.3,6.33c2,1.79,3.56,3.29,4.89,3.75.06.06,2.33.4,2.74-.94l.8-3.77,2.87-2.58C33.77,133.67,32.33,131.88,32.25,131.86Z"/><polygon class="cls-22" points="15.17 128.47 19.34 128.53 17.27 132.19 14.71 128.27 15.17 128.47"/><polygon class="cls-26" points="13.74 119.44 17.06 128.49 20.07 119.89 17.55 129.03 26.88 131.68 17.8 130.15 23.54 136.73 17.39 130.46 10.35 137.11 16.27 130.15 5.94 132.04 16.41 129.23 13.74 119.44"/></g></g></svg>