<svg viewBox="0 0 174.56 166.61"><defs><style>.cls-1{fill:#fff;stroke:#000;stroke-miterlimit:10;opacity:0.8;}.cls-2{font-size:12px;font-family:MyriadPro-Regular, Myriad Pro;}.cls-3{letter-spacing:-0.01em;}.cls-4{letter-spacing:-0.01em;}.cls-5{letter-spacing:0em;}.cls-6{letter-spacing:0em;}.cls-7{letter-spacing:0em;}.cls-8{letter-spacing:0em;}.cls-9{letter-spacing:-0.01em;}.cls-10{letter-spacing:-0.01em;}.cls-11{letter-spacing:-0.01em;}.cls-12{letter-spacing:-0.03em;}.cls-13{letter-spacing:0.01em;}.cls-14{letter-spacing:0.01em;}.cls-15{fill:#ca465a;}.cls-16{fill:#f65973;}.cls-17{fill:#9c3043;}.cls-18{fill:#13add6;}.cls-19{fill:#31859b;}.cls-20{fill:#5bcdf4;}.cls-21{fill:#d3c75e;}.cls-22{fill:#e2d02b;}.cls-23{fill:#efe66f;}</style></defs><title>Asset 23</title><g id="Layer_2" data-name="Layer 2"><g id="Flagfact"><path class="cls-1" d="M140.48,137.94H129.82l-27.5,26.42,12.5-26.25-86.33-.17a12,12,0,0,1-12-12V26.6a12,12,0,0,1,12-12h112a12,12,0,0,1,12,12v99.33A12,12,0,0,1,140.48,137.94Z"/><text class="cls-2" transform="translate(18.79 49.88)"><tspan class="cls-3">E</tspan><tspan class="cls-4" x="5.82" y="0">v</tspan><tspan x="11.47" y="0">en in his imp</tspan><tspan class="cls-5" x="75.11" y="0">r</tspan><tspan x="79.08" y="0">isonme</tspan><tspan class="cls-6" x="115.91" y="0">n</tspan><tspan class="cls-7" x="122.52" y="0">t</tspan><tspan class="cls-8" x="126.45" y="0">, </tspan><tspan class="cls-9" x="0" y="14.4">A</tspan><tspan x="7.2" y="14.4">quino soug</tspan><tspan class="cls-6" x="63.83" y="14.4">h</tspan><tspan x="70.44" y="14.4">t </tspan><tspan class="cls-10" x="76.96" y="14.4">f</tspan><tspan x="80.3" y="14.4">or a se</tspan><tspan class="cls-6" x="112.45" y="14.4">a</tspan><tspan x="118.19" y="14.4">t </tspan><tspan x="0" y="28.8">in offi</tspan><tspan class="cls-11" x="28.38" y="28.8">c</tspan><tspan x="33.68" y="28.8">e but lost </tspan><tspan class="cls-11" x="82.88" y="28.8">t</tspan><tspan x="86.78" y="28.8">o </tspan><tspan class="cls-12" x="0" y="43.2">F</tspan><tspan x="5.53" y="43.2">irst Lady </tspan><tspan class="cls-13" x="49.94" y="43.2">I</tspan><tspan x="52.93" y="43.2">melda </tspan><tspan class="cls-14" x="86.88" y="43.2">M</tspan><tspan x="96.6" y="43.2">a</tspan><tspan class="cls-4" x="102.38" y="43.2">r</tspan><tspan class="cls-11" x="106.19" y="43.2">c</tspan><tspan x="111.49" y="43.2">os</tspan></text><path class="cls-15" d="M148.07,116.74c-2.62-2-4.71-3.81-6.37-4.28-.07-.06-2.94-.35-3.33,1.33l-.73,4.66-3.33,3.36c-1.1,1.32.79,3.41.88,3.43,1.37,1,4.15,1.7,7.36,2.57,4.2,1.14,8.18.83,9.59.22l.94-1.88.94-1.88C153.64,122.78,151.5,119.42,148.07,116.74Z"/><path class="cls-15" d="M151.75,128.37c-1.11,1.07-3,4.36-3.57,8.67-.46,3.29-1,5.86-.53,7.53,0,.09,1.16,2.65,2.81,2.16l4.4-1.73,4.58,1.18c1.7.29,2.56-2.39,2.53-2.49.22-1.71-.59-4.2-1.44-7.41-1.11-4.21-3.36-7.25-4.59-8.17l-2.1.13Z"/><path class="cls-15" d="M164.56,111.27c-1.59.66-3.35,2.61-5.7,4.95-3.09,3.07-4.6,6.53-4.79,8.06l1.16,1.75,1.16,1.75c1.48.43,5.26.39,9.29-1.25,3.07-1.25,5.55-2.1,6.79-3.31.09,0,1.72-2.33.47-3.52l-3.7-2.95L168,112.22C167.38,110.6,164.63,111.2,164.56,111.27Z"/><polygon class="cls-16" points="151.5 128.13 153.84 123.6 156.73 127.87 151.04 128.53 151.5 128.13"/><polygon class="cls-17" points="140.82 124.76 152.56 126.08 144.78 118.07 153.41 125.84 161.43 117.06 154.78 126.17 165.13 123.48 154.89 126.79 158.34 138.15 153.94 127.85 150.36 140.21 153.01 127.19 140.82 124.76"/><path class="cls-16" d="M161.21,117.39c.65-3.25,1.31-5.92,1-7.61,0-.09-1-2.78-2.68-2.39l-4.5,1.43-4.5-1.47c-1.68-.39-2.7,2.23-2.68,2.32-.32,1.69.33,4.48,1,7.73.86,4.27,2.91,7.68,4.08,8.68h4.21C158.3,125.08,160.35,121.66,161.21,117.39Z"/><path class="cls-16" d="M152.45,125.88c-1.45-.52-5.22-.71-9.35.68-3.14,1.06-5.67,1.76-7,2.89-.09,0-1.85,2.23-.68,3.48L139,136.1l1,4.62c.5,1.65,3.29,1.22,3.35,1.15,1.63-.57,3.5-2.4,6-4.59,3.27-2.88,5-6.24,5.26-7.76l-1.05-1.82Z"/><path class="cls-16" d="M173.48,129.71c-1.31-1.13-3.83-1.83-7-2.89-4.13-1.39-7.9-1.2-9.35-.68L156.1,128,155,129.78c.28,1.52,2,4.88,5.26,7.76,2.49,2.19,4.36,4,6,4.59.07.07,2.85.49,3.35-1.15l1-4.62,3.51-3.16C175.33,131.93,173.57,129.73,173.48,129.71Z"/><polygon class="cls-16" points="152.55 125.56 157.65 125.63 155.12 130.11 151.99 125.32 152.55 125.56"/><polygon class="cls-17" points="150.8 114.49 154.87 125.58 158.55 115.05 155.46 126.24 166.9 129.49 155.77 127.61 162.8 135.68 155.27 127.99 146.65 136.14 153.9 127.61 141.24 129.93 154.07 126.49 150.8 114.49"/><path class="cls-15" d="M14.1,9.44c-2.62-2-4.71-3.81-6.37-4.28C7.66,5.09,4.8,4.81,4.4,6.48l-.73,4.66L.34,14.51c-1.1,1.32.79,3.41.88,3.43,1.37,1,4.15,1.7,7.36,2.57,4.2,1.14,8.18.83,9.59.22l.94-1.88L20.05,17C19.68,15.47,17.54,12.11,14.1,9.44Z"/><path class="cls-15" d="M17.79,21.06c-1.11,1.07-3,4.36-3.57,8.67-.46,3.29-1,5.86-.53,7.53,0,.09,1.16,2.65,2.81,2.16l4.4-1.73,4.58,1.18c1.7.29,2.56-2.39,2.53-2.49.22-1.71-.59-4.2-1.44-7.41-1.11-4.21-3.36-7.25-4.59-8.17l-2.1.13Z"/><path class="cls-15" d="M30.6,4c-1.59.66-3.35,2.61-5.7,4.95C21.81,12,20.3,15.44,20.11,17l1.16,1.75,1.16,1.75c1.48.43,5.26.39,9.29-1.25,3.07-1.25,5.55-2.1,6.79-3.31.09,0,1.72-2.33.47-3.52l-3.7-2.95L34,4.91C33.42,3.29,30.66,3.89,30.6,4Z"/><polygon class="cls-16" points="17.54 20.83 19.88 16.29 22.76 20.56 17.07 21.22 17.54 20.83"/><polygon class="cls-17" points="6.86 17.45 18.59 18.77 10.82 10.77 19.45 18.53 27.46 9.75 20.82 18.86 31.17 16.18 20.93 19.48 24.38 30.84 19.98 20.54 16.4 32.9 19.05 19.89 6.86 17.45"/><path class="cls-16" d="M27.25,10.09c.65-3.25,1.31-5.92,1-7.61,0-.09-1-2.78-2.68-2.39l-4.5,1.43L16.56,0c-1.68-.39-2.7,2.23-2.68,2.32-.32,1.69.33,4.48,1,7.73.86,4.27,2.91,7.68,4.08,8.68h4.21C24.33,17.77,26.39,14.36,27.25,10.09Z"/><path class="cls-16" d="M18.49,18.58c-1.45-.52-5.22-.71-9.35.68C6,20.32,3.47,21,2.17,22.15c-.09,0-1.85,2.23-.68,3.48L5,28.79l1,4.62c.5,1.65,3.29,1.22,3.35,1.15,1.63-.57,3.5-2.4,6-4.59,3.27-2.88,5-6.24,5.26-7.76L19.54,20.4Z"/><path class="cls-16" d="M39.51,22.4c-1.31-1.13-3.83-1.83-7-2.89-4.13-1.39-7.9-1.2-9.35-.68l-1.05,1.82-1.05,1.82c.28,1.52,2,4.88,5.26,7.76,2.49,2.19,4.36,4,6,4.59.07.07,2.85.49,3.35-1.15l1-4.62,3.51-3.16C41.37,24.63,39.61,22.42,39.51,22.4Z"/><polygon class="cls-16" points="18.59 18.25 23.69 18.32 21.16 22.8 18.03 18.01 18.59 18.25"/><polygon class="cls-17" points="16.84 7.18 20.9 18.27 24.59 7.74 21.5 18.93 32.93 22.18 21.81 20.3 28.84 28.37 21.31 20.68 12.68 28.84 19.93 20.3 7.28 22.62 20.11 19.18 16.84 7.18"/><path class="cls-18" d="M16.84,13.5A15.15,15.15,0,0,0,13,10.91s-1.78-.21-2,.8l-.44,2.82-2,2c-.67.8.48,2.07.53,2.08a15.57,15.57,0,0,0,4.46,1.56,10.76,10.76,0,0,0,5.81.14l.57-1.14.57-1.14A10.77,10.77,0,0,0,16.84,13.5Z"/><path class="cls-18" d="M19.07,20.54a10.08,10.08,0,0,0-2.16,5.25c-.28,2-.58,3.55-.32,4.56,0,.06.7,1.61,1.7,1.31l2.67-1,2.77.72c1,.17,1.55-1.45,1.53-1.51.13-1-.36-2.55-.87-4.49a10.08,10.08,0,0,0-2.78-5l-1.27.08Z"/><path class="cls-18" d="M26.83,10.19c-1,.4-2,1.58-3.45,3a10.08,10.08,0,0,0-2.9,4.88l.7,1.06.7,1.06a10.08,10.08,0,0,0,5.63-.75c1.86-.76,3.36-1.27,4.11-2,.06,0,1-1.41.28-2.13l-2.24-1.78-.77-2.76C28.54,9.78,26.87,10.14,26.83,10.19Z"/><polygon class="cls-16" points="18.92 20.4 20.34 17.66 22.09 20.24 18.64 20.64 18.92 20.4"/><polygon class="cls-19" points="12.45 18.36 19.56 19.16 14.85 14.31 20.08 19.01 24.93 13.69 20.91 19.21 27.18 17.58 20.98 19.59 23.06 26.47 20.4 20.23 18.23 27.71 19.84 19.83 12.45 18.36"/><path class="cls-20" d="M24.8,13.81c.4-2,.79-3.54.6-4.57,0-.06-.61-1.66-1.62-1.43l-2.72.88-2.72-.89c-1-.24-1.64,1.35-1.62,1.41a15.08,15.08,0,0,0,.6,4.6C17.82,16.4,19.07,19,19.78,19h2.55C23,19,24.28,16.4,24.8,13.81Z"/><path class="cls-20" d="M19.5,19a10.08,10.08,0,0,0-5.66.41c-1.9.64-3.43,1.07-4.22,1.75-.06,0-1.12,1.35-.41,2.11l2.13,1.92.6,2.8c.3,1,2,.74,2,.7,1-.34,2.12-1.45,3.63-2.78a10.08,10.08,0,0,0,3.19-4.7l-.64-1.1Z"/><path class="cls-20" d="M32.23,21.36c-.79-.68-2.32-1.11-4.22-1.75a10.08,10.08,0,0,0-5.66-.41l-.64,1.1-.64,1.1a10.08,10.08,0,0,0,3.19,4.7c1.51,1.33,2.64,2.44,3.63,2.78,0,0,1.73.3,2-.7l.6-2.8,2.13-1.92C33.36,22.7,32.29,21.37,32.23,21.36Z"/><polygon class="cls-20" points="19.56 18.84 22.65 18.88 21.11 21.6 19.22 18.7 19.56 18.84"/><polygon class="cls-19" points="18.5 12.14 20.96 18.86 23.19 12.48 21.32 19.25 28.25 21.22 21.51 20.09 25.77 24.97 21.2 20.31 15.98 25.25 20.37 20.09 12.71 21.49 20.48 19.41 18.5 12.14"/><path class="cls-21" d="M150.62,120.34a13.94,13.94,0,0,0-3.55-2.38s-1.64-.19-1.86.74l-.41,2.6L143,123.16c-.61.74.44,1.9.49,1.91a14.32,14.32,0,0,0,4.1,1.43,9.89,9.89,0,0,0,5.34.12l.52-1,.52-1A9.9,9.9,0,0,0,150.62,120.34Z"/><path class="cls-21" d="M152.67,126.82a9.27,9.27,0,0,0-2,4.83,13.54,13.54,0,0,0-.3,4.2c0,.05.65,1.48,1.57,1.2l2.45-1,2.55.66c.94.16,1.43-1.33,1.41-1.38a13.54,13.54,0,0,0-.8-4.13,9.27,9.27,0,0,0-2.56-4.55l-1.17.07Z"/><path class="cls-21" d="M159.81,117.29a13.54,13.54,0,0,0-3.18,2.76,9.27,9.27,0,0,0-2.67,4.49l.65,1,.65,1a9.27,9.27,0,0,0,5.18-.69,13.54,13.54,0,0,0,3.78-1.84c.05,0,1-1.3.26-2l-2.06-1.64-.7-2.54C161.38,116.92,159.84,117.25,159.81,117.29Z"/><polygon class="cls-16" points="152.53 126.69 153.84 124.16 155.44 126.54 152.27 126.91 152.53 126.69"/><polygon class="cls-22" points="146.58 124.8 153.12 125.54 148.79 121.08 153.59 125.41 158.06 120.51 154.36 125.59 160.13 124.09 154.42 125.94 156.34 132.26 153.89 126.53 151.89 133.41 153.37 126.16 146.58 124.8"/><path class="cls-23" d="M157.94,120.7a13.92,13.92,0,0,0,.55-4.24c0-.05-.56-1.55-1.49-1.33l-2.5.8-2.5-.82c-.93-.22-1.5,1.24-1.49,1.29a14.29,14.29,0,0,0,.55,4.3,13.08,13.08,0,0,0,2.28,4.83h2.34A13.1,13.1,0,0,0,157.94,120.7Z"/><path class="cls-23" d="M153.06,125.43a9.27,9.27,0,0,0-5.21.38,13.54,13.54,0,0,0-3.89,1.61c-.05,0-1,1.24-.38,1.94l2,1.76.55,2.58c.28.92,1.83.68,1.87.64a13.54,13.54,0,0,0,3.34-2.56,9.27,9.27,0,0,0,2.93-4.32l-.59-1Z"/><path class="cls-23" d="M164.77,127.56a13.54,13.54,0,0,0-3.89-1.61,9.27,9.27,0,0,0-5.21-.38l-.59,1-.59,1a9.27,9.27,0,0,0,2.93,4.32,13.54,13.54,0,0,0,3.34,2.56s1.59.27,1.87-.64l.55-2.58,2-1.76C165.81,128.8,164.82,127.58,164.77,127.56Z"/><polygon class="cls-23" points="153.12 125.25 155.96 125.29 154.55 127.79 152.8 125.12 153.12 125.25"/><polygon class="cls-22" points="152.14 119.08 154.41 125.26 156.46 119.4 154.74 125.63 161.11 127.44 154.91 126.39 158.83 130.89 154.63 126.6 149.83 131.15 153.87 126.39 146.81 127.68 153.96 125.77 152.14 119.08"/></g></g></svg>