<svg viewBox="0 0 169.94 163.77"><defs><style>.cls-1{fill:#fff;stroke:#000;stroke-miterlimit:10;opacity:0.8;}.cls-2{font-size:12px;font-family:MyriadPro-Regular, Myriad Pro;}.cls-3{letter-spacing:-0.01em;}.cls-4{letter-spacing:0em;}.cls-5{letter-spacing:-0.01em;}.cls-6{letter-spacing:0em;}.cls-7{letter-spacing:0em;}.cls-8{letter-spacing:-0.01em;}.cls-9{letter-spacing:0em;}.cls-10{letter-spacing:0em;}.cls-11{letter-spacing:0.02em;}.cls-12{letter-spacing:-0.01em;}.cls-13{letter-spacing:0em;}.cls-14{fill:#13add6;}.cls-15{fill:#f65973;}.cls-16{fill:#31859b;}.cls-17{fill:#5bcdf4;}.cls-18{fill:#ca465a;}.cls-19{fill:#9c3043;}.cls-20{fill:#d3c75e;}.cls-21{fill:#e2d02b;}.cls-22{fill:#efe66f;}</style></defs><title>Asset 25</title><g id="Layer_2" data-name="Layer 2"><g id="speech5"><path class="cls-1" d="M135.92,135.09H125.25l-27.5,26.42,12.5-26.25-86.33-.17a12,12,0,0,1-12-12V23.76a12,12,0,0,1,12-12h112a12,12,0,0,1,12,12v99.33A12,12,0,0,1,135.92,135.09Z"/><text class="cls-2" transform="translate(20.22 42.03)">Upon <tspan class="cls-3" x="30.38" y="0">r</tspan><tspan x="34.19" y="0">etu</tspan><tspan class="cls-4" x="50.78" y="0">r</tspan><tspan x="54.75" y="0">ning </tspan><tspan class="cls-5" x="80.13" y="0">t</tspan><tspan class="cls-6" x="84.03" y="0">o the</tspan><tspan class="cls-7" x="0" y="14.4">P</tspan><tspan x="6.32" y="14.4">hilippine</tspan><tspan class="cls-8" x="50.57" y="14.4">s</tspan><tspan x="55.19" y="14.4">, he </tspan><tspan class="cls-9" x="75.43" y="14.4">w</tspan><tspan class="cls-10" x="84.21" y="14.4">as shot </tspan><tspan x="0" y="28.8">and </tspan><tspan class="cls-11" x="21.76" y="28.8">k</tspan><tspan x="27.59" y="28.8">illed on </tspan><tspan class="cls-12" x="0" y="43.2">A</tspan><tspan x="7.2" y="43.2">ugust 21, 1983 while</tspan><tspan class="cls-13"><tspan x="0" y="57.6">e</tspan><tspan class="cls-6" x="5.98" y="57.6">xiting the plan</tspan><tspan class="cls-12" x="78.32" y="57.6">e</tspan><tspan class="cls-6" x="84.19" y="57.6">.</tspan></tspan></text><path class="cls-14" d="M144.53,115.56c-2.1-3-3.73-5.52-5.32-6.54-.05-.09-3-1.31-3.93.33L133,114l-4.58,2.47c-1.58,1-.27,3.84-.17,3.89,1.11,1.54,3.82,3.12,6.91,5.06,4.05,2.55,8.33,3.49,10,3.31l1.59-1.68,1.59-1.68C148.45,123.7,147.28,119.47,144.53,115.56Z"/><path class="cls-14" d="M144.67,129c-1.51.77-4.52,3.63-6.53,8-1.53,3.31-2.88,5.85-3,7.75-.05.09.37,3.16,2.26,3.17l5.18-.41,4.43,2.71c1.69.85,3.46-1.7,3.46-1.8.78-1.73.73-4.61.87-8.25.18-4.78-1.21-8.7-2.2-10.07l-2.25-.54Z"/><path class="cls-14" d="M163.63,115.09c-1.89.19-4.36,1.67-7.58,3.38-4.23,2.24-6.93,5.39-7.62,6.94l.66,2.22.66,2.22c1.42.92,5.4,2.1,10.17,1.67,3.63-.33,6.51-.43,8.2-1.3.11,0,2.55-1.9,1.62-3.55l-2.94-4.28.13-5.19C166.8,115.3,163.72,115,163.63,115.09Z"/><polygon class="cls-15" points="144.49 128.64 148.4 124.63 150.06 130.04 143.87 128.91 144.49 128.64"/><polygon class="cls-16" points="134.34 121.66 146.26 126.81 140.65 115.91 147.23 126.84 158.47 120.17 148.56 127.63 160.31 128.12 148.48 128.31 148.46 141.36 147.14 129.12 139.41 140.97 146.38 128.13 134.34 121.66"/><path class="cls-17" d="M158.16,120.37c1.73-3.21,3.26-5.76,3.46-7.64.06-.09-.17-3.22-2.05-3.35l-5.19.07-4.26-3c-1.64-.95-3.55,1.48-3.56,1.58-.88,1.68-1.06,4.73-1.42,8.36-.47,4.76.3,10,1.54,10.36l2.21.67,2.21.67C152.34,128.49,155.89,124.59,158.16,120.37Z"/><path class="cls-17" d="M146.21,126.58c-1.36-1-5.26-2.42-10-2.28-3.65.11-6.53,0-8.26.8-.11,0-2.66,1.75-1.83,3.44l2.68,4.45-.45,5.18c0,1.89,3.06,2.34,3.16,2.29,1.89-.07,4.45-1.4,7.77-2.91,4.36-2,7.24-5,8-6.47l-.52-2.25Z"/><path class="cls-17" d="M167.09,137.34c-1-1.6-3.44-3.15-6.41-5.27-3.89-2.79-7.92-3.79-9.61-3.71l-1.69,1.58-1.69,1.58c-.19,1.68.53,5.77,3,9.84,1.92,3.1,3.29,5.63,4.82,6.75,0,.09,2.84,1.43,3.9-.14l2.52-4.54,4.71-2.2C168.32,140.27,167.18,137.4,167.09,137.34Z"/><polygon class="cls-17" points="146.42 126.27 151.76 127.98 147.66 131.88 145.9 125.83 146.42 126.27"/><polygon class="cls-16" points="148.13 114.07 148.84 127.03 156.09 117.14 149.25 127.91 160.24 135 149.14 129.46 153.95 140.19 148.5 129.69 136.81 135.5 147.17 128.86 133.12 127.23 147.71 127.73 148.13 114.07"/><path class="cls-18" d="M141.67,107.92c-1.79-1.39-3.22-2.6-4.35-2.92,0,0-2-.24-2.28.91l-.5,3.18-2.27,2.3c-.75.9.54,2.33.6,2.34.94.71,2.84,1.16,5,1.76a12.13,12.13,0,0,0,6.55.15l.64-1.28.64-1.28A12.14,12.14,0,0,0,141.67,107.92Z"/><path class="cls-18" d="M144.19,115.86a11.36,11.36,0,0,0-2.44,5.92c-.31,2.25-.65,4-.36,5.14,0,.06.79,1.81,1.92,1.48l3-1.18,3.13.81c1.16.2,1.75-1.64,1.73-1.7.15-1.17-.4-2.87-1-5.06a11.36,11.36,0,0,0-3.13-5.58l-1.43.09Z"/><path class="cls-18" d="M152.94,104.18c-1.09.45-2.29,1.78-3.89,3.38a11.36,11.36,0,0,0-3.27,5.51l.79,1.2.79,1.2a11.36,11.36,0,0,0,6.35-.85c2.1-.85,3.79-1.44,4.64-2.26.06,0,1.17-1.59.32-2.4l-2.52-2-.86-3.11C154.87,103.72,153,104.13,152.94,104.18Z"/><polygon class="cls-15" points="144.02 115.7 145.62 112.6 147.59 115.52 143.7 115.97 144.02 115.7"/><polygon class="cls-19" points="136.72 113.39 144.74 114.29 139.43 108.83 145.32 114.13 150.8 108.13 146.26 114.36 153.33 112.52 146.33 114.78 148.69 122.54 145.69 115.51 143.24 123.94 145.05 115.06 136.72 113.39"/><path class="cls-15" d="M150.65,108.87c.45-2.22.89-4.29.67-5.45,0-.06-.68-2-1.83-1.76l-3.07.91-3.07-1c-1.14-.27-1.84,1.51-1.83,1.57-.22,1.16.23,3.56.67,5.78.59,2.92,2,4.42,2.79,6.43h2.87C148.66,113.3,150.06,111.79,150.65,108.87Z"/><path class="cls-15" d="M144.67,114.16a11.36,11.36,0,0,0-6.39.47c-2.15.72-3.87,1.2-4.76,2-.06,0-1.27,1.52-.46,2.38l2.4,2.16.67,3.16c.34,1.12,2.24.83,2.29.79,1.11-.39,2.39-1.64,4.09-3.14a11.36,11.36,0,0,0,3.6-5.3l-.72-1.24Z"/><path class="cls-15" d="M159,116.77c-.89-.77-2.62-1.25-4.76-2a11.36,11.36,0,0,0-6.39-.47l-.72,1.24-.72,1.24a11.36,11.36,0,0,0,3.6,5.3c1.7,1.5,3,2.75,4.09,3.14,0,0,1.95.34,2.29-.79l.67-3.16,2.4-2.16C160.29,118.29,159.09,116.79,159,116.77Z"/><polygon class="cls-15" points="144.74 113.94 148.22 113.99 146.49 117.05 144.35 113.78 144.74 113.94"/><polygon class="cls-19" points="143.54 106.38 146.32 113.96 148.83 106.76 146.72 114.41 154.53 116.62 146.94 115.34 151.74 120.85 146.59 115.6 140.7 121.17 145.65 115.34 137.01 116.92 145.77 114.58 143.54 106.38"/><path class="cls-18" d="M129.18,115.28a11.53,11.53,0,0,0-2.94-2s-1.35-.16-1.54.61l-.34,2.15-1.53,1.55c-.51.61.36,1.57.41,1.58a11.85,11.85,0,0,0,3.39,1.19,8.19,8.19,0,0,0,4.42.1l.43-.87.43-.87A8.19,8.19,0,0,0,129.18,115.28Z"/><path class="cls-18" d="M130.88,120.64a7.67,7.67,0,0,0-1.64,4,11.2,11.2,0,0,0-.24,3.47s.54,1.22,1.3,1l2-.8,2.11.55c.78.13,1.18-1.1,1.17-1.15a11.2,11.2,0,0,0-.66-3.42,7.67,7.67,0,0,0-2.11-3.77l-1,.06Z"/><path class="cls-18" d="M136.79,112.76a11.2,11.2,0,0,0-2.63,2.28,7.67,7.67,0,0,0-2.21,3.72l.53.81.53.81a7.67,7.67,0,0,0,4.28-.57,11.2,11.2,0,0,0,3.13-1.52s.79-1.08.22-1.62l-1.7-1.36-.58-2.1C138.09,112.45,136.82,112.72,136.79,112.76Z"/><polygon class="cls-15" points="130.77 120.53 131.85 118.44 133.18 120.41 130.55 120.71 130.77 120.53"/><polygon class="cls-19" points="125.84 118.97 131.25 119.58 127.67 115.89 131.65 119.47 135.34 115.42 132.28 119.63 137.05 118.39 132.33 119.91 133.92 125.15 131.89 120.4 130.24 126.09 131.46 120.1 125.84 118.97"/><path class="cls-15" d="M135.24,115.92a12.53,12.53,0,0,0,.45-3.68s-.46-1.37-1.23-1.19l-2.07.62-2.07-.7c-.77-.18-1.24,1-1.23,1.06a13.88,13.88,0,0,0,.45,3.9c.4,2,1.34,3,1.88,4.34h1.94C133.9,118.91,134.85,117.89,135.24,115.92Z"/><path class="cls-15" d="M131.21,119.49a7.67,7.67,0,0,0-4.31.31,11.2,11.2,0,0,0-3.21,1.33s-.85,1-.31,1.6L125,124.2l.45,2.13c.23.76,1.51.56,1.55.53a11.2,11.2,0,0,0,2.76-2.12,7.67,7.67,0,0,0,2.43-3.57l-.48-.84Z"/><path class="cls-15" d="M140.9,121.26a11.2,11.2,0,0,0-3.21-1.33,7.67,7.67,0,0,0-4.31-.31l-.48.84-.48.84a7.67,7.67,0,0,0,2.43,3.57,11.2,11.2,0,0,0,2.76,2.12s1.32.23,1.55-.53l.45-2.13,1.62-1.46C141.75,122.28,140.94,121.27,140.9,121.26Z"/><polygon class="cls-15" points="131.25 119.34 133.6 119.38 132.44 121.44 130.99 119.23 131.25 119.34"/><polygon class="cls-19" points="130.44 114.24 132.32 119.36 134.02 114.5 132.59 119.66 137.86 121.16 132.74 120.29 135.98 124.01 132.5 120.46 128.53 124.22 131.87 120.29 126.04 121.36 131.95 119.77 130.44 114.24"/><path class="cls-20" d="M15.83,6.52C14.61,4,13.69,1.82,12.61.83c0-.08-2.1-1.38-3-.26L7.23,3.85,3.41,5.14c-1.34.59-.7,2.9-.63,2.95C3.43,9.41,5.3,11,7.41,12.85c2.77,2.47,5.92,3.74,7.23,3.82l1.43-1.08,1.43-1.08C17.78,13.24,17.43,9.86,15.83,6.52Z"/><path class="cls-20" d="M14.21,16.78A14.17,14.17,0,0,0,8.2,22c-1.6,2.33-3,4.1-3.27,5.54-.05.06-.12,2.46,1.32,2.72l4,.36,3,2.64c1.18.87,2.86-.85,2.87-.93.82-1.22,1.15-3.43,1.73-6.19a14.17,14.17,0,0,0-.39-8l-1.65-.7Z"/><path class="cls-20" d="M30.49,8.62c-1.47-.1-3.54.71-6.23,1.6a14.17,14.17,0,0,0-6.72,4.32l.22,1.78L18,18.1a14.17,14.17,0,0,0,7.56,2.59c2.82.22,5,.51,6.43.06.08,0,2.2-1.13,1.69-2.5L32,14.6l.77-4C32.89,9.19,30.56,8.59,30.49,8.62Z"/><polygon class="cls-15" points="14.12 16.51 17.62 13.94 18.2 18.3 13.61 16.63 14.12 16.51"/><polygon class="cls-21" points="7.26 9.87 15.7 15.34 12.82 6.28 16.44 15.48 25.89 11.84 17.36 16.26 26.27 18.15 17.21 16.77 15.51 26.74 16.08 17.22 8.65 25.27 15.62 16.36 7.26 9.87"/><path class="cls-22" d="M25.6,12c1.74-2.23,3.25-4,3.64-5.42.05-.06.3-2.5-1.13-2.84l-4-.62L21.28.29C20.15-.64,18.38,1,18.36,1c-.89,1.17-1.45,3.53-2.19,6.26-1,3.58-.35,6.26-.19,8.17l1.6.8,1.6.8C20.81,16.05,23.33,14.94,25.6,12Z"/><path class="cls-22" d="M15.7,15.15a14.17,14.17,0,0,0-7.38-3c-2.8-.39-5-.81-6.41-.45-.08,0-2.26,1-1.84,2.39l1.47,3.75-1,3.9c-.25,1.44,2,2.18,2.12,2.16,1.46.19,3.58-.5,6.31-1.22a14.17,14.17,0,0,0,7-3.91l-.11-1.79Z"/><path class="cls-22" d="M30.26,26.07C29.7,24.71,28,23.22,26,21.21a14.17,14.17,0,0,0-6.87-4.08l-1.49,1-1.49,1A14.17,14.17,0,0,0,17.25,27c1.06,2.62,1.79,4.73,2.82,5.78,0,.08,2,1.46,3,.4l2.51-3.15L29.45,29C30.83,28.47,30.32,26.12,30.26,26.07Z"/><polygon class="cls-22" points="15.89 14.94 19.76 16.94 16.12 19.39 15.56 14.54 15.89 14.94"/><polygon class="cls-21" points="18.77 5.84 17.65 15.84 24.47 9.22 17.85 16.57 25.33 23.4 17.57 17.73 19.86 26.55 17.04 17.83 7.37 20.76 16.14 17.02 5.61 13.97 16.7 16.23 18.77 5.84"/></g></g></svg>